<svg id="Brandmark-black" xmlns="http://www.w3.org/2000/svg" width="226.091" height="52.473" viewBox="0 0 226.091 52.473">
  <g id="Group_126014" data-name="Group 126014">
    <g id="Group_126009" data-name="Group 126009">
      <g id="Group_126006" data-name="Group 126006" transform="translate(26.408 34.472)">
        <path id="Path_130008" data-name="Path 130008" d="M89.716,67.362a.127.127,0,0,1-.12-.088l-1.412-2.919H86.358c-.04,0-.056.016-.056.056v2.855c0,.064-.032.1-.1.1h-.375c-.064,0-.1-.032-.1-.1v-6.54a.085.085,0,0,1,.1-.1h2.265a2.172,2.172,0,0,1,1.507.495,1.739,1.739,0,0,1,.542,1.364,1.843,1.843,0,0,1-.359,1.164,1.792,1.792,0,0,1-1.013.622l1.468,2.983a.1.1,0,0,1,.016.08.071.071,0,0,1-.064.032h-.463Zm-1.635-3.549a1.619,1.619,0,0,0,1.109-.343,1.459,1.459,0,0,0,0-1.97,1.592,1.592,0,0,0-1.109-.343H86.366c-.04,0-.056.016-.056.056v2.536c0,.04.016.056.056.056h1.715Z" transform="translate(-57.541 -60.518)" fill="#88774f"/>
        <path id="Path_130009" data-name="Path 130009" d="M95.427,67.433a2.348,2.348,0,0,1-1.38-.383,2.147,2.147,0,0,1-.8-1.133,2.181,2.181,0,0,1-.088-.3c-.024-.112-.04-.239-.056-.383s-.032-.327-.04-.526-.016-.455-.016-.742.008-.534.016-.742.024-.383.04-.526.04-.279.056-.383a1.6,1.6,0,0,1,.088-.3,2.211,2.211,0,0,1,.8-1.133,2.365,2.365,0,0,1,1.38-.383,2.339,2.339,0,0,1,1.372.383,2.147,2.147,0,0,1,.8,1.133c.024.1.056.191.08.3a3.171,3.171,0,0,1,.064.383c.016.152.032.327.04.526s.016.447.016.734-.008.542-.016.742-.024.383-.04.526a3.17,3.17,0,0,1-.064.383c-.024.112-.056.207-.08.3a2.212,2.212,0,0,1-.8,1.133A2.286,2.286,0,0,1,95.427,67.433Zm1.795-3.469c0-.271-.008-.5-.016-.7s-.024-.367-.032-.5a2.563,2.563,0,0,0-.056-.343c-.024-.1-.048-.175-.064-.239a1.737,1.737,0,0,0-3.262,0c-.016.064-.04.144-.064.239a2.8,2.8,0,0,0-.056.343c-.016.136-.024.3-.032.5s-.016.431-.016.7.008.5.016.7.024.367.032.5a2.564,2.564,0,0,0,.056.343c.024.1.048.175.064.239a1.737,1.737,0,0,0,3.262,0c.016-.064.04-.144.064-.239a2.8,2.8,0,0,0,.056-.343c.016-.136.024-.3.032-.5S97.221,64.235,97.221,63.964Z" transform="translate(-59.025 -60.494)" fill="#88774f"/>
        <path id="Path_130010" data-name="Path 130010" d="M102.159,67.362c-.064,0-.1-.032-.1-.1V64.594l-2.018-3.86a.061.061,0,0,1,.008-.072.078.078,0,0,1,.072-.032h.383a.173.173,0,0,1,.152.1l1.7,3.222h.032l1.667-3.222a.156.156,0,0,1,.152-.1h.375a.084.084,0,0,1,.08.032.06.06,0,0,1,0,.072l-2.018,3.86v2.664c0,.064-.032.1-.1.1h-.375Z" transform="translate(-60.438 -60.518)" fill="#88774f"/>
        <path id="Path_130011" data-name="Path 130011" d="M108.18,60.716a.113.113,0,0,1,.12-.1h.359a.125.125,0,0,1,.12.1l2.337,6.54c.016.064,0,.1-.072.1h-.383c-.072,0-.12-.032-.128-.1l-.6-1.651H107l-.6,1.651a.134.134,0,0,1-.128.1h-.383q-.1,0-.072-.1Zm1.563,4.331-1.26-3.517h-.032l-1.268,3.517Z" transform="translate(-61.609 -60.516)" fill="#88774f"/>
        <path id="Path_130012" data-name="Path 130012" d="M114.18,60.716c0-.064.032-.1.1-.1h.375c.064,0,.1.032.1.1v6.046c0,.04.016.056.056.056h3.326a.085.085,0,0,1,.1.1v.335a.085.085,0,0,1-.1.1h-3.86c-.064,0-.1-.032-.1-.1Z" transform="translate(-63.302 -60.516)" fill="#88774f"/>
        <path id="Path_130013" data-name="Path 130013" d="M124.055,65.922c-.024-.088-.048-.183-.072-.279a3.346,3.346,0,0,1-.056-.383c-.016-.152-.024-.335-.032-.542s-.016-.463-.016-.758.008-.55.016-.758.024-.391.032-.542a3.346,3.346,0,0,1,.056-.383c.024-.1.048-.2.072-.279a2.205,2.205,0,0,1,.79-1.133,2.308,2.308,0,0,1,1.34-.375,2.353,2.353,0,0,1,1.22.311,2.038,2.038,0,0,1,.814.933c.024.056.016.1-.032.128l-.327.16c-.056.032-.1.016-.128-.04a1.978,1.978,0,0,0-.6-.7,1.607,1.607,0,0,0-.949-.263,1.685,1.685,0,0,0-1,.279,1.78,1.78,0,0,0-.582.837c-.016.064-.04.144-.056.239a2.958,2.958,0,0,0-.048.343c-.008.136-.024.3-.032.5s-.008.439-.008.726,0,.526.008.726.016.367.032.5.032.255.048.343.04.175.056.239a1.78,1.78,0,0,0,.582.837,1.631,1.631,0,0,0,1,.279,1.607,1.607,0,0,0,.949-.263,1.911,1.911,0,0,0,.6-.7c.032-.056.072-.072.128-.04l.327.16c.048.024.056.072.032.128a2.038,2.038,0,0,1-.814.933,2.354,2.354,0,0,1-1.22.311,2.308,2.308,0,0,1-1.34-.375A1.993,1.993,0,0,1,124.055,65.922Z" transform="translate(-65.266 -60.49)" fill="#88774f"/>
        <path id="Path_130014" data-name="Path 130014" d="M133.247,67.433a2.348,2.348,0,0,1-1.38-.383,2.147,2.147,0,0,1-.8-1.133,2.183,2.183,0,0,1-.088-.3c-.024-.112-.04-.239-.056-.383s-.032-.327-.04-.526-.016-.455-.016-.742.008-.534.016-.742.024-.383.04-.526.04-.279.056-.383a1.6,1.6,0,0,1,.088-.3,2.212,2.212,0,0,1,.8-1.133,2.365,2.365,0,0,1,1.38-.383,2.339,2.339,0,0,1,1.372.383,2.147,2.147,0,0,1,.8,1.133c.024.1.056.191.08.3a3.169,3.169,0,0,1,.064.383c.016.152.032.327.04.526s.016.455.016.742-.008.542-.016.742-.024.383-.04.526a3.169,3.169,0,0,1-.064.383c-.024.1-.056.207-.08.3a2.212,2.212,0,0,1-.8,1.133A2.339,2.339,0,0,1,133.247,67.433Zm1.795-3.469c0-.271-.008-.5-.016-.7s-.024-.367-.032-.5a2.565,2.565,0,0,0-.056-.343c-.024-.1-.048-.175-.064-.239a1.737,1.737,0,0,0-3.262,0c-.016.064-.04.144-.064.239a2.8,2.8,0,0,0-.056.343c-.016.136-.024.3-.032.5s-.016.431-.016.7.008.5.016.7.024.367.032.5a2.561,2.561,0,0,0,.056.343c.024.1.048.175.064.239a1.737,1.737,0,0,0,3.262,0c.016-.064.04-.144.064-.239a2.807,2.807,0,0,0,.056-.343c.016-.136.024-.3.032-.5S135.041,64.235,135.041,63.964Z" transform="translate(-66.681 -60.494)" fill="#88774f"/>
        <path id="Path_130015" data-name="Path 130015" d="M138.858,60.716c0-.064.032-.1.1-.1h.383a.149.149,0,0,1,.152.1l2.185,4.825h.04l2.138-4.825a.14.14,0,0,1,.144-.1h.391c.064,0,.1.032.1.1v6.54c0,.064-.032.1-.1.1h-.375c-.064,0-.1-.032-.1-.1V61.984h-.032l-1.938,4.267a.25.25,0,0,1-.064.088.211.211,0,0,1-.112.024h-.2a.173.173,0,0,1-.167-.112l-1.938-4.267h-.032v5.272c0,.064-.032.1-.1.1h-.375c-.064,0-.1-.032-.1-.1v-6.54Z" transform="translate(-68.296 -60.516)" fill="#88774f"/>
        <path id="Path_130016" data-name="Path 130016" d="M148.218,60.716c0-.064.032-.1.1-.1h.383a.149.149,0,0,1,.152.1l2.185,4.825h.04l2.138-4.825a.139.139,0,0,1,.144-.1h.391c.064,0,.1.032.1.1v6.54c0,.064-.032.1-.1.1h-.375c-.064,0-.1-.032-.1-.1V61.984h-.032L151.3,66.251a.25.25,0,0,1-.064.088.211.211,0,0,1-.112.024h-.2a.173.173,0,0,1-.168-.112l-1.938-4.267h-.032v5.272c0,.064-.032.1-.1.1h-.375c-.064,0-.1-.032-.1-.1v-6.54Z" transform="translate(-70.19 -60.516)" fill="#88774f"/>
        <path id="Path_130017" data-name="Path 130017" d="M157.57,60.716c0-.064.032-.1.1-.1h.375c.064,0,.1.032.1.1v6.54c0,.064-.032.1-.1.1h-.375c-.064,0-.1-.032-.1-.1Z" transform="translate(-72.085 -60.516)" fill="#88774f"/>
        <path id="Path_130018" data-name="Path 130018" d="M162.472,67.433a3.634,3.634,0,0,1-.654-.064,3.984,3.984,0,0,1-.622-.175,3.312,3.312,0,0,1-.534-.255,3.016,3.016,0,0,1-.423-.3c-.056-.048-.056-.1-.008-.136l.239-.3c.048-.056.1-.056.136-.008a4.067,4.067,0,0,0,.837.479,2.754,2.754,0,0,0,1.093.215,1.993,1.993,0,0,0,1.276-.375,1.208,1.208,0,0,0,.463-1,1.254,1.254,0,0,0-.08-.463,1.031,1.031,0,0,0-.263-.383,1.526,1.526,0,0,0-.494-.287,3.481,3.481,0,0,0-.774-.175l-.311-.04a2.574,2.574,0,0,1-1.468-.582,1.574,1.574,0,0,1-.479-1.2,1.748,1.748,0,0,1,.574-1.388,2.272,2.272,0,0,1,1.547-.5,3.607,3.607,0,0,1,1.069.152,2.745,2.745,0,0,1,.853.415c.056.032.064.08.016.136l-.2.3a.087.087,0,0,1-.136.016,3.772,3.772,0,0,0-.8-.375,2.862,2.862,0,0,0-.829-.128,1.641,1.641,0,0,0-1.125.359,1.233,1.233,0,0,0-.4.957,1.1,1.1,0,0,0,.359.845,2.251,2.251,0,0,0,1.22.439l.3.04a2.643,2.643,0,0,1,1.5.6,1.635,1.635,0,0,1,.471,1.212,1.925,1.925,0,0,1-.152.782,1.744,1.744,0,0,1-.455.622,2.076,2.076,0,0,1-.742.407A3.233,3.233,0,0,1,162.472,67.433Z" transform="translate(-72.617 -60.494)" fill="#88774f"/>
        <path id="Path_130019" data-name="Path 130019" d="M169.912,67.433a3.635,3.635,0,0,1-.654-.064,3.984,3.984,0,0,1-.622-.175,3.313,3.313,0,0,1-.534-.255,3.016,3.016,0,0,1-.423-.3c-.056-.048-.056-.1-.008-.136l.239-.3c.048-.056.1-.056.136-.008a4.066,4.066,0,0,0,.837.479,2.754,2.754,0,0,0,1.093.215,1.993,1.993,0,0,0,1.276-.375,1.208,1.208,0,0,0,.463-1,1.253,1.253,0,0,0-.08-.463,1.031,1.031,0,0,0-.263-.383,1.525,1.525,0,0,0-.494-.287,3.481,3.481,0,0,0-.774-.175l-.311-.04a2.574,2.574,0,0,1-1.468-.582,1.574,1.574,0,0,1-.479-1.2,1.748,1.748,0,0,1,.574-1.388,2.272,2.272,0,0,1,1.547-.5,3.607,3.607,0,0,1,1.069.152,2.746,2.746,0,0,1,.853.415c.056.032.064.08.016.136l-.2.3a.087.087,0,0,1-.136.016,3.772,3.772,0,0,0-.8-.375,2.862,2.862,0,0,0-.829-.128,1.641,1.641,0,0,0-1.125.359,1.233,1.233,0,0,0-.4.957,1.1,1.1,0,0,0,.359.845,2.252,2.252,0,0,0,1.22.439l.3.04a2.643,2.643,0,0,1,1.5.6,1.634,1.634,0,0,1,.471,1.212,1.925,1.925,0,0,1-.152.782,1.744,1.744,0,0,1-.455.622,2.076,2.076,0,0,1-.742.407A3.233,3.233,0,0,1,169.912,67.433Z" transform="translate(-74.123 -60.494)" fill="#88774f"/>
        <path id="Path_130020" data-name="Path 130020" d="M175.4,60.716c0-.064.032-.1.1-.1h.375c.064,0,.1.032.1.1v6.54c0,.064-.032.1-.1.1H175.5a.09.09,0,0,1-.1-.1Z" transform="translate(-75.694 -60.516)" fill="#88774f"/>
        <path id="Path_130021" data-name="Path 130021" d="M180.527,67.433a2.348,2.348,0,0,1-1.38-.383,2.148,2.148,0,0,1-.8-1.133,2.185,2.185,0,0,1-.088-.3c-.024-.112-.04-.239-.056-.383s-.032-.327-.04-.526-.016-.455-.016-.742.008-.534.016-.742.024-.383.04-.526.04-.279.056-.383a1.6,1.6,0,0,1,.088-.3,2.212,2.212,0,0,1,.8-1.133,2.365,2.365,0,0,1,1.38-.383,2.339,2.339,0,0,1,1.372.383,2.147,2.147,0,0,1,.8,1.133c.024.1.056.191.08.3a3.171,3.171,0,0,1,.064.383c.016.152.032.327.04.526s.016.455.016.742-.008.542-.016.742-.024.383-.04.526a3.171,3.171,0,0,1-.064.383c-.024.112-.056.207-.08.3a2.211,2.211,0,0,1-.8,1.133A2.339,2.339,0,0,1,180.527,67.433Zm1.795-3.469c0-.271-.008-.5-.016-.7s-.024-.367-.032-.5a2.563,2.563,0,0,0-.056-.343c-.024-.1-.048-.175-.064-.239a1.737,1.737,0,0,0-3.262,0c-.016.064-.04.144-.064.239a2.8,2.8,0,0,0-.056.343c-.016.136-.024.3-.032.5s-.016.431-.016.7.008.5.016.7.024.367.032.5a2.561,2.561,0,0,0,.056.343c.024.1.048.175.064.239a1.737,1.737,0,0,0,3.262,0c.016-.064.04-.144.064-.239a2.8,2.8,0,0,0,.056-.343c.016-.136.024-.3.032-.5S182.321,64.235,182.321,63.964Z" transform="translate(-76.251 -60.494)" fill="#88774f"/>
        <path id="Path_130022" data-name="Path 130022" d="M186.14,60.716c0-.064.032-.1.1-.1h.375a.171.171,0,0,1,.167.1l3.35,5.535h.032V60.716c0-.064.032-.1.1-.1h.375c.064,0,.1.032.1.1v6.54a.085.085,0,0,1-.1.1h-.383a.188.188,0,0,1-.168-.1L186.778,61.7h-.04v5.551c0,.064-.032.1-.1.1h-.375c-.064,0-.1-.032-.1-.1v-6.54Z" transform="translate(-77.868 -60.516)" fill="#88774f"/>
        <path id="Path_130023" data-name="Path 130023" d="M197.7,60.716c0-.064.032-.1.1-.1h3.86a.085.085,0,0,1,.1.1v.335a.085.085,0,0,1-.1.1h-3.326c-.04,0-.056.016-.056.056v2.465c0,.04.016.056.056.056H201.2a.085.085,0,0,1,.1.1v.335a.085.085,0,0,1-.1.1h-2.863c-.04,0-.056.016-.056.056v2.919c0,.064-.032.1-.1.1H197.8c-.064,0-.1-.032-.1-.1V60.716Z" transform="translate(-80.208 -60.516)" fill="#88774f"/>
        <path id="Path_130024" data-name="Path 130024" d="M206.517,67.433a2.348,2.348,0,0,1-1.38-.383,2.147,2.147,0,0,1-.8-1.133,2.185,2.185,0,0,1-.088-.3c-.024-.112-.04-.239-.056-.383s-.032-.327-.04-.526-.016-.455-.016-.742.008-.534.016-.742.024-.383.04-.526.04-.279.056-.383a1.6,1.6,0,0,1,.088-.3,2.212,2.212,0,0,1,.8-1.133,2.365,2.365,0,0,1,1.38-.383,2.339,2.339,0,0,1,1.372.383,2.147,2.147,0,0,1,.8,1.133c.024.1.056.191.08.3a3.175,3.175,0,0,1,.064.383c.016.152.032.327.04.526s.016.455.016.742-.008.542-.016.742-.024.383-.04.526a3.175,3.175,0,0,1-.064.383c-.024.112-.056.207-.08.3a2.212,2.212,0,0,1-.8,1.133A2.339,2.339,0,0,1,206.517,67.433Zm1.795-3.469c0-.271-.008-.5-.016-.7s-.024-.367-.032-.5a2.563,2.563,0,0,0-.056-.343c-.024-.1-.048-.175-.064-.239a1.737,1.737,0,0,0-3.262,0c-.016.064-.04.144-.064.239a2.8,2.8,0,0,0-.056.343c-.016.136-.024.3-.032.5s-.016.431-.016.7.008.5.016.7.024.367.032.5a2.558,2.558,0,0,0,.056.343c.024.1.048.175.064.239a1.737,1.737,0,0,0,3.262,0c.016-.064.04-.144.064-.239a2.8,2.8,0,0,0,.056-.343c.016-.136.024-.3.032-.5S208.311,64.235,208.311,63.964Z" transform="translate(-81.512 -60.494)" fill="#88774f"/>
        <path id="Path_130025" data-name="Path 130025" d="M216.116,67.362a.127.127,0,0,1-.12-.088l-1.412-2.919h-1.826c-.04,0-.056.016-.056.056v2.855c0,.064-.032.1-.1.1h-.375c-.064,0-.1-.032-.1-.1v-6.54a.085.085,0,0,1,.1-.1h2.265a2.172,2.172,0,0,1,1.507.495,1.739,1.739,0,0,1,.542,1.364,1.843,1.843,0,0,1-.359,1.164,1.792,1.792,0,0,1-1.013.622l1.468,2.983a.1.1,0,0,1,.016.08.071.071,0,0,1-.064.032h-.463Zm-1.643-3.549a1.619,1.619,0,0,0,1.109-.343,1.459,1.459,0,0,0,0-1.97,1.592,1.592,0,0,0-1.109-.343h-1.715c-.04,0-.056.016-.056.056v2.536c0,.04.016.056.056.056h1.715Z" transform="translate(-83.127 -60.518)" fill="#88774f"/>
        <path id="Path_130026" data-name="Path 130026" d="M50.4,74.586c0-.064.032-.1.1-.1h.383a.15.15,0,0,1,.152.1l2.185,4.825h.04L55.4,74.586a.14.14,0,0,1,.144-.1h.391c.064,0,.1.032.1.1v6.54c0,.064-.032.1-.1.1h-.375c-.064,0-.1-.032-.1-.1V75.854h-.032l-1.938,4.267a.25.25,0,0,1-.064.088.211.211,0,0,1-.112.024h-.2a.173.173,0,0,1-.167-.112L51,75.854h-.032v5.272c0,.064-.032.1-.1.1h-.375c-.064,0-.1-.032-.1-.1v-6.54Z" transform="translate(-50.39 -63.324)" fill="#88774f"/>
        <path id="Path_130027" data-name="Path 130027" d="M61.54,74.586a.113.113,0,0,1,.12-.1h.359a.125.125,0,0,1,.12.1l2.337,6.54c.016.064,0,.1-.072.1H64.02c-.072,0-.12-.032-.128-.1l-.6-1.651H60.359l-.6,1.651a.134.134,0,0,1-.128.1h-.383q-.1,0-.072-.1ZM63.1,78.917,61.843,75.4h-.032l-1.268,3.517Z" transform="translate(-52.168 -63.324)" fill="#88774f"/>
        <path id="Path_130028" data-name="Path 130028" d="M67.526,74.586c0-.064.032-.1.1-.1H68a.091.091,0,0,1,.1.1V78.47l3.206-3.892a.248.248,0,0,1,.167-.088h.463c.032,0,.056.008.064.032a.068.068,0,0,1-.024.072l-2.13,2.544,2.3,3.972a.1.1,0,0,1,.016.08.071.071,0,0,1-.064.032h-.447a.191.191,0,0,1-.152-.088L69.472,77.6l-1.38,1.643v1.882c0,.064-.032.1-.1.1h-.375c-.064,0-.1-.032-.1-.1v-6.54Z" transform="translate(-53.855 -63.324)" fill="#88774f"/>
        <path id="Path_130029" data-name="Path 130029" d="M75.1,74.586c0-.064.032-.1.1-.1h.375a.09.09,0,0,1,.1.1V78.47l3.206-3.892a.248.248,0,0,1,.167-.088h.463c.032,0,.056.008.064.032a.068.068,0,0,1-.024.072l-2.13,2.544,2.3,3.972a.1.1,0,0,1,.016.08.071.071,0,0,1-.064.032h-.447a.191.191,0,0,1-.152-.088L77.042,77.6l-1.38,1.643v1.882c0,.064-.032.1-.1.1h-.375c-.064,0-.1-.032-.1-.1v-6.54Z" transform="translate(-55.388 -63.324)" fill="#88774f"/>
        <path id="Path_130030" data-name="Path 130030" d="M84.65,74.586a.113.113,0,0,1,.12-.1h.359a.125.125,0,0,1,.12.1l2.337,6.54c.016.064,0,.1-.072.1H87.13c-.072,0-.12-.032-.128-.1l-.6-1.651H83.469l-.6,1.651a.134.134,0,0,1-.128.1h-.383q-.1,0-.072-.1Zm1.563,4.331L84.953,75.4h-.032l-1.268,3.517Z" transform="translate(-56.846 -63.324)" fill="#88774f"/>
        <path id="Path_130031" data-name="Path 130031" d="M90.648,74.586c0-.064.032-.1.1-.1h.375a.091.091,0,0,1,.1.1v2.9c0,.04.016.056.056.056H94.6c.04,0,.056-.016.056-.056v-2.9c0-.064.032-.1.1-.1h.375a.09.09,0,0,1,.1.1v6.54c0,.064-.032.1-.1.1h-.383c-.064,0-.1-.032-.1-.1V78.135c0-.04-.016-.056-.056-.056H91.278c-.04,0-.056.016-.056.056v2.991c0,.064-.032.1-.1.1h-.375c-.064,0-.1-.032-.1-.1v-6.54Z" transform="translate(-58.537 -63.324)" fill="#88774f"/>
        <path id="Path_130032" data-name="Path 130032" d="M102.015,79.792c-.024-.088-.048-.183-.072-.279a3.347,3.347,0,0,1-.056-.383c-.016-.152-.024-.335-.032-.542s-.016-.463-.016-.758.008-.55.016-.758.024-.391.032-.542a3.347,3.347,0,0,1,.056-.383c.024-.1.048-.2.072-.279a2.2,2.2,0,0,1,.79-1.133,2.308,2.308,0,0,1,1.34-.375,2.353,2.353,0,0,1,1.22.311,2.038,2.038,0,0,1,.814.933c.024.056.016.1-.032.128l-.327.16c-.056.032-.1.016-.128-.04a1.978,1.978,0,0,0-.6-.7,1.607,1.607,0,0,0-.949-.263,1.685,1.685,0,0,0-1,.279,1.78,1.78,0,0,0-.582.837c-.016.064-.04.144-.056.239a2.962,2.962,0,0,0-.048.343c-.016.136-.024.3-.032.5s-.008.439-.008.726,0,.526.008.726.016.367.032.5.032.255.048.343.04.175.056.239a1.78,1.78,0,0,0,.582.837,1.631,1.631,0,0,0,1,.279,1.607,1.607,0,0,0,.949-.263,1.912,1.912,0,0,0,.6-.7c.032-.056.072-.072.128-.04l.327.16c.048.024.056.072.032.128a2.038,2.038,0,0,1-.814.933,2.354,2.354,0,0,1-1.22.311,2.308,2.308,0,0,1-1.34-.375A1.993,1.993,0,0,1,102.015,79.792Z" transform="translate(-60.804 -63.298)" fill="#88774f"/>
        <path id="Path_130033" data-name="Path 130033" d="M109.14,74.586c0-.064.032-.1.1-.1h.375a.09.09,0,0,1,.1.1v6.54c0,.064-.032.1-.1.1h-.375c-.064,0-.1-.032-.1-.1Z" transform="translate(-62.282 -63.324)" fill="#88774f"/>
        <path id="Path_130034" data-name="Path 130034" d="M113.723,81.224c-.064,0-.1-.032-.1-.1V75.082c0-.04-.016-.056-.056-.056h-1.938a.085.085,0,0,1-.1-.1V74.6a.085.085,0,0,1,.1-.1H116.2a.085.085,0,0,1,.1.1v.335a.085.085,0,0,1-.1.1h-1.938c-.04,0-.056.016-.056.056v6.046c0,.064-.032.1-.1.1Z" transform="translate(-62.766 -63.326)" fill="#88774f"/>
        <path id="Path_130035" data-name="Path 130035" d="M120.869,81.224c-.064,0-.1-.032-.1-.1V78.464l-2.018-3.86a.061.061,0,0,1,.008-.072.078.078,0,0,1,.072-.032h.383a.173.173,0,0,1,.152.1l1.7,3.222h.032L122.76,74.6a.156.156,0,0,1,.152-.1h.375a.084.084,0,0,1,.08.032.06.06,0,0,1,0,.072l-2.018,3.86v2.664c0,.064-.032.1-.1.1Z" transform="translate(-64.225 -63.326)" fill="#88774f"/>
        <path id="Path_130036" data-name="Path 130036" d="M131.06,74.586a.113.113,0,0,1,.12-.1h.359a.125.125,0,0,1,.12.1l2.337,6.54c.016.064,0,.1-.072.1h-.383c-.072,0-.12-.032-.128-.1l-.6-1.651h-2.935l-.6,1.651a.134.134,0,0,1-.128.1h-.383q-.1,0-.072-.1Zm1.563,4.331-1.26-3.517h-.032l-1.268,3.517Z" transform="translate(-66.24 -63.324)" fill="#88774f"/>
        <path id="Path_130037" data-name="Path 130037" d="M137.06,74.586c0-.064.032-.1.1-.1h.375a.171.171,0,0,1,.167.1l3.35,5.535h.032V74.586c0-.064.032-.1.1-.1h.375c.064,0,.1.032.1.1v6.54a.085.085,0,0,1-.1.1h-.383a.187.187,0,0,1-.167-.1L137.7,75.575h-.04v5.551c0,.064-.032.1-.1.1h-.375c-.064,0-.1-.032-.1-.1v-6.54Z" transform="translate(-67.934 -63.324)" fill="#88774f"/>
        <path id="Path_130038" data-name="Path 130038" d="M145.12,74.586a.085.085,0,0,1,.1-.1h2.114a2.009,2.009,0,0,1,2.153,1.364c.032.1.064.2.088.3a3.353,3.353,0,0,1,.056.383,4.97,4.97,0,0,1,.032.542c.008.215.008.471.008.774s0,.566-.008.782-.016.383-.032.534-.04.279-.056.383a2.275,2.275,0,0,1-.088.311,2,2,0,0,1-2.153,1.364h-2.114a.085.085,0,0,1-.1-.1Zm.574,6.046c0,.04.016.056.056.056h1.5a2.173,2.173,0,0,0,1.077-.239,1.358,1.358,0,0,0,.606-.782c.024-.08.048-.167.072-.255a2.962,2.962,0,0,0,.048-.343c.016-.136.024-.3.032-.495s.008-.431.008-.718,0-.526-.008-.718-.016-.359-.032-.494S149.02,76.4,149,76.3a1.194,1.194,0,0,0-.072-.255,1.309,1.309,0,0,0-.606-.774,2.153,2.153,0,0,0-1.077-.239h-1.5c-.04,0-.056.016-.056.056Z" transform="translate(-69.565 -63.324)" fill="#88774f"/>
        <path id="Path_130039" data-name="Path 130039" d="M156.3,74.586c0-.064.032-.1.1-.1h.375c.064,0,.1.032.1.1v2.9c0,.04.016.056.056.056h3.318c.04,0,.056-.016.056-.056v-2.9c0-.064.032-.1.1-.1h.375a.091.091,0,0,1,.1.1v6.54c0,.064-.032.1-.1.1h-.375c-.064,0-.1-.032-.1-.1V78.135c0-.04-.016-.056-.056-.056h-3.318c-.04,0-.056.016-.056.056v2.991c0,.064-.032.1-.1.1H156.4c-.064,0-.1-.032-.1-.1Z" transform="translate(-71.828 -63.324)" fill="#88774f"/>
        <path id="Path_130040" data-name="Path 130040" d="M166.457,81.3a2.348,2.348,0,0,1-1.38-.383,2.147,2.147,0,0,1-.8-1.133,2.181,2.181,0,0,1-.088-.3c-.024-.112-.04-.239-.056-.383s-.032-.327-.04-.526-.016-.455-.016-.742.008-.534.016-.742.024-.383.04-.526.04-.279.056-.383a1.594,1.594,0,0,1,.088-.3,2.212,2.212,0,0,1,.8-1.133,2.308,2.308,0,0,1,1.38-.383,2.339,2.339,0,0,1,1.372.383,2.147,2.147,0,0,1,.8,1.133c.024.1.056.191.08.3a3.171,3.171,0,0,1,.064.383c.016.152.032.327.04.526s.016.455.016.742-.008.542-.016.742-.024.383-.04.526a3.171,3.171,0,0,1-.064.383c-.024.112-.056.207-.08.3a2.211,2.211,0,0,1-.8,1.133A2.339,2.339,0,0,1,166.457,81.3Zm1.795-3.469c0-.271-.008-.5-.016-.7s-.024-.367-.032-.5a2.565,2.565,0,0,0-.056-.343c-.024-.1-.048-.175-.064-.239a1.737,1.737,0,0,0-3.262,0c-.016.064-.04.144-.064.239a2.8,2.8,0,0,0-.056.343c-.016.136-.024.3-.032.5s-.016.431-.016.7.008.5.016.7.024.367.032.5a2.56,2.56,0,0,0,.056.343c.024.1.048.175.064.239a1.737,1.737,0,0,0,3.262,0c.016-.064.04-.144.064-.239a2.8,2.8,0,0,0,.056-.343c.016-.136.024-.3.032-.5S168.251,78.1,168.251,77.834Z" transform="translate(-73.403 -63.302)" fill="#88774f"/>
        <path id="Path_130041" data-name="Path 130041" d="M172.07,74.586c0-.064.032-.1.1-.1h.375c.064,0,.1.032.1.1v6.046c0,.04.016.056.056.056h3.326a.085.085,0,0,1,.1.1v.335a.085.085,0,0,1-.1.1h-3.86c-.064,0-.1-.032-.1-.1V74.586Z" transform="translate(-75.02 -63.324)" fill="#88774f"/>
        <path id="Path_130042" data-name="Path 130042" d="M179.249,81.224c-.064,0-.1-.032-.1-.1V78.464l-2.018-3.86a.061.061,0,0,1,.008-.072.078.078,0,0,1,.072-.032h.383a.173.173,0,0,1,.152.1l1.7,3.222h.032L181.14,74.6a.156.156,0,0,1,.152-.1h.375a.084.084,0,0,1,.08.032.06.06,0,0,1,0,.072l-2.018,3.86v2.664c0,.064-.032.1-.1.1Z" transform="translate(-76.042 -63.326)" fill="#88774f"/>
        <path id="Path_130043" data-name="Path 130043" d="M189.722,81.3a3.634,3.634,0,0,1-.654-.064,3.983,3.983,0,0,1-.622-.175,3.313,3.313,0,0,1-.534-.255,3.017,3.017,0,0,1-.423-.3c-.056-.048-.056-.1-.008-.136l.239-.3c.048-.056.1-.056.136-.008a4.067,4.067,0,0,0,.837.479,2.754,2.754,0,0,0,1.093.215,1.993,1.993,0,0,0,1.276-.375,1.208,1.208,0,0,0,.463-1,1.253,1.253,0,0,0-.08-.463,1.031,1.031,0,0,0-.263-.383,1.526,1.526,0,0,0-.495-.287,3.481,3.481,0,0,0-.774-.175l-.3-.04a2.574,2.574,0,0,1-1.468-.582,1.574,1.574,0,0,1-.479-1.2,1.748,1.748,0,0,1,.574-1.388,2.272,2.272,0,0,1,1.547-.5,3.607,3.607,0,0,1,1.069.152,2.746,2.746,0,0,1,.853.415c.056.032.064.08.016.136l-.2.3a.087.087,0,0,1-.136.016,3.772,3.772,0,0,0-.8-.375,2.862,2.862,0,0,0-.829-.128,1.641,1.641,0,0,0-1.125.359,1.233,1.233,0,0,0-.4.957,1.1,1.1,0,0,0,.359.845,2.251,2.251,0,0,0,1.22.439l.3.04a2.643,2.643,0,0,1,1.5.6,1.635,1.635,0,0,1,.471,1.212,1.925,1.925,0,0,1-.152.782,1.744,1.744,0,0,1-.455.622,2.076,2.076,0,0,1-.742.407A3.286,3.286,0,0,1,189.722,81.3Z" transform="translate(-78.133 -63.302)" fill="#88774f"/>
        <path id="Path_130044" data-name="Path 130044" d="M195.21,74.586c0-.064.032-.1.1-.1h.375a.091.091,0,0,1,.1.1v6.54c0,.064-.032.1-.1.1h-.375c-.064,0-.1-.032-.1-.1Z" transform="translate(-79.704 -63.324)" fill="#88774f"/>
        <path id="Path_130045" data-name="Path 130045" d="M199.793,81.224c-.064,0-.1-.032-.1-.1V75.082c0-.04-.016-.056-.056-.056H197.7a.085.085,0,0,1-.1-.1V74.6a.085.085,0,0,1,.1-.1h4.578a.085.085,0,0,1,.1.1v.335a.085.085,0,0,1-.1.1h-1.938c-.04,0-.056.016-.056.056v6.046c0,.064-.032.1-.1.1Z" transform="translate(-80.188 -63.326)" fill="#88774f"/>
        <path id="Path_130046" data-name="Path 130046" d="M205.23,74.586c0-.064.032-.1.1-.1h3.86a.085.085,0,0,1,.1.1v.335a.085.085,0,0,1-.1.1h-3.326c-.04,0-.056.016-.056.056v2.4c0,.04.016.056.056.056h2.863a.085.085,0,0,1,.1.1v.335a.085.085,0,0,1-.1.1h-2.863c-.04,0-.056.016-.056.056v2.5c0,.04.016.056.056.056h3.326a.085.085,0,0,1,.1.1v.335a.085.085,0,0,1-.1.1h-3.86c-.064,0-.1-.032-.1-.1Z" transform="translate(-81.732 -63.324)" fill="#88774f"/>
        <path id="Path_130047" data-name="Path 130047" d="M214.222,81.3a3.634,3.634,0,0,1-.654-.064,3.984,3.984,0,0,1-.622-.175,3.313,3.313,0,0,1-.534-.255,3.017,3.017,0,0,1-.423-.3c-.056-.048-.056-.1-.008-.136l.239-.3c.048-.056.1-.056.136-.008a4.068,4.068,0,0,0,.837.479,2.754,2.754,0,0,0,1.093.215,1.993,1.993,0,0,0,1.276-.375,1.208,1.208,0,0,0,.463-1,1.253,1.253,0,0,0-.08-.463,1.031,1.031,0,0,0-.263-.383,1.525,1.525,0,0,0-.494-.287,3.481,3.481,0,0,0-.774-.175l-.3-.04a2.573,2.573,0,0,1-1.468-.582,1.574,1.574,0,0,1-.479-1.2,1.748,1.748,0,0,1,.574-1.388,2.272,2.272,0,0,1,1.547-.5,3.607,3.607,0,0,1,1.069.152,2.746,2.746,0,0,1,.853.415c.056.032.064.08.016.136l-.2.3a.087.087,0,0,1-.136.016,3.772,3.772,0,0,0-.8-.375,2.862,2.862,0,0,0-.829-.128,1.642,1.642,0,0,0-1.125.359,1.234,1.234,0,0,0-.4.957,1.1,1.1,0,0,0,.359.845,2.252,2.252,0,0,0,1.22.439l.3.04a2.643,2.643,0,0,1,1.5.6,1.634,1.634,0,0,1,.471,1.212,1.925,1.925,0,0,1-.152.782,1.744,1.744,0,0,1-.455.622,2.076,2.076,0,0,1-.742.407A3.25,3.25,0,0,1,214.222,81.3Z" transform="translate(-83.092 -63.302)" fill="#88774f"/>
      </g>
      <g id="Group_126008" data-name="Group 126008">
        <g id="Group_126007" data-name="Group 126007">
          <path id="Path_130048" data-name="Path 130048" d="M22.271,18.37a.911.911,0,0,0-.9.9.9.9,0,0,0,.9.9.9.9,0,1,0,0-1.8Zm-2.217,0a.9.9,0,0,0-.893.9.883.883,0,0,0,.893.9.9.9,0,1,0,0-1.8Z" transform="translate(-17.661 -17.493)" fill="#00080c"/>
          <path id="Path_130049" data-name="Path 130049" d="M38.97,20.708a3.3,3.3,0,0,0-3.6,3.358,2.285,2.285,0,0,0,.766,1.978,2.913,2.913,0,0,0-.766-.1H33.69a5.022,5.022,0,0,0-3.063-4.825L34,19.081V17.27l-5.479,3.438v1.34c2.2.51,3.31,1.755,3.382,3.9H23.856V21.186a9.026,9.026,0,0,0-2.9-.479A3.325,3.325,0,0,0,17.3,24.177c0,1.97,1.013,3.214,3.693,3.214H42.1v-3.5C42.1,21.952,41.132,20.708,38.97,20.708ZM22.085,25.956H21.2c-1.452,0-2.074-.678-2.074-1.938a1.661,1.661,0,0,1,1.643-1.866,3.365,3.365,0,0,1,1.316.247v3.557Zm18.225,0H39.257c-1.436,0-2.074-.638-2.074-1.938a1.661,1.661,0,0,1,1.643-1.866c.925,0,1.484.582,1.484,1.97v1.834Z" transform="translate(-17.284 -17.27)" fill="#00080c"/>
          <path id="Path_130050" data-name="Path 130050" d="M59.139,18.37a.911.911,0,0,0-.9.9.9.9,0,0,0,.9.9.9.9,0,1,0,0-1.8Zm-2.217,0a.911.911,0,0,0-.9.9.9.9,0,1,0,.9-.9Z" transform="translate(-25.122 -17.493)" fill="#00080c"/>
          <path id="Path_130051" data-name="Path 130051" d="M70.959,18.36a.953.953,0,1,0,.957.949A.967.967,0,0,0,70.959,18.36Z" transform="translate(-27.953 -17.491)" fill="#00080c"/>
          <path id="Path_130052" data-name="Path 130052" d="M77.609,31.23a.9.9,0,1,0,0,1.795.9.9,0,1,0,0-1.795Zm-2.217,0a.9.9,0,1,0,0,1.795.9.9,0,1,0,0-1.795Z" transform="translate(-28.86 -20.096)" fill="#00080c"/>
          <path id="Path_130053" data-name="Path 130053" d="M71.517,21.765V26.83H68.67V21.765H66.844V26.83H60.726V22.069a9.026,9.026,0,0,0-2.9-.479,3.325,3.325,0,0,0-3.653,3.469c0,1.97,1.013,3.214,3.693,3.214H73.352V21.765H71.517ZM58.956,26.83H58.07c-1.452,0-2.074-.678-2.074-1.938a1.661,1.661,0,0,1,1.643-1.866,3.365,3.365,0,0,1,1.316.247V26.83Z" transform="translate(-24.747 -18.144)" fill="#00080c"/>
          <path id="Path_130054" data-name="Path 130054" d="M97.564,17.73v8.319H95.036V23.991c0-1.938-.965-3.182-3.127-3.182a3.3,3.3,0,0,0-3.6,3.358c0,1.428-.534,1.882-1.372,1.882h-.662c-.167-3.087-1.755-4.65-4.61-5.4l-.439,1.523a3.8,3.8,0,0,1,3.262,3.868H80.4v1.444h6.74c1.164,0,1.715-.431,1.97-1.069.487.638,1.109,1.069,3.095,1.069H99.4V17.73Zm-4.307,8.319H92.2c-1.436,0-2.074-.638-2.074-1.938a1.661,1.661,0,0,1,1.643-1.866c.925,0,1.484.582,1.484,1.97Z" transform="translate(-30.057 -17.363)" fill="#00080c"/>
          <path id="Path_130055" data-name="Path 130055" d="M115.241,18.37a.9.9,0,0,0-.893.9.893.893,0,0,0,.893.9.9.9,0,1,0,0-1.8Zm-2.217,0a.9.9,0,0,0-.893.9.883.883,0,0,0,.893.9.9.9,0,1,0,0-1.8Z" transform="translate(-36.479 -17.493)" fill="#00080c"/>
          <path id="Path_130056" data-name="Path 130056" d="M125.261,31.23a.9.9,0,1,0,0,1.795.9.9,0,0,0,0-1.795Zm2.217,0a.9.9,0,1,0,0,1.795.9.9,0,0,0,0-1.795Z" transform="translate(-38.955 -20.096)" fill="#00080c"/>
          <path id="Path_130057" data-name="Path 130057" d="M147.356,17.639v8.319h-2.536V23.9c0-1.938-.965-3.182-3.127-3.182a3.3,3.3,0,0,0-3.6,3.358c0,1.428-.542,1.882-1.372,1.882h-1.316V17.639h-1.826v8.319h-2.257a5.022,5.022,0,0,0-3.063-4.825l3.374-2.042V17.28l-5.479,3.438v1.34c2.2.51,3.31,1.755,3.382,3.9h-5.113V20.893H122.6v5.065h-5.782V21.2a9.026,9.026,0,0,0-2.9-.479,3.325,3.325,0,0,0-3.653,3.469c0,1.97,1.013,3.214,3.7,3.214h22.954c1.156,0,1.715-.431,1.97-1.069.479.638,1.1,1.069,3.095,1.069h7.194V17.639Zm-32.3,8.319h-.885c-1.452,0-2.074-.678-2.074-1.938a1.661,1.661,0,0,1,1.643-1.866,3.365,3.365,0,0,1,1.316.247Zm27.979,0H141.98c-1.444,0-2.074-.638-2.074-1.938a1.661,1.661,0,0,1,1.643-1.866c.925,0,1.483.582,1.483,1.97v1.834Z" transform="translate(-36.101 -17.272)" fill="#00080c"/>
          <path id="Path_130058" data-name="Path 130058" d="M161.83,17.73h1.826v9.754H161.83Z" transform="translate(-46.539 -17.363)" fill="#00080c"/>
          <path id="Path_130059" data-name="Path 130059" d="M175.169,18.37a.911.911,0,0,0-.9.9.9.9,0,0,0,.9.9.911.911,0,0,0,.9-.9A.921.921,0,0,0,175.169,18.37Zm-2.217,0a.911.911,0,0,0-.9.9.9.9,0,1,0,.9-.9Z" transform="translate(-48.608 -17.493)" fill="#00080c"/>
          <path id="Path_130060" data-name="Path 130060" d="M187.038,19.246c-.774,0-1-.191-1-.51,0-.263.207-.471.678-.471a4.559,4.559,0,0,1,.75.08l.175-.965a4.844,4.844,0,0,0-.814-.08c-1.452,0-2.034.742-2.034,1.428a.691.691,0,0,0,.351.606,3.969,3.969,0,0,0-.837-.08v1h3.573v-1h-.845Z" transform="translate(-51.09 -17.276)" fill="#00080c"/>
          <path id="Path_130061" data-name="Path 130061" d="M193.259,31.23a.9.9,0,1,0,0,1.795.9.9,0,1,0,0-1.795Zm-2.217,0a.9.9,0,1,0,0,1.795.9.9,0,1,0,0-1.795Z" transform="translate(-52.27 -20.096)" fill="#00080c"/>
          <path id="Path_130062" data-name="Path 130062" d="M202.3,17.73v8.319h-2.217v-.04c0-4.044-1.97-5.687-5.424-5.687a11.7,11.7,0,0,0-3.366.542l.175,1.428a9.959,9.959,0,0,1,2.959-.542c2.736,0,3.908,1.268,3.908,4.139v.167h-1.388v-.319c0-1.563-.694-2.919-2.544-2.919a2.353,2.353,0,0,0-2.656,2.329,1.51,1.51,0,0,0,.335.981,3.289,3.289,0,0,0-.622-.064h-2.425V21h-1.826v5.065h-2.855V21h-1.826v5.065h-5.782V21.3a9.046,9.046,0,0,0-2.911-.479,3.329,3.329,0,0,0-3.653,3.469c0,1.97,1.013,3.214,3.693,3.214h30.236V17.73Zm-27.317,8.319H174.1c-1.46,0-2.074-.678-2.074-1.938a1.661,1.661,0,0,1,1.643-1.866,3.365,3.365,0,0,1,1.316.247Zm20.474.056h-.909c-.71,0-1.316-.311-1.316-1.093a.924.924,0,0,1,1.037-.941c.814,0,1.2.566,1.2,1.635v.4Z" transform="translate(-48.23 -17.363)" fill="#00080c"/>
          <path id="Path_130063" data-name="Path 130063" d="M215.51,17.73h1.826v9.754H215.51Z" transform="translate(-57.405 -17.363)" fill="#00080c"/>
          <path id="Path_130064" data-name="Path 130064" d="M22.251,37.42a.9.9,0,1,0,.9.893A.909.909,0,0,0,22.251,37.42Zm-2.217,0a.9.9,0,0,0-.893.893.9.9,0,1,0,.893-.893Z" transform="translate(-17.656 -21.349)" fill="#00080c"/>
          <path id="Path_130065" data-name="Path 130065" d="M35.943,40.16l-1.787.247a16.956,16.956,0,0,1,.407,3.709c0,.431-.024,1.1-.08,1.659h-.375c-1.276,0-1.643-.223-1.643-1.316V40.989H30.711v3.127c0,1.34-.407,1.771-1.125,1.771-.814,0-.957-.542-.957-1.787V41.54H26.8v2.52c0,1.356-.351,1.715-1.244,1.715H23.836V41.013a8.9,8.9,0,0,0-2.9-.487A3.327,3.327,0,0,0,17.28,44c0,1.97,1.013,3.206,3.693,3.206h4.57a1.752,1.752,0,0,0,1.842-.965,1.845,1.845,0,0,0,1.858,1.077,2.176,2.176,0,0,0,2.09-1.069c.407.766,1.141.957,2.592.957h2.281a26.988,26.988,0,0,0,.191-3.222A17.434,17.434,0,0,0,35.943,40.16ZM22.065,45.783H21.18c-1.452,0-2.074-.678-2.074-1.938a1.657,1.657,0,0,1,1.643-1.866,3.365,3.365,0,0,1,1.316.247Z" transform="translate(-17.28 -21.903)" fill="#00080c"/>
          <path id="Path_130066" data-name="Path 130066" d="M55.311,37.42a.909.909,0,0,0-.9.893.9.9,0,1,0,.9-.893Zm2.209,0a.909.909,0,0,0-.9.893.9.9,0,0,0,.9.9.9.9,0,1,0,0-1.795Z" transform="translate(-24.796 -21.349)" fill="#00080c"/>
          <path id="Path_130067" data-name="Path 130067" d="M68.864,36.78V45.1H66.336V43.033c0-1.93-.965-3.182-3.127-3.182a3.3,3.3,0,0,0-3.6,3.366c0,1.428-.534,1.882-1.372,1.882h-.479c-.487,0-1.069.064-1.069.064a2.788,2.788,0,0,0,.8-2.09,2.9,2.9,0,0,0-3.206-3.222A3.338,3.338,0,0,0,50.759,43.3a2.568,2.568,0,0,0,.654,1.866,6.737,6.737,0,0,0-.861-.064h-1.4c-.167-3.087-1.755-4.65-4.61-5.4l-.439,1.523A3.8,3.8,0,0,1,47.37,45.1h-4.1v1.436H58.44c1.164,0,1.715-.423,1.97-1.069.487.638,1.109,1.069,3.095,1.069H70.7V36.78ZM54.117,45.1c-1.013,0-1.523-.654-1.523-1.954s.766-1.85,1.555-1.85c1.037,0,1.515.662,1.515,1.874C55.664,44.453,54.994,45.1,54.117,45.1Zm10.432,0H63.5c-1.436,0-2.074-.638-2.074-1.938a1.657,1.657,0,0,1,1.643-1.866c.925,0,1.484.582,1.484,1.962Z" transform="translate(-22.541 -21.219)" fill="#00080c"/>
          <path id="Path_130068" data-name="Path 130068" d="M80.43,36.78h1.826v9.754H80.43Z" transform="translate(-30.063 -21.219)" fill="#00080c"/>
          <path id="Path_130069" data-name="Path 130069" d="M100.723,45.878v1.436H92.348v.056c0,1.771-.606,3.462-3.422,3.462A5,5,0,0,1,87.77,50.7l.136-1.46a3.883,3.883,0,0,0,1.125.167c.941,0,1.491-.447,1.491-1.938V40.813h1.826v5.065h3.374a2.408,2.408,0,0,1-1.069-2.066c0-1.715,1.172-3.182,3.613-3.182a5.927,5.927,0,0,1,1.715.263l-.319,1.452a3.788,3.788,0,0,0-1.436-.3A1.656,1.656,0,0,0,96.48,43.8c0,1.172.957,2.066,3.15,2.066h1.093Z" transform="translate(-31.548 -21.998)" fill="#00080c"/>
          <path id="Path_130070" data-name="Path 130070" d="M116.181,37.041a.9.9,0,1,0,.9.9A.911.911,0,0,0,116.181,37.041Zm1.149-1.811a.9.9,0,1,0,.9.9A.9.9,0,0,0,117.33,35.23Zm1.141,1.811a.9.9,0,0,0,0,1.8.9.9,0,0,0,0-1.8Z" transform="translate(-37.117 -20.905)" fill="#00080c"/>
          <path id="Path_130071" data-name="Path 130071" d="M132.161,36.78V45.1h-2.536V43.033c0-1.93-.965-3.182-3.127-3.182a3.3,3.3,0,0,0-3.6,3.366c0,1.428-.534,1.882-1.372,1.882h-1.252c.04-.614.056-1.228.056-1.787a17.114,17.114,0,0,0-.447-3.836l-1.787.247a16.956,16.956,0,0,1,.407,3.709c0,.431-.024,1.1-.08,1.659h-.375c-1.268,0-1.643-.223-1.643-1.316V40.305h-1.755v3.127c0,1.34-.407,1.771-1.125,1.771-.814,0-.957-.542-.957-1.787v-2.56h-1.826v2.52c0,1.356-.343,1.715-1.244,1.715h-1.715V36.78H105.96v9.754h3.525a1.752,1.752,0,0,0,1.842-.965,1.845,1.845,0,0,0,1.858,1.077,2.176,2.176,0,0,0,2.09-1.069c.407.766,1.141.957,2.592.957h3.876c1.156,0,1.715-.423,1.962-1.069.487.638,1.109,1.069,3.095,1.069H134V36.78ZM127.846,45.1h-1.053c-1.436,0-2.074-.638-2.074-1.938a1.657,1.657,0,0,1,1.643-1.866c.925,0,1.484.582,1.484,1.962V45.1Z" transform="translate(-35.23 -21.219)" fill="#00080c"/>
          <path id="Path_130072" data-name="Path 130072" d="M143.87,36.78H145.7v9.754H143.87Z" transform="translate(-42.904 -21.219)" fill="#00080c"/>
          <path id="Path_130073" data-name="Path 130073" d="M148.58,50.616l.112-1.491a11.786,11.786,0,0,0,2.161.231c1.436,0,2.393-.542,2.393-1.842v-.207h-1.093c-2.688,0-3.693-1.244-3.693-3.206a3.329,3.329,0,0,1,3.653-3.469,8.9,8.9,0,0,1,2.9.487v6.229c0,1.906-1.244,3.462-4.331,3.462A15.033,15.033,0,0,1,148.58,50.616Zm4.666-8.3a3.365,3.365,0,0,0-1.316-.247,1.661,1.661,0,0,0-1.643,1.866c0,1.26.622,1.938,2.074,1.938h.885Z" transform="translate(-43.833 -21.998)" fill="#00080c"/>
          <path id="Path_130074" data-name="Path 130074" d="M167.7,37.42a.9.9,0,1,0,.9.893A.909.909,0,0,0,167.7,37.42Zm-2.217,0a.9.9,0,0,0-.893.893.9.9,0,1,0,.893-.893Z" transform="translate(-47.098 -21.349)" fill="#00080c"/>
          <path id="Path_130075" data-name="Path 130075" d="M175.174,40.63a3.3,3.3,0,0,0-3.6,3.366,2.268,2.268,0,0,0,.766,1.97,3.089,3.089,0,0,0-.766-.088H169.3V41.117a8.9,8.9,0,0,0-2.9-.487,3.327,3.327,0,0,0-3.653,3.477c0,1.97,1.013,3.206,3.693,3.206h11.876v-3.5C178.3,41.874,177.336,40.63,175.174,40.63Zm-7.657,5.248h-.885c-1.452,0-2.074-.678-2.074-1.938a1.657,1.657,0,0,1,1.643-1.866,3.365,3.365,0,0,1,1.316.247Zm9,0h-1.053c-1.436,0-2.074-.638-2.074-1.938a1.657,1.657,0,0,1,1.643-1.866c.925,0,1.483.582,1.483,1.962v1.842Z" transform="translate(-46.724 -21.998)" fill="#00080c"/>
          <path id="Path_130076" data-name="Path 130076" d="M204.732,36.689v8.319H202.2V42.942c0-1.93-.965-3.182-3.127-3.182a3.3,3.3,0,0,0-3.6,3.366c0,1.428-.534,1.882-1.372,1.882h-.718a5.034,5.034,0,0,0-3.063-4.833l3.382-2.034V36.33l-5.487,3.43V41.1c2.2.51,3.31,1.755,3.382,3.908h-4.778V39.943H185v6.652c0,1.491-.558,1.938-1.5,1.938a3.927,3.927,0,0,1-1.125-.167l-.136,1.46a5.058,5.058,0,0,0,1.156.136c2.807,0,3.422-1.691,3.422-3.462v-.056h7.473c1.164,0,1.715-.423,1.97-1.069.487.638,1.109,1.069,3.095,1.069h7.194V36.689Zm-4.315,8.319h-1.053c-1.436,0-2.074-.638-2.074-1.938a1.663,1.663,0,0,1,1.651-1.866c.925,0,1.483.582,1.483,1.962v1.842Z" transform="translate(-50.671 -21.128)" fill="#00080c"/>
          <path id="Path_130077" data-name="Path 130077" d="M215.51,36.78h1.826v9.754H215.51Z" transform="translate(-57.405 -21.219)" fill="#00080c"/>
        </g>
      </g>
    </g>
    <g id="Group_126013" data-name="Group 126013" transform="translate(173.706 0.008)">
      <g id="Group_126011" data-name="Group 126011">
        <g id="Group_126010" data-name="Group 126010">
          <rect id="Rectangle_13401" data-name="Rectangle 13401" width="2.76" height="2.76" transform="translate(38.595 44.106)" fill="#00080c"/>
          <rect id="Rectangle_13402" data-name="Rectangle 13402" width="2.76" height="2.76" transform="translate(38.595 49.618)" fill="#00080c"/>
          <path id="Path_130078" data-name="Path 130078" d="M251.612,65.66V76.683h-2.76V71.171H235.07v8.271h35.835V71.171H257.123v5.511h-2.76V68.42h22.053V65.66ZM246.1,76.691H237.83V73.939H246.1Zm13.782-2.76h8.271v2.752h-8.271Z" transform="translate(-235.07 -27.073)" fill="#00080c"/>
          <rect id="Rectangle_13403" data-name="Rectangle 13403" width="2.76" height="2.76" transform="translate(44.106 11.023)" fill="#00080c"/>
          <rect id="Rectangle_13404" data-name="Rectangle 13404" width="2.76" height="2.76" transform="translate(49.626 11.023)" fill="#00080c"/>
          <path id="Path_130079" data-name="Path 130079" d="M288.981,36.611V50.4h5.511v2.752h-8.271V31.1H283.47V55.913h11.023v2.752h-5.511V72.447h8.271V36.611ZM294.493,69.7h-2.76V61.424h2.76Zm0-22.053h-2.76V39.371h2.76Z" transform="translate(-244.867 -20.077)" fill="#00080c"/>
          <rect id="Rectangle_13405" data-name="Rectangle 13405" width="2.76" height="2.76" transform="translate(11.031 5.511)" fill="#00080c"/>
          <rect id="Rectangle_13406" data-name="Rectangle 13406" width="2.76" height="2.76" transform="translate(11.031)" fill="#00080c"/>
          <path id="Path_130080" data-name="Path 130080" d="M254.411,17.28v8.271h13.782V20.04h2.76V28.3H248.9v2.76h24.8V20.04h2.76v5.511h13.782V17.28Zm11.031,5.511h-8.271V20.04h8.271Zm22.053,0h-8.271V20.04H287.5Z" transform="translate(-237.869 -17.28)" fill="#00080c"/>
          <rect id="Rectangle_13407" data-name="Rectangle 13407" width="2.76" height="2.76" transform="translate(5.519 38.587)" fill="#00080c"/>
          <rect id="Rectangle_13408" data-name="Rectangle 13408" width="2.76" height="2.76" transform="translate(0.008 38.587)" fill="#00080c"/>
          <path id="Path_130081" data-name="Path 130081" d="M237.83,33.814V31.062h5.511V17.28H235.07V53.115h8.271V39.333H237.83V36.582H246.1V58.635h2.752V33.814Zm0-13.774h2.76V28.3h-2.76Zm2.76,22.045v8.271h-2.76V42.085Z" transform="translate(-235.07 -17.28)" fill="#00080c"/>
        </g>
      </g>
      <g id="Group_126012" data-name="Group 126012" transform="translate(16.558 17.786)">
        <path id="Path_130082" data-name="Path 130082" d="M270.227,44.724a5.728,5.728,0,0,1,.495,1.811,10,10,0,0,0-2.345-2.193c.072.1.144.2.207.3a4.756,4.756,0,0,1,.175,3.916,11.264,11.264,0,0,0-1.276-3.27c-.136-.223-.271-.439-.423-.654l.207,5.208a.592.592,0,0,1-.574.518.586.586,0,0,1-.574-.518l.207-5.2a6.913,6.913,0,0,0-.423.646,11.264,11.264,0,0,0-1.276,3.27,4.785,4.785,0,0,1,.175-3.916c.064-.1.136-.207.207-.3a10.155,10.155,0,0,0-2.345,2.193,4.352,4.352,0,0,1,1.691-3.23,3.42,3.42,0,0,1,1.141-.455v-.04a6.666,6.666,0,0,0-.686.072,10.389,10.389,0,0,0-2.871.869,4.23,4.23,0,0,1,2.728-1.922,2.539,2.539,0,0,1,.495-.024,9.769,9.769,0,0,0-1.922-.734,4.177,4.177,0,0,1,2.752.183,5.1,5.1,0,0,1,.694-1.675,5.1,5.1,0,0,1,.694,1.675,4.127,4.127,0,0,1,2.752-.183,9.772,9.772,0,0,0-1.922.734,2.539,2.539,0,0,1,.495.024,3.288,3.288,0,0,1,1.491.63,4.806,4.806,0,0,1,1.244,1.292,10.389,10.389,0,0,0-2.871-.869c-.231-.032-.455-.056-.686-.072v.04a3.42,3.42,0,0,1,1.141.455A3.309,3.309,0,0,1,270.227,44.724Z" transform="translate(-257.067 -39.58)" fill="#88774f"/>
        <path id="Path_130083" data-name="Path 130083" d="M275.108,50.39a4.993,4.993,0,0,0-3.158.7l-5.6,3.422,2.249,1.372.311-.51c-.008,0-.016-.008-.024-.008a.533.533,0,1,1,.734-.175l-.59.965.3.183.67.407a.769.769,0,0,0,.718.056.757.757,0,0,1-.056.351.436.436,0,0,1-.064.12.783.783,0,0,1-1.085.263l-.965-.59-.311.51c.008,0,.016.008.024.008a.538.538,0,0,1,.175.734.532.532,0,0,1-.734.175.541.541,0,0,1-.175-.734l.59-.965-2.648-1.619-2.648,1.619.59.965a.533.533,0,1,1-.734-.175c.008,0,.016-.008.024-.016l-.311-.51-.965.59a.793.793,0,0,1-1.093-.263c-.024-.04-.04-.08-.064-.12a.9.9,0,0,1-.056-.351.785.785,0,0,0,.726-.056l.67-.407.3-.183-.59-.965a.534.534,0,1,1,.734.175c-.008,0-.016.008-.024.008l.311.51,2.249-1.372-5.6-3.422a4.993,4.993,0,0,0-3.158-.7,3.351,3.351,0,0,1,3.645-.088l6.006,3.669,6.006-3.669A3.343,3.343,0,0,1,275.108,50.39Z" transform="translate(-255.83 -41.648)" fill="#88774f"/>
      </g>
    </g>
  </g>
</svg>
