<svg xmlns="http://www.w3.org/2000/svg" width="13.125" height="13.125" viewBox="0 0 13.125 13.125">
  <path id="in-w" d="M-10.187,0V-8.763h-2.721V0Zm-1.362-9.958a1.589,1.589,0,0,0,1.576-1.591,1.577,1.577,0,0,0-1.576-1.576,1.577,1.577,0,0,0-1.576,1.576A1.589,1.589,0,0,0-11.549-9.958ZM0,0H0V-4.813C0-7.169-.506-8.982-3.26-8.982A2.859,2.859,0,0,0-5.835-7.567h-.038v-1.2h-2.61V0h2.718V-4.339c0-1.143.217-2.247,1.632-2.247,1.394,0,1.415,1.3,1.415,2.32V0Z" transform="translate(13.125 13.125)" fill="#fff"/>
</svg>
