<svg xmlns="http://www.w3.org/2000/svg" width="17.164" height="17.164" viewBox="0 0 17.164 17.164">
  <path id="in" d="M3.842,1.414V-10.045H.284V1.414ZM2.061-11.608a2.078,2.078,0,0,0,2.061-2.08A2.062,2.062,0,0,0,2.061-15.75,2.062,2.062,0,0,0,0-13.689,2.078,2.078,0,0,0,2.061-11.608Zm15.1,13.023h0V-4.881c0-3.08-.662-5.452-4.264-5.452A3.739,3.739,0,0,0,9.534-8.482h-.05v-1.563H6.071V1.414H9.626V-4.26c0-1.494.283-2.939,2.134-2.939,1.823,0,1.85,1.7,1.85,3.034V1.414Z" transform="translate(0 15.75)" fill="#887852"/>
</svg>
