<svg xmlns="http://www.w3.org/2000/svg" width="13.132" height="13.129" viewBox="0 0 13.132 13.129">
  <path id="insta-w" d="M-6.56-8.994A3.361,3.361,0,0,0-9.926-5.628,3.361,3.361,0,0,0-6.56-2.262,3.361,3.361,0,0,0-3.193-5.628,3.361,3.361,0,0,0-6.56-8.994Zm0,5.555A2.192,2.192,0,0,1-8.748-5.628,2.191,2.191,0,0,1-6.56-7.816,2.191,2.191,0,0,1-4.371-5.628,2.192,2.192,0,0,1-6.56-3.439Zm4.289-5.692a.785.785,0,0,0-.785-.785.785.785,0,0,0-.785.785.783.783,0,0,0,.785.785A.783.783,0,0,0-2.271-9.132Zm2.229.8A3.885,3.885,0,0,0-1.1-11.086a3.911,3.911,0,0,0-2.751-1.061c-1.084-.062-4.333-.062-5.417,0a3.905,3.905,0,0,0-2.751,1.058,3.9,3.9,0,0,0-1.061,2.751c-.062,1.084-.062,4.333,0,5.417A3.886,3.886,0,0,0-12.021-.17,3.916,3.916,0,0,0-9.27.891c1.084.062,4.333.062,5.417,0A3.886,3.886,0,0,0-1.1-.17,3.911,3.911,0,0,0-.041-2.921C.02-4,.02-7.251-.041-8.335Zm-1.4,6.577A2.216,2.216,0,0,1-2.689-.51a14.469,14.469,0,0,1-3.87.264A14.582,14.582,0,0,1-10.43-.51a2.216,2.216,0,0,1-1.248-1.248,14.469,14.469,0,0,1-.264-3.87,14.582,14.582,0,0,1,.264-3.87,2.216,2.216,0,0,1,1.248-1.248,14.469,14.469,0,0,1,3.87-.264,14.582,14.582,0,0,1,3.87.264A2.216,2.216,0,0,1-1.441-9.5a14.469,14.469,0,0,1,.264,3.87A14.461,14.461,0,0,1-1.441-1.758Z" transform="translate(13.127 12.193)" fill="#fff"/>
</svg>
