<svg xmlns="http://www.w3.org/2000/svg" width="16.589" height="16.589" viewBox="0 0 16.589 16.589">
  <g id="inst" transform="translate(0 0.25)">
    <g id="Group_23146" data-name="Group 23146" transform="translate(0 -0.25)">
      <g id="Group_23145" data-name="Group 23145">
        <path id="Path_605" data-name="Path 605" d="M12.123,0H4.044A4.051,4.051,0,0,0,.005,4.039v8.079a4.052,4.052,0,0,0,4.039,4.039h8.079a4.052,4.052,0,0,0,4.039-4.039V4.039A4.051,4.051,0,0,0,12.123,0Zm2.693,12.118a2.7,2.7,0,0,1-2.693,2.693H4.044a2.7,2.7,0,0,1-2.693-2.693V4.039A2.7,2.7,0,0,1,4.044,1.346h8.079a2.7,2.7,0,0,1,2.693,2.693Z" transform="translate(0.211 0.216)" fill="#887852"/>
        <path id="Path_605_-_Outline" data-name="Path 605 - Outline" d="M4.01-.25h8.079a4.26,4.26,0,0,1,4.255,4.255v8.079a4.26,4.26,0,0,1-4.255,4.255H4.01A4.26,4.26,0,0,1-.245,12.084V4.005A4.26,4.26,0,0,1,4.01-.25Zm8.079,16.158a3.828,3.828,0,0,0,3.823-3.823V4.005A3.828,3.828,0,0,0,12.089.182H4.01A3.828,3.828,0,0,0,.187,4.005v8.079A3.828,3.828,0,0,0,4.01,15.908ZM4.01,1.1h8.079A2.912,2.912,0,0,1,15,4.005v8.079a2.912,2.912,0,0,1-2.909,2.909H4.01A2.912,2.912,0,0,1,1.1,12.084V4.005A2.912,2.912,0,0,1,4.01,1.1Zm8.079,13.465a2.48,2.48,0,0,0,2.477-2.477V4.005a2.48,2.48,0,0,0-2.477-2.477H4.01A2.48,2.48,0,0,0,1.533,4.005v8.079A2.48,2.48,0,0,0,4.01,14.561Z" transform="translate(0.245 0.25)" fill="#887852"/>
      </g>
    </g>
    <g id="Group_23148" data-name="Group 23148" transform="translate(11.445 2.442)">
      <g id="Group_23147" data-name="Group 23147">
        <circle id="Ellipse_172" data-name="Ellipse 172" cx="1.01" cy="1.01" r="1.01" transform="translate(0.216 0.216)" fill="#887852"/>
        <path id="Ellipse_172_-_Outline" data-name="Ellipse 172 - Outline" d="M.976-.25A1.226,1.226,0,1,1-.25.976,1.227,1.227,0,0,1,.976-.25Zm0,2.02A.794.794,0,1,0,.182.976.795.795,0,0,0,.976,1.77Z" transform="translate(0.25 0.25)" fill="#887852"/>
      </g>
    </g>
    <g id="Group_23150" data-name="Group 23150" transform="translate(4.039 3.789)">
      <g id="Group_23149" data-name="Group 23149">
        <path id="Path_606" data-name="Path 606" d="M106.444,102.4a4.039,4.039,0,1,0,4.039,4.039A4.039,4.039,0,0,0,106.444,102.4Zm0,6.732a2.693,2.693,0,1,1,2.693-2.693A2.693,2.693,0,0,1,106.444,109.132Z" transform="translate(-102.189 -102.184)" fill="#887852"/>
        <path id="Path_606_-_Outline" data-name="Path 606 - Outline" d="M106.41,102.15a4.255,4.255,0,1,1-4.255,4.255A4.26,4.26,0,0,1,106.41,102.15Zm0,8.079a3.824,3.824,0,1,0-3.823-3.824A3.828,3.828,0,0,0,106.41,110.229Zm0-6.732a2.909,2.909,0,1,1-2.909,2.909A2.912,2.912,0,0,1,106.41,103.5Zm0,5.386a2.477,2.477,0,1,0-2.477-2.477A2.48,2.48,0,0,0,106.41,108.882Z" transform="translate(-102.155 -102.15)" fill="#887852"/>
      </g>
    </g>
  </g>
</svg>
