<svg xmlns="http://www.w3.org/2000/svg" width="18.344" height="19.956" viewBox="0 0 18.344 19.956">
  <path id="location" d="M8.425,18.456A2.324,2.324,0,0,1,7.3,18.177l-.009-.006-.012-.006A22.043,22.043,0,0,1,2.86,14.04c-.055-.063-.112-.124-.17-.186-.1-.112-.2-.222-.3-.33A8.27,8.27,0,0,1,0,7.9,7.6,7.6,0,0,1,2.5,2.323a8.7,8.7,0,0,1,11.838,0,7.6,7.6,0,0,1,2.5,5.582,8.321,8.321,0,0,1-2.391,5.62q-.138.155-.285.317c-.058.064-.115.128-.176.193l0,.005a21.665,21.665,0,0,1-4.427,4.131l-.014.006H9.542A2.357,2.357,0,0,1,8.425,18.456Zm0-13.959A3.577,3.577,0,0,0,4.752,7.965a3.58,3.58,0,0,0,3.672,3.475,3.578,3.578,0,0,0,3.667-3.475A3.576,3.576,0,0,0,8.425,4.5Z" transform="translate(0.75 0.75)" fill="none" stroke="#076b40" stroke-width="1.5"/>
</svg>
