<svg xmlns="http://www.w3.org/2000/svg" width="18.129" height="17.707" viewBox="0 0 18.129 17.707">
  <g id="location-icon" transform="translate(-1.25 -1.75)">
    <path id="Path_130150" data-name="Path 130150" d="M9.593,2.665l2.836,1.419c.2.1.32.159.4.2h.011a.629.629,0,0,1,.308.08c.092.006.23.007.469.007h1.8a15.028,15.028,0,0,1,1.892.069,2.276,2.276,0,0,1,1.4.63,2.369,2.369,0,0,1,.606,1.417,16.341,16.341,0,0,1,.067,1.942v.7a.632.632,0,1,1-1.265,0v-.66a15.847,15.847,0,0,0-.056-1.821,1.14,1.14,0,0,0-.259-.7,1.042,1.042,0,0,0-.662-.259,14.53,14.53,0,0,0-1.764-.058h-1.9V8.285a.632.632,0,1,1-1.265,0v-2.9c-.1-.045-.195-.094-.3-.148L9.053,3.809c-.6-.3-1.006-.5-1.344-.634l-.136-.05V14.456a4.39,4.39,0,0,1,1.154.406c.188.092.371.191.54.284l.025.014c.163.089.313.17.46.244a.632.632,0,0,1-.566,1.131c-.167-.084-.335-.175-.493-.261l-.031-.017c-.171-.093-.333-.18-.494-.26a2.976,2.976,0,0,0-.888-.307,3.043,3.043,0,0,0-1.926.672l-.047.028c-.522.3-.956.558-1.315.721a1.982,1.982,0,0,1-1.175.216,1.89,1.89,0,0,1-1.14-.681,2.083,2.083,0,0,1-.388-1.135c-.039-.4-.039-.911-.039-1.53V6.99c0-.468,0-.863.032-1.191a2.375,2.375,0,0,1,.28-.974,2.318,2.318,0,0,1,.691-.737c.263-.191.6-.387.993-.617l1.087-.634c.546-.319.992-.579,1.381-.76a3.069,3.069,0,0,1,1.218-.325A3.063,3.063,0,0,1,8.168,2C8.567,2.151,9.029,2.382,9.593,2.665Zm-3.346.558.063-.029v11.32a5.916,5.916,0,0,0-1.473.685l-.136.08c-.56.327-.937.546-1.23.679s-.4.128-.428.123a.626.626,0,0,1-.377-.227.93.93,0,0,1-.117-.467c-.032-.331-.033-.779-.033-1.44V7.019c0-.5,0-.839.026-1.1a1.138,1.138,0,0,1,.121-.473A1.078,1.078,0,0,1,3,5.111c.205-.149.486-.314.913-.563l1.035-.6C5.522,3.606,5.918,3.376,6.247,3.223Z" transform="translate(0 0)" fill="#fff" fill-rule="evenodd"/>
    <path id="Path_130151" data-name="Path 130151" d="M17.343,15.5a.843.843,0,1,0,0,1.686h.008a.843.843,0,1,0,0-1.686Z" transform="translate(-2.391 -2.156)" fill="#fff"/>
    <path id="Path_130152" data-name="Path 130152" d="M12.25,15.646a4.427,4.427,0,0,1,8.854,0,4.73,4.73,0,0,1-1.241,3.106,10.358,10.358,0,0,1-2.465,2l-.01.006-.01.005a1.428,1.428,0,0,1-1.4,0l-.011-.006-.011-.007a10.566,10.566,0,0,1-2.46-2A4.715,4.715,0,0,1,12.25,15.646Zm4.427-3.131a3.184,3.184,0,0,0-3.162,3.131,3.457,3.457,0,0,0,.937,2.281A9.3,9.3,0,0,0,16.6,19.665a.163.163,0,0,0,.147,0A9.093,9.093,0,0,0,18.9,17.928a3.472,3.472,0,0,0,.937-2.283A3.184,3.184,0,0,0,16.677,12.515Z" transform="translate(-1.725 -1.49)" fill="#fff" fill-rule="evenodd"/>
  </g>
</svg>
