<svg xmlns="http://www.w3.org/2000/svg" width="21.32" height="17.767" viewBox="0 0 21.32 17.767">
  <g id="mosque" transform="translate(-4937.68 -553.233)">
    <path id="Path_130125" data-name="Path 130125" d="M4958.193,570.256h-5.527V566.48l-1.75-.549-1.167.961v3.364h-2.918V566.48l-1.545-.549-1.476.961v3.364h-5.7v-5.184l1.545-1.27h1.579V560.85l1.75-1.785,5.287-4.12,5.493,4.12,1,1.785.755,2.952h1.854l1.064,1.27Z" fill="#076b40"/>
    <path id="Path_130124" data-name="Path 130124" d="M20.188,11.949a2.119,2.119,0,0,0-.711.123v-.123c0-3.712-2.76-5.549-4.776-6.89-1.251-.833-2.331-1.549-2.331-2.349a.711.711,0,0,0-1.421,0c0,.8-1.08,1.516-2.331,2.349C6.6,6.4,3.843,8.238,3.843,11.949v.123A2.132,2.132,0,0,0,1,14.082v4.975a.711.711,0,0,0,.711.711H7.4a.711.711,0,0,0,.711-.711V16.214a.711.711,0,0,1,1.421,0v2.843a.711.711,0,0,0,.711.711h2.843a.711.711,0,0,0,.711-.711V16.214a.711.711,0,0,1,1.421,0v2.843a.711.711,0,0,0,.711.711H21.61a.711.711,0,0,0,.711-.711V14.082a2.132,2.132,0,0,0-2.132-2.132ZM9.406,6.243A11.324,11.324,0,0,0,11.66,4.466a11.061,11.061,0,0,0,2.254,1.777c1.777,1.183,3.774,2.513,4.1,5H5.307C5.633,8.756,7.627,7.426,9.406,6.243ZM2.421,14.082a.711.711,0,0,1,1.421,0v4.264H2.421Zm12.082,0a2.132,2.132,0,0,0-2.132,2.132v2.132H10.949V16.214a2.132,2.132,0,0,0-4.264,0v2.132H5.264V12.66H18.056v5.685H16.635V16.214A2.132,2.132,0,0,0,14.5,14.082Zm6.4,4.264H19.478V14.082a.711.711,0,0,1,1.421,0Z" transform="translate(4936.68 551.233)" fill="#076b40"/>
  </g>
</svg>
