<svg id="visit-saudi-logo" xmlns="http://www.w3.org/2000/svg" width="132.229" height="58.238" viewBox="0 0 132.229 58.238">
  <g id="Group_126203" data-name="Group 126203" transform="translate(0)">
    <path id="Path_130141" data-name="Path 130141" d="M113.655,76.355c-.187-.187-2.519-2.566-4.012-2.659a.794.794,0,0,1-.327-.047c-.14,0-.28-.047-.42-.047a.953.953,0,0,0-.886.467v.093l.327.653-.047.047c-.047,0-.047,0-.047.047h.093l.047.047c0,.047,0,.047.047.093v.093c-.047.093-.047.14-.093.233a.046.046,0,0,1-.047.047c-.793.56-1.213,2.146-1.539,3.406a12.463,12.463,0,0,1-.42,1.213h.047a1.991,1.991,0,0,1,1.306-.606,1.027,1.027,0,0,1,.373.047c1.353.28,2.566,2.1,3.079,3.219a25.328,25.328,0,0,0,3.919-.373c.327-.047.606-.047.933-.093A10.583,10.583,0,0,0,113.655,76.355Zm-.84,11.943a10.179,10.179,0,0,1,.047,1.12v.047c.047.233.093.56.14.84,1.12-1.12,2.379-2.286,2.659-3.266V86.9c-.84.187-1.913.373-2.846.56A5.047,5.047,0,0,0,112.816,88.3ZM83.378,83.027c.14-.187.28-.327.42-.513.093-.14.187-.233.28-.373v-.047c-.187-2.146-.42-2.846-1.493-3.825-.093.14-.233.327-.373.56-.047.047-.093.093-.093.14a3.042,3.042,0,0,1-.327.373,4.52,4.52,0,0,0-.327.42,5.282,5.282,0,0,0-.606.466l-.093.093a3.552,3.552,0,0,1-.56.467,4.487,4.487,0,0,1-1.26.746.483.483,0,0,1-.187.047,11.883,11.883,0,0,1-2.426.7h-.14c-.14-.047-.28-.047-.42-.093a1.362,1.362,0,0,1-.42-.093l-.093-.047a3.2,3.2,0,0,1-1.166-.513A.144.144,0,0,0,74,81.487a2.757,2.757,0,0,1-.373-.233A15.751,15.751,0,0,1,71.9,79.481a5.9,5.9,0,0,0-.513-.606l-.28-.28a.975.975,0,0,1-.187-.28.789.789,0,0,0-.28-.327,1.629,1.629,0,0,1-.28-.42,1.323,1.323,0,0,0-.373-.513v.14h.047l.047.047c.047.047.047.187.093.233v.047c0,.047,0,.093-.047.093h-.093a1.925,1.925,0,0,1-.513-.327,1.944,1.944,0,0,0-.84-.373h-.047a1.405,1.405,0,0,0-.56-.14.592.592,0,0,0-.28.047,25.434,25.434,0,0,0-1.726,2.193l-.233.28a1.976,1.976,0,0,0-.233.327.046.046,0,0,1-.047.047,3.757,3.757,0,0,1,.886.98c.047.047.093.14.187.233a14.775,14.775,0,0,0,1.213,1.539l.42.42A26.707,26.707,0,0,0,70.6,85.079c.047,0,.047.047.187.14A7.64,7.64,0,0,0,72,85.966a6.89,6.89,0,0,1,.7.42.87.87,0,0,1,.187.14,10.77,10.77,0,0,0,2.8.373,10.445,10.445,0,0,0,2.752-.373l.187-.093c.28-.14.7-.373.933-.466a8.38,8.38,0,0,0,2.193-1.446,1.09,1.09,0,0,0,.327-.327h.047c.047,0,.187-.14.233-.233a3.788,3.788,0,0,1,.466-.513l.047-.047a2.588,2.588,0,0,1,.28-.373C83.332,83.12,83.332,83.073,83.378,83.027ZM98.54,79.808a7.778,7.778,0,0,1-.746.56.644.644,0,0,0-.187.14,2.446,2.446,0,0,1-.513.467,2.562,2.562,0,0,0-.42.327c-.093,0-.28.093-.746.42l-.047.047c-.047.047-.14.093-.233.187a5.616,5.616,0,0,0-.513.467c-.047.047-.187.093-.373.233a1.02,1.02,0,0,0-.233.14.95.95,0,0,0-.327.28,8.665,8.665,0,0,0-.886.513h-.047a2.786,2.786,0,0,1-.513.28,2.071,2.071,0,0,0-.513.373,2.232,2.232,0,0,1-.793.467c-.047,0-.093.047-.14.093l-.047.047a1.92,1.92,0,0,0-.513.327,1.891,1.891,0,0,1-.42.233,19.1,19.1,0,0,0-1.866,1.073h-.047c-.047.046-.14.046-.327.14a3.214,3.214,0,0,0-.373.14c-.047.047-.14.047-.187.093l-.28.14a.62.62,0,0,1-.373.14h-.14a2.685,2.685,0,0,1-2.146-.327,1.83,1.83,0,0,1-.886-1.166.046.046,0,0,0-.047-.047h-.187c-.187.187-.233.56-.187,1.119a9.929,9.929,0,0,0,.56,2.939,3.257,3.257,0,0,0,.98,1.54.976.976,0,0,0,.28.187.644.644,0,0,1,.187.14,1.114,1.114,0,0,0,.42.093H85.8c.093,0,.187.047.28.047h.14a.507.507,0,0,0,.233-.047c.093,0,.187-.047.28-.047h.093a2.145,2.145,0,0,0,.606-.187,4.772,4.772,0,0,1,.513-.14.163.163,0,0,1,.093-.047.988.988,0,0,1,.327-.14,2.586,2.586,0,0,0,.606-.233c.093-.047.14-.047.187-.093a1.658,1.658,0,0,1,.42-.187,5.57,5.57,0,0,0,.746-.373c.466-.28.979-.56,1.446-.793.653-.373,1.306-.7,1.959-1.12a9.776,9.776,0,0,0,.793-.653,3.564,3.564,0,0,1,1.073-.793c.513-.42,1.12-.886,1.726-1.306a11.2,11.2,0,0,0,2.006-2.146,1.83,1.83,0,0,0,.373-.653,4.06,4.06,0,0,0-1.166-3.126C98.634,79.761,98.587,79.761,98.54,79.808Zm67.924,1.726c-.093.093-.373.28-.467.467a4.361,4.361,0,0,1-1.773.513,4.122,4.122,0,0,1-2.753-1.819,1.38,1.38,0,0,1-.14-.98c-.327.933-1.633,2.1-2.519,4.525a1.375,1.375,0,0,1,.233.606l.047.093c0,.047.047.047.047.093a.356.356,0,0,1,.093.233v.047a.478.478,0,0,0,.233.28c0,.14.14.327.42.606.047.047.093.093.093.14a4.018,4.018,0,0,0,1.213.933,2.274,2.274,0,0,0,.327.14,2.582,2.582,0,0,0,1.773-.047,5.356,5.356,0,0,0,1.26-.653,5.938,5.938,0,0,0,.886-.606v-.047c.047-.047.093-.14.14-.187l.047-.047v-.047c.047-.047.093-.14.14-.187l.047-.047A8.023,8.023,0,0,0,166.465,81.534Zm-41.753-7.184a5.932,5.932,0,0,0-1.679.56,4.332,4.332,0,0,1-.467.233,1.327,1.327,0,0,0-.653.42l-.047.047-.327.093a19.414,19.414,0,0,0-3.966,1.539,4.95,4.95,0,0,1,.98-.093,8.884,8.884,0,0,1,5.691,2.426c1.4-.653,2.8-1.4,4.152-2.146A28.537,28.537,0,0,0,124.712,74.349Zm10.03,8.771a14.634,14.634,0,0,1-3.779-3.172l-4.152,2.333c.327.42.56.793.84,1.12,3.312,4.8,5.271,5.365,6.484,5.365,1.726,0,3.219-1.306,5.132-3.172l.047-.047a5.5,5.5,0,0,1,.746-3.826l.047-.047a2.869,2.869,0,0,1,.56-.886c-2.053,1.866-3.266,2.706-4.385,2.706A2.87,2.87,0,0,1,134.742,83.12Z" transform="translate(-45.031 -50.557)" fill="#fff"/>
    <path id="Path_130142" data-name="Path 130142" d="M37.741,44.366c-.326-.187-.746-.653-1.259-.98-.327-.187-.886-.793-1.26-.886a11.36,11.36,0,0,0-1.353,1.213,3.046,3.046,0,0,1-.746.606c-.327-.327-.793-.467-1.166-.793-.28-.233-.606-.467-.886-.7a1.258,1.258,0,0,1-.327-.373c-.093-.233-.187-.187-.373-.047a4.958,4.958,0,0,0-.513.42,1.323,1.323,0,0,0-.373.513c-.093.233-.373.28-.513.42a4.4,4.4,0,0,0-.466.467,5.069,5.069,0,0,1-1.073,1.166c-.233.233-.28.373-.093.606a6.979,6.979,0,0,0,.606.513l1.12.84a7.641,7.641,0,0,1,1.166.98,1.258,1.258,0,0,0,.373.327c.28-.233.606-.467.886-.746h.14a3.019,3.019,0,0,0,.373-.42c.047-.047.093-.14.14-.187.14-.187.28-.28.467-.233.14.047.233.047.373.093.42.187.606.606.84.653.373.093.606.513,1.073.467.047,0,.093.093.14.093.187.093.28.233.56.047.047-.047.187,0,.233,0a.472.472,0,0,0,.56-.233c.047-.093.14-.233.187-.187.233.047.047-.187.187-.233.233-.047.606-.606.7-.7.14-.233.233-.513.606-.56l.047-.047a4.912,4.912,0,0,1,.467-.56c.187-.187.327-.327.327-.56.047-.28-.42-.373-.606-.56A1.932,1.932,0,0,0,37.741,44.366ZM36.388,20.153a1.292,1.292,0,0,0,.047-.42c-.14-.14-.7-.746-1.306-1.4a25.107,25.107,0,0,1-1.819-2.006.841.841,0,0,0-.467.093,7.051,7.051,0,0,0,1.819,8.864,4.421,4.421,0,0,1,.606.513,12.086,12.086,0,0,0,.98.793c.513.42.933.746,1.26,1.073,1.073.98,1.306,1.726,1.493,3.825v.047c0-.047.047-.047.093-.093s.047-.093.093-.093c.14-.233.327-.466.467-.7a12.823,12.823,0,0,0,.7-1.679c.14-.513.233-.933.327-1.446a6.866,6.866,0,0,0,0-.98v-.327a3.246,3.246,0,0,0-.093-.746,3.326,3.326,0,0,0-.7-1.213,5.588,5.588,0,0,0-.513-.56,4.207,4.207,0,0,1-.42-.467l-.047-.047a24.386,24.386,0,0,1-2.332-2.146C36.295,20.807,36.342,20.48,36.388,20.153Zm9.237,25.8L45.3,47.211l.327-.093c2.892-.933,9.983-3.5,12.083-4.338l.047-.047.327-1.213c-2.146.793-9.657,3.452-12.409,4.385Zm-.28-22.066a2.832,2.832,0,0,0,.467.327c.093.047.28.187.466.28a1.762,1.762,0,0,0,.513.327c.093.047.373.233.7.42.233.14.467.327.56.373.42.233,1.4.84,1.493.886a.424.424,0,0,0,.327.14h.047a.641.641,0,0,0,.373.233l.093.047a.988.988,0,0,0,.327.14l.047.047.42.28a1.02,1.02,0,0,0,.233.14,2.719,2.719,0,0,0,.513.327l.047.047a.719.719,0,0,0,.327.14h.047a4.376,4.376,0,0,0,.56.42,1.451,1.451,0,0,0,.28.187c.187.093.187.093.187.14l.093.093c.047.047.093.14.14.187a4.059,4.059,0,0,1,1.166,3.126,3.611,3.611,0,0,0,.327-.746,11.884,11.884,0,0,0,.28-4.105c-.14-1.026-.373-2.519-2.986-4.105-.187-.14-.373-.233-.56-.373l-.093-.047c-.793-.467-1.726-1.073-2.613-1.633-.606-.373-1.166-.746-1.726-1.073h-.047V20.06a1.6,1.6,0,0,1,.047-.653,1.552,1.552,0,0,0-.047-.933.736.736,0,0,0-.373-.233,21.3,21.3,0,0,1-3.732-2.566l-.373-.28h-.047a.144.144,0,0,0-.093.047c-.047,0-.14.047-.187.047-.047.187-.047.373-.093.56-.28,1.959-.606,4.2.886,5.738A14.44,14.44,0,0,0,45.345,23.886Zm57.615-1.353h.047c.84-.28,4.618-1.773,5.971-3.452l.047-.047h.047c.093.047.467.187.606.233l.14.047.98-1.353-.187-.093c-.14-.047-.56-.187-.746-.233h-.093l.047-.093a3.008,3.008,0,0,0,.14-.933c0-2.333-1.026-3.126-1.866-3.126a2.923,2.923,0,0,0-2.006.886,2.885,2.885,0,0,0-.98,2.146c0,1.213.84,1.913,2.659,2.239l.187.047-.14.093a39.139,39.139,0,0,1-6.531,3.079l-.56.233.56.14A10.281,10.281,0,0,0,102.96,22.533Zm2.846-6.811c0-.513.746-1.073,1.446-1.073.793,0,1.726,1.026,1.726,2.426a2.053,2.053,0,0,1-.093.467l-.047.093h-.093C106.879,17.168,105.806,16.515,105.806,15.722Zm26.358,19.64-.187-1.959a.149.149,0,0,0,.14-.14v-.233a5.078,5.078,0,0,0-.14-1.446v-.047c-.047-.047-.093-.14-.047-.187.14-.187.093-.606,0-1.213a3.1,3.1,0,0,1-.047-.606v-.047c-.373-2.286-.933-6.671-1.12-9.237V20.2c-.233-.84-.56-2.239-.7-3.126a.7.7,0,0,0,0-.746.829.829,0,0,1-.047-.513c0-.093-.093-.886-.14-1.12a15.507,15.507,0,0,1,1.306-1.4c.467-.467.42-.653.047-1.633-.187-.467-.373-.886-.607-1.4a14,14,0,0,1-.979-2.519V7.7c-.56-1.026-1.12-2.146-1.633-3.219a5.69,5.69,0,0,0-.42-.793h-.28c-.047.093-1.026,1.773-1.166,2.053a17.781,17.781,0,0,0-1.073,2.1,1.575,1.575,0,0,0-.093.933c1.493,5.225,2.426,13.342,3.172,19.92.187,1.586.373,3.126.513,4.479a21.088,21.088,0,0,1,.373,4.945,34.483,34.483,0,0,0,.187,4.339v1.68a6.791,6.791,0,0,1-.187,2.239c-.187.98-.233,1.4-.093,1.54.047.047.093.093.14.093.7,0,1.166-1.026,1.539-1.959.14-.28.233-.56.327-.746a2.126,2.126,0,0,0,.187-1.026,5.258,5.258,0,0,1,.093-.653c.84-1.866.84-4.245.84-6.3,0-.7,0-1.353.047-1.959C132.3,35.455,132.21,35.362,132.164,35.362ZM37.788,5.132l.046-.047.42-1.353c-2.519.933-11.336,4.059-14.6,5.132l-.093.047-.327,1.4.327-.093C26.965,9.144,35.315,6.158,37.788,5.132ZM94.656,22.253c.14-.56.233-1.073-.047-1.213a19.178,19.178,0,0,0-9.47-2.612,15.266,15.266,0,0,0-2.519.187l-.233.047a18.9,18.9,0,0,0-5.132,1.679,1.658,1.658,0,0,0-.42.187,2.03,2.03,0,0,0-.7.373,1.536,1.536,0,0,0-.606.327.644.644,0,0,1-.187.14,17.979,17.979,0,0,0-1.773,1.353,1.655,1.655,0,0,0-.42.513v.047a2.6,2.6,0,0,1-.233.373,1.169,1.169,0,0,1-.187.327v.047a5.657,5.657,0,0,1-.233.653c-.373.98-.653,1.819-.373,2.193l.047.047h.047l.28-.14a19.416,19.416,0,0,1,3.966-1.539l.327-.093a.046.046,0,0,0,.047-.047c.093-.233.373-.327.653-.42a2.179,2.179,0,0,0,.467-.233,5.931,5.931,0,0,1,1.68-.56,2.013,2.013,0,0,0,.233-.047,2.98,2.98,0,0,1,.327-.093h.047a11.849,11.849,0,0,1,1.726-.467h.093a2.793,2.793,0,0,0,.56-.093.507.507,0,0,1,.233-.047,5.981,5.981,0,0,0,1.26-.233,16.32,16.32,0,0,0,1.913.233,4.929,4.929,0,0,1,1.819.42,7.717,7.717,0,0,0,.98.28l.187.047-.187.093a.046.046,0,0,0-.047.047c-1.166.7-3.685,2.1-5.038,2.706a2.6,2.6,0,0,0-.373.233c-1.353.746-2.753,1.493-4.152,2.146a27.923,27.923,0,0,1-8.3,2.706,6.323,6.323,0,0,1-.933.093,21.444,21.444,0,0,1-3.919.373h-.606c-.467,0-.933.047-1.4.047-.42,0-.793.047-1.166.047a2.519,2.519,0,0,1-1.726-.42,2.071,2.071,0,0,1-.187-1.773c.047-.14.14-.327.233-.56.14-.373.327-.886.42-1.213.327-1.26.746-2.846,1.539-3.406l.047-.047c0-.093.047-.14.093-.233v-.093c0-.047-.047-.047-.047-.093a.046.046,0,0,0-.047-.047h-.093c-.233.093-.513.14-.793.233a4.413,4.413,0,0,0-2.239,1.306,6.953,6.953,0,0,0-1.26,2.379c-.14.327-.187.606-.28.746a7.556,7.556,0,0,0-.42,1.773,2.683,2.683,0,0,1-.093.466,9.08,9.08,0,0,0-.187,1.586,3.2,3.2,0,0,1,0,.7,2.918,2.918,0,0,0,0,.653c.047.047.047.187.047.28v.093a3.536,3.536,0,0,1,.28.746c.093.373.933,1.073,1.213,1.306l.047.047a2.966,2.966,0,0,0,1.353.606h.7a3.351,3.351,0,0,0,.886.093h.233a3.792,3.792,0,0,0,.42-.047c.42-.047,1.166-.093,1.586-.14a1.607,1.607,0,0,1,.42-.047,1.438,1.438,0,0,1,.467-.047h.42a12.288,12.288,0,0,0,1.819-.28c.933-.14,2.053-.373,2.846-.56a6.391,6.391,0,0,0,1.213-.327,1.043,1.043,0,0,1,.467-.14H72.5a9.06,9.06,0,0,0,2.379-.653c.093-.047.187-.047.233-.093a12.231,12.231,0,0,0,2.006-.84,5.413,5.413,0,0,1,2.006-.84h.047a4.168,4.168,0,0,0,.746-.42,2.764,2.764,0,0,0,.28-.187c.187-.093.933-.606,1.353-.886.233-.14.28-.187.327-.187h.047l4.152-2.333,1.073-.606c.047,0,.047-.047.093-.047h.047a9.384,9.384,0,0,0,1.819-.746,1.04,1.04,0,0,0,.233-.14,4.918,4.918,0,0,0,1.213-.606c.093-.047.606-.327.933-.513l.373-.187c.233-.14.513-.327.793-.466a6.782,6.782,0,0,0,1.213-.793c.093-.233.7-2.239.746-2.379A2.131,2.131,0,0,1,94.656,22.253Zm29.577-8.3a85.126,85.126,0,0,0-3.219-8.211c-.047-.047-.233-.047-.233,0-.14.28-.513.886-.886,1.586-.513.98-1.26,2.333-1.586,2.939a.9.9,0,0,0,.093.7c.933,1.866,1.68,4.992,2.193,9.284.513,4.152.746,8.257.793,10.263v.42a9.993,9.993,0,0,1-.513,4.012c2.752-3.406,3.172-7.837,3.172-10.217a54.769,54.769,0,0,0-1.12-8.91c.14-.14.373-.42,1.073-1.166A.559.559,0,0,0,124.233,13.949Zm-8.444,13.9c-.746.84-1.54,1.773-2.239,2.659a.046.046,0,0,1-.047.047c-.047.233-.28.373-.467.513a1.609,1.609,0,0,0-.42.373,2.788,2.788,0,0,1-1.493.98,2.274,2.274,0,0,0-.327.14,1.167,1.167,0,0,1-.606.14h-.047a2.214,2.214,0,0,1-2.006-1.4,1.908,1.908,0,0,1,.187-1.213,1.523,1.523,0,0,0,.093-1.539c0-.047-.047-.047-.093-.047s-.093,0-.093.047c-.606.56-1.213,1.166-1.819,1.773a37.76,37.76,0,0,1-2.846,2.612,4.289,4.289,0,0,1-5.365.28h-.047a1.7,1.7,0,0,1-.98-1.073,4.262,4.262,0,0,1,.84-3.126v-.047c.047-.373-.047-.606-.233-.653s-.42.047-.653.373c-.187.14-.373.373-.606.56a6.327,6.327,0,0,1-.56.56l-.42.42a3.216,3.216,0,0,0-.56.886l-.047.047a5.707,5.707,0,0,0-.746,3.825,5.425,5.425,0,0,0,.187.84,4.929,4.929,0,0,0,2.659,3.032c.047.047.14.047.187.093a2.379,2.379,0,0,0,1.073.327c.093,0,.187.047.327.047h.327a9.059,9.059,0,0,0,1.12-.093h.233a.171.171,0,0,1,.14-.047.171.171,0,0,0,.14-.047l.047-.047c.187-.047.373-.14.606-.187.187-.093.373-.14.56-.233l.56-.28a1.926,1.926,0,0,0,.513-.327,3.561,3.561,0,0,0,.513-.373,4.045,4.045,0,0,0,.467-.373l.42-.42a4.2,4.2,0,0,0,.42-.467,4.931,4.931,0,0,0,.373-.513c.047-.047.047-.093.093-.14s.093-.093.093-.14c.047-.047.047-.093.093-.14a290175907146.925,290175907146.925,0,0,1,.093-.093v-.047a.281.281,0,0,1,.047.187v.373a3.06,3.06,0,0,0,1.213,1.54c.093.093.187.14.28.233h.047a3.591,3.591,0,0,0,2.939.093,7.779,7.779,0,0,0,3.779-4.152c.933-2.426,2.239-3.592,2.519-4.525a1.427,1.427,0,0,0-.327-1.26C115.929,27.8,115.836,27.8,115.789,27.851ZM12.223,19.08a7.144,7.144,0,0,0,1.866,1.446c.093.047.093.14.187.187.047.047.093.14.14.14a1.212,1.212,0,0,1,.746.42c0,.047.093.047.187.047a1.1,1.1,0,0,0,1.073-.093c.047-.047.093,0,.14-.047a11.348,11.348,0,0,0,1.586-1.4c.373-.467.84-.933,1.26-1.4a7.376,7.376,0,0,0,3.266,2.706,1.452,1.452,0,0,0,.42.327,15.315,15.315,0,0,1,1.26-1.773,12.709,12.709,0,0,1,1.073-1.166,7.973,7.973,0,0,1,.606-1.073.976.976,0,0,1-.28-.187c-.28-.187-.513-.42-.746-.606-.093-.093-.28-.14-.373-.233a15.464,15.464,0,0,1-1.213-1.26,7.388,7.388,0,0,0-1.026-1.073,1.134,1.134,0,0,1-.467-.606c-.187.047-.327.047-.467.093-.047,0-.093.047-.14.093-.14.233-.28.513-.467.793a1.608,1.608,0,0,0-1.026.793,6.689,6.689,0,0,1-.933,1.073c-.093.093-.373.42-.467.327a3.556,3.556,0,0,0-1.26-.933l-.56-.42c-.327-.233-.653-.467-.933-.7a3.219,3.219,0,0,1-.84-.746c-.093-.14-.56.233-.606.28a1.276,1.276,0,0,1-.606.606c-.28.14-.42.467-.653.7a18.087,18.087,0,0,1-1.213,1.446.708.708,0,0,0-.28.84A2.936,2.936,0,0,0,12.223,19.08Zm10.5,7.418a.911.911,0,0,1,.327-.047,1.406,1.406,0,0,1,.56.14h.047a1.52,1.52,0,0,1,.84.373c.187.093.327.233.513.327H25.1a.163.163,0,0,0,.047-.093v-.047a.493.493,0,0,0-.093-.233l-.047-.047h-.047v-.187c0-.047,0-.047-.047-.047l-.047-.047a6.036,6.036,0,0,0-3.219-3.126,1.482,1.482,0,0,0-.606-.093,3.334,3.334,0,0,0-1.679.7,42.423,42.423,0,0,0-5.318,6.251c-.327.42-.606.793-.933,1.213-.467.606-.933,1.213-1.4,1.773-.886,1.073-1.586,1.913-2.473,2.892,0,0-.653.746-.886.98a3.432,3.432,0,0,1-.56.373c-.187.14-.42.233-.513.326-.047,0-.047.047-.093.093-.093.047-.14.14-.233.187a3.87,3.87,0,0,0-.746.606l-.047.047a2.244,2.244,0,0,1-.513.42A7.613,7.613,0,0,1,3.219,40.26a5.5,5.5,0,0,0-1.306.28c-.093,0-.233.047-.327.047a2.342,2.342,0,0,1-.56-.093,1.749,1.749,0,0,0-.513-.047,1.38,1.38,0,0,0-.467.093C0,40.54,0,40.587,0,40.633a3.27,3.27,0,0,0,1.959,1.819c.093.047.14.047.187.093.14.047.28.14.42.187s.14.093.233.093h.187a1.834,1.834,0,0,1,.28.093,1.579,1.579,0,0,1,.373.14h.327a11.644,11.644,0,0,0,1.166.093,5.948,5.948,0,0,0,3.079-.793H8.4a16.535,16.535,0,0,0,1.633-1.073.644.644,0,0,1,.187-.14,2.585,2.585,0,0,0,.373-.28,4.372,4.372,0,0,0,.84-.793,3.213,3.213,0,0,1,1.073-.886c.047,0,.047,0,.093-.093a5.915,5.915,0,0,1,1.026-1.213,2.039,2.039,0,0,0,.327-.373c.093-.093.14-.187.187-.233a1.534,1.534,0,0,1,.28-.28,15.143,15.143,0,0,0,1.446-1.773,3.046,3.046,0,0,1,.42-.606.643.643,0,0,0,.14-.187l.047-.047a4.843,4.843,0,0,0,.56-.793l1.539-1.819c.606-.7,1.306-1.493,1.913-2.333l.047-.047a1.975,1.975,0,0,0,.233-.327l.233-.28A13.989,13.989,0,0,1,22.719,26.5Zm45.112,13.3-.56.56a40.013,40.013,0,0,1-6.158,4.992,10.659,10.659,0,0,1-3.546,2.332,68.754,68.754,0,0,1-8.537,3.592c-.793.28-1.4.093-1.819.886-.047-.047-.093-.093-.14-.093a9.159,9.159,0,0,0-4.2,1.213c1.4,1.633,4.105-1.26,5.551.093a7.8,7.8,0,0,1-2.053,1.073c-.42-.14-.793.14-1.213.233-.653.187-1.26.373-1.913.56-2.379.093-4.665.606-7.044.467-10.59-.653-15.069-8.537-11.336-17.448.14-.233.233-.467.373-.7a.252.252,0,0,0-.467,0,.642.642,0,0,1-.14.186c-3.5,6.065-4.758,14,1.726,18.707.187.093.467.187.606.28.793-.42.233-.513,1.493.047,3.5,1.633,7.978,1.726,11.989,1.12.327,0,.56-.047.84-.047a2.326,2.326,0,0,0,1.12-.14c.14-.047.373-.047.513-.093h.047c1.073-.233,2.193-.373,2.893-1.306.373.093.7.28,1.073,0a26.555,26.555,0,0,0,4.479-1.493c.373-.047.513.28.933.233a36.1,36.1,0,0,0,14.182-9.657.559.559,0,0,0,.187-.187,4.356,4.356,0,0,0,.606-.7,24.077,24.077,0,0,0,2.006-3.312c.28-.56.513-1.12.746-1.633a15.817,15.817,0,0,0,.42-3.079c-.28,1.026-1.54,2.146-2.659,3.265C67.925,39.747,67.878,39.747,67.831,39.794ZM54.3,11.989a7.539,7.539,0,0,0,2.052,5.552,7.614,7.614,0,0,0,5.552,2.053c1.306,0,3.685-1.633,5.272-2.706.42-.28.793-.56,1.073-.746l.047-.047v-.513l-.093.047a25.018,25.018,0,0,1-5.831.7c-2.753,0-5.085-.7-6.3-1.959A3.432,3.432,0,0,1,55,11.9c0-3.965,4.992-7.278,11.523-7.744h.047l.7-2.286-.14-.327h-.047a18.141,18.141,0,0,1-3.779-.42A19.171,19.171,0,0,1,61.394.653,17.379,17.379,0,0,0,57.615,0c-1.959,0-2.986,1.213-3.265,3.872v.093l.373.093.047-.093c.513-1.493,1.866-1.446,3.312-1.26a27.485,27.485,0,0,1,3.032.513,2.342,2.342,0,0,0,.56.093C57.055,4.992,54.3,8.211,54.3,11.989Zm14.042.513a9.887,9.887,0,0,1-2.053-.187h-.14v.467l.047.047c1.026.653,3.732,1.913,4.992,1.913A5.072,5.072,0,0,0,75.3,12.409a9.322,9.322,0,0,0,1.633-5.318,12.2,12.2,0,0,0-.886-4.758C75.389.84,74.456.093,73.383.093a3.252,3.252,0,0,0-2.659,1.726A6.851,6.851,0,0,0,69.7,5.412c0,2.706,1.633,3.639,3.079,3.639a3.684,3.684,0,0,0,3.406-2.659,2.372,2.372,0,0,1,.187.933C76.462,9.75,73.15,12.5,68.345,12.5Zm4.618-6.158c-1.166,0-2.426-.513-2.426-1.306a2.364,2.364,0,0,1,2.1-2.1,3.629,3.629,0,0,1,3.079,2.379A3.8,3.8,0,0,1,72.963,6.345ZM81.64,14.7c3.219,0,5.738-3.5,5.738-7.931A13.878,13.878,0,0,0,85.419.093L85.372.047h-.467l-1.026,2.8.047.047C85,3.919,86.585,5.878,86.585,7.044a5.166,5.166,0,0,1-2.1,3.685,7.794,7.794,0,0,1-4.945,1.819,11,11,0,0,1-1.773-.093h-.093v.513l.047.047A7.7,7.7,0,0,0,81.64,14.7Z" fill="#fff"/>
  </g>
</svg>
