<svg viewBox="0 0 423 186" fill="none" xmlns="http://www.w3.org/2000/svg"><path d="M219.171 82.394c-.596-.596-8.046-8.195-12.814-8.493-.298 0-.745 0-1.043-.149-.447 0-.894-.149-1.341-.149-.894 0-1.937.149-2.831 1.49v.298l1.043 2.086-.149.149c-.149 0-.149 0-.149.149h.298l.149.149c0 .149 0 .149.149.298v.298c-.149.298-.149.447-.298.745 0 0 0 .149-.149.149-2.533 1.788-3.873 6.853-4.916 10.876-.298 1.192-.894 2.682-1.341 3.874h.149c1.341-1.192 2.682-1.937 4.171-1.937.447 0 .745 0 1.192.15 4.321.893 8.195 6.704 9.834 10.28 4.917-.149 9.685-.596 12.516-1.192 1.043-.149 1.937-.149 2.979-.298-1.042-8.195-3.426-14.154-7.449-18.773Zm-2.682 38.142c.149 1.49.149 2.533.149 3.576v.149c.149.745.298 1.788.447 2.682 3.576-3.576 7.599-7.301 8.493-10.43v-.447c-2.682.596-6.109 1.192-9.089 1.788-.149.894 0 1.788 0 2.682ZM122.473 103.7c.447-.596.894-1.043 1.341-1.639.298-.447.596-.745.894-1.192v-.149c-.596-6.854-1.341-9.089-4.768-12.218-.298.448-.745 1.043-1.191 1.788-.149.15-.298.298-.298.447a9.718 9.718 0 0 1-1.043 1.192c-.298.447-.596.596-1.043 1.341-.745.447-1.192.894-1.937 1.49l-.298.298c-.447.447-.745.745-1.788 1.49-.745.596-2.533 1.937-4.023 2.384 0 0-.298.15-.596.15-1.639.595-6.109 2.234-7.748 2.234h-.447c-.447-.149-.894-.149-1.34-.298-.448 0-.895-.149-1.342-.298l-.298-.149c-1.34-.447-2.384-.596-3.725-1.639-.148-.149-.297-.149-.297-.149-.15-.149-.447-.149-1.192-.745-1.192-.894-4.172-4.023-5.513-5.662-.447-.596-1.043-1.34-1.64-1.937l-.893-.894c-.298-.298-.447-.596-.596-.894-.15-.297-.298-.596-.894-1.042-.298-.298-.596-.745-.894-1.341-.298-.596-.596-1.192-1.192-1.64V85.077h.149l.149.149c.149.149.149.596.298.745v.149c0 .149 0 .297-.149.297h-.298c-.596-.297-1.192-.595-1.639-1.042-.894-.596-1.639-1.043-2.682-1.192h-.149c-.745-.298-1.192-.447-1.788-.447-.298 0-.596 0-.894.149-1.937 2.235-3.874 4.618-5.513 7.002l-.745.894c-.297.298-.447.596-.744 1.043 0 0 0 .15-.15.15 1.043.744 1.64 1.49 2.831 3.128.15.15.298.447.596.745 1.043 1.49 2.831 3.874 3.874 4.917l1.341 1.341c2.384 2.533 4.619 4.768 7.45 7.152.149 0 .149.149.596.447.447.447 3.129 2.086 3.874 2.384.447.149 1.49.894 2.235 1.34.298.149.596.447.596.447 3.426.894 6.257 1.192 8.94 1.192 2.681 0 5.363-.298 8.79-1.192l.596-.298c.894-.446 2.235-1.191 2.98-1.489 1.49-.745 5.066-2.533 7.003-4.619a3.481 3.481 0 0 0 1.043-1.043h.149c.149 0 .596-.447.745-.745.148-.298.893-1.043 1.489-1.639l.149-.149c.298-.447.596-.894.894-1.192.596.298.596.149.745 0Zm48.424-10.28c-.596.595-1.788 1.34-2.384 1.787-.298.15-.447.298-.596.447-.447.596-1.043 1.043-1.639 1.49-.447.298-.894.596-1.341 1.043-.298 0-.894.298-2.384 1.341l-.149.15c-.149.148-.447.297-.745.595-.596.447-1.341 1.192-1.639 1.49-.149.149-.596.298-1.192.745-.298.149-.596.298-.745.447-.447.298-.745.447-1.043.894a27.678 27.678 0 0 0-2.831 1.639h-.149c-.596.298-1.043.745-1.639.894a6.616 6.616 0 0 0-1.639 1.192c-.745.596-1.49 1.192-2.533 1.49-.149 0-.298.149-.447.298l-.149.149c-.596.298-1.192.596-1.638 1.043-.149.149-1.192.745-1.341.745-.447 0-5.513 3.129-5.96 3.427h-.149c-.149.148-.447.148-1.043.446-.447.149-.894.298-1.192.447-.149.149-.447.149-.596.298l-.894.447c-.447.298-.745.447-1.192.447H133.201c-.596.149-1.341.298-2.086.298-1.639 0-3.427-.447-4.768-1.341-1.043-.596-2.384-1.787-2.831-3.724 0 0 0-.149-.149-.149h-.596c-.596.596-.745 1.788-.596 3.575-.298 3.427 1.788 9.238 1.788 9.387.596 2.086 1.788 3.725 3.129 4.917.298.298.596.447.894.596.298.149.447.298.596.447.149.149 1.043.298 1.341.298h.298c.298 0 .596.149.894.149h.447c.149 0 .447 0 .745-.149.298 0 .596-.149.894-.149h.298c.298 0 1.341-.298 1.937-.596 1.043-.298 1.49-.447 1.639-.447 0 0 .149-.149.298-.149.298-.149.745-.447 1.043-.447.298 0 1.341-.447 1.937-.745.298-.149.447-.149.596-.298.447-.298.894-.447 1.341-.596a17.788 17.788 0 0 0 2.384-1.192 70.543 70.543 0 0 1 4.618-2.533c2.086-1.192 4.172-2.235 6.258-3.576.894-.596 1.639-1.341 2.533-2.086 1.043-1.043 2.086-1.937 3.427-2.533a88.969 88.969 0 0 1 5.513-4.171c2.086-1.788 4.47-4.023 6.406-6.854.596-.596.894-1.341 1.192-2.086.596-3.725-1.341-7.003-3.724-9.983.298.596.149.596 0 .745Zm216.935 5.512c-.298.298-1.192.894-1.49 1.49a13.926 13.926 0 0 1-5.661 1.639c-3.576-.894-7.152-2.682-8.791-5.81-.596-.895-.596-1.938-.447-3.13-1.043 2.98-5.215 6.705-8.046 14.453.447.596.596 1.192.745 1.937l.149.298c0 .149.149.149.149.298.149.149.298.447.298.745v.149c.149.447.447.745.745.894 0 .447.447 1.043 1.341 1.937.149.149.298.298.298.447a12.832 12.832 0 0 0 3.874 2.979c.298.149.596.298 1.043.447 1.788.745 3.725.447 5.662-.149 1.49-.447 2.831-1.341 4.023-2.086 1.043-.596 1.937-1.191 2.831-1.936v-.149c.149-.149.298-.447.447-.596l.149-.149v-.149c.149-.149.298-.447.447-.596l.149-.149c1.936-2.98 2.234-8.791 2.085-12.814Zm-133.35-22.945c-1.787.298-3.575.894-5.363 1.788-.447.298-.894.447-1.49.745-.894.298-1.639.745-2.086 1.34l-.149.15-1.043.298c-4.321 1.34-8.791 2.682-12.665 4.917a15.81 15.81 0 0 1 3.129-.298c7.003 0 13.112 3.426 18.177 7.747 4.47-2.086 8.94-4.47 13.261-6.853-3.278-3.278-7.152-6.556-11.771-9.834Zm32.034 28.011c-4.023-1.937-7.598-5.513-12.068-10.132l-13.261 7.45c1.043 1.341 1.788 2.533 2.682 3.576 10.579 15.346 16.836 17.134 20.71 17.134 5.513 0 10.281-4.172 16.39-10.131l.149-.149c-.745-4.172.149-8.642 2.384-12.218l.149-.149c.447-1.043 1.043-2.086 1.788-2.83-6.556 5.959-10.43 8.641-14.006 8.641-1.639.149-2.98-.298-4.917-1.192Z" fill="#78006E"></path><path d="M120.536 141.694c-1.042-.596-2.383-2.086-4.022-3.129-1.043-.596-2.831-2.533-4.023-2.831-1.49 1.341-3.129 2.384-4.321 3.874-.596.745-1.639 1.49-2.384 1.937-1.043-1.043-2.533-1.49-3.725-2.533-.894-.745-1.937-1.49-2.83-2.235-.448-.298-.746-.745-1.044-1.192-.298-.745-.596-.596-1.192-.149-.596.447-1.192.894-1.639 1.341-.447.447-1.042 1.043-1.191 1.639-.299.745-1.193.894-1.64 1.341-.446.447-1.042.894-1.49 1.49-.893 1.49-2.085 2.533-3.426 3.725-.745.745-.894 1.192-.298 1.936.596.596 1.192 1.043 1.937 1.639l3.575 2.682c1.342.894 2.533 1.937 3.725 3.129.298.447.745.745 1.192 1.043.894-.745 1.937-1.49 2.831-2.384h.447c.447-.447.894-.894 1.192-1.341.149-.149.298-.447.447-.596.447-.596.894-.894 1.49-.745.447.149.745.149 1.192.298 1.341.596 1.937 1.937 2.682 2.086 1.192.298 1.937 1.639 3.427 1.49.149 0 .298.298.447.298.596.298.894.745 1.788.149.149-.149.596 0 .745 0 .745.149 1.341 0 1.788-.745.149-.298.447-.745.596-.596.745.149.149-.596.596-.745.745-.149 1.937-1.937 2.235-2.235.447-.745.744-1.639 1.936-1.788l.149-.149c.447-.596.894-1.192 1.49-1.787.596-.596 1.043-1.043 1.043-1.788.149-.894-1.341-1.192-1.937-1.788-.298-.447-1.043-.894-1.788-1.341Zm-4.32-77.328c.149-.447.149-.894.149-1.341-.447-.447-2.235-2.384-4.172-4.47-2.384-2.384-4.917-5.215-5.811-6.407-.596 0-.894 0-1.49.298-7.45 15.496 2.533 25.627 5.811 28.309.447.298 1.192.894 1.937 1.639 1.341 1.043 2.682 2.384 3.129 2.533 1.639 1.34 2.98 2.384 4.023 3.427 3.426 3.129 4.171 5.513 4.767 12.217v.149c0-.149.149-.149.298-.298s.149-.298.298-.298c.447-.745 1.043-1.49 1.49-2.235a40.954 40.954 0 0 0 2.235-5.364c.447-1.638.745-2.98 1.043-4.618.149-1.043 0-2.086 0-3.13v-1.042c0-.745-.149-1.937-.298-2.384-.596-1.639-1.341-2.98-2.235-3.874-.447-.596-1.043-1.192-1.639-1.788-.447-.447-.894-.894-1.341-1.49l-.149-.149c-2.682-2.235-4.767-4.023-7.449-6.853-.894-.746-.745-1.788-.596-2.831Zm29.501 82.394-1.043 4.022 1.043-.298c9.237-2.98 31.884-11.174 38.589-13.856l.149-.149 1.043-3.874c-6.854 2.533-30.842 11.026-39.632 14.006l-.149.149Zm-.894-70.475c.447.447 1.043.745 1.49 1.043.298.15.894.596 1.489.894.596.447 1.341 1.043 1.639 1.043.298.149 1.192.745 2.235 1.341.745.447 1.49 1.043 1.788 1.192 1.341.745 4.47 2.682 4.768 2.83.298.299.596.448 1.043.448h.149c.298.447.745.596 1.192.745l.298.149c.298.149.745.447 1.043.447l.149.149 1.341.894c.149.149.447.298.745.447.596.447 1.49 1.043 1.639 1.043l.149.149c.149.149.447.298 1.043.447h.149c.596.596 1.192.894 1.788 1.34.149.15.596.448.894.597.596.298.596.298.596.447l.298.297c.149.15.298.447.447.596 2.384 2.98 4.32 6.258 3.724 9.983.447-.745.745-1.49 1.043-2.384 1.043-4.023 1.341-8.492.894-13.111-.447-3.278-1.192-8.046-9.535-13.112-.596-.447-1.192-.745-1.788-1.192l-.298-.149c-2.533-1.49-5.513-3.427-8.344-5.215-1.937-1.192-3.725-2.383-5.513-3.426h-.149v-.15c-.149-.595 0-1.34.149-2.085.149-1.043.298-2.235-.149-2.98-.298-.298-.596-.596-1.192-.745-4.32-2.235-7.896-4.917-11.919-8.195l-1.192-.894h-.149s-.149 0-.298.15c-.149 0-.447.148-.596.148-.149.596-.149 1.192-.298 1.788-.894 6.258-1.937 13.41 2.831 18.326 2.086 2.682 4.172 4.768 6.407 6.705Zm184.008-4.32h.149c2.682-.895 14.75-5.663 19.071-11.026l.149-.15h.149c.298.15 1.49.597 1.937.746l.447.149 3.129-4.321-.596-.298c-.447-.15-1.788-.596-2.384-.745h-.298l.149-.298c.298-.894.447-1.937.447-2.98 0-7.45-3.278-9.983-5.96-9.983-2.235 0-4.619 1.043-6.407 2.831-2.086 1.937-3.129 4.321-3.129 6.854 0 3.874 2.682 6.109 8.493 7.152l.596.149-.447.298c-3.874 2.98-14.303 7.151-20.859 9.833l-1.788.745 1.788.447c1.341.298 4.023.596 5.364.596Zm9.088-21.754c0-1.639 2.384-3.427 4.619-3.427 2.533 0 5.513 3.278 5.513 7.748 0 .447-.149.894-.298 1.49l-.149.298h-.298c-5.96-1.49-9.387-3.576-9.387-6.109Zm84.182 62.727-.596-6.258c.149 0 .447-.149.447-.447v-.745c0-1.49 0-3.129-.447-4.619v-.149c-.149-.149-.298-.447-.149-.596.447-.596.298-1.937 0-3.874-.149-.745-.149-1.49-.149-1.936v-.15c-1.192-7.3-2.98-21.306-3.576-29.5v-.15c-.745-2.681-1.788-7.151-2.235-9.982.596-1.192.298-1.788 0-2.384-.149-.447-.298-.745-.149-1.639 0-.298-.298-2.83-.446-3.576.297-.596 2.979-3.278 4.171-4.47 1.49-1.49 1.341-2.086.149-5.214-.596-1.49-1.192-2.831-1.937-4.47-1.192-2.682-2.533-5.364-3.128-8.046v-.149c-1.788-3.278-3.576-6.854-5.215-10.28-.596-1.193-.894-1.938-1.341-2.533h-.894c-.149.298-3.278 5.661-3.725 6.555-1.341 2.086-2.384 4.47-3.427 6.705-.447.894-.447 1.937-.298 2.98 4.768 16.687 7.748 42.612 10.132 63.62.596 5.066 1.192 9.983 1.639 14.304 1.192 4.917 1.192 10.132 1.192 15.793 0 4.47 0 9.089.596 13.857v5.364c.447 1.192-.149 4.619-.596 7.151-.596 3.129-.745 4.47-.298 4.917.149.149.298.298.447.298 2.235 0 3.724-3.278 4.916-6.258.447-.893.745-1.787 1.043-2.383.447-.745.596-1.937.596-3.278.149-.894.149-1.788.298-2.086 2.682-5.96 2.682-13.559 2.682-20.114 0-2.235 0-4.321.149-6.258.596.298.298 0 .149 0ZM120.686 16.389l.148-.149 1.341-4.32C114.13 14.9 85.97 24.882 75.54 28.309l-.298.149-1.043 4.47 1.043-.298c10.877-3.427 37.547-12.963 45.444-16.24ZM302.31 71.07c.447-1.788.745-3.426-.149-3.873-9.387-5.364-19.817-8.344-30.246-8.344-2.682 0-5.364.149-8.046.596l-.745.149c-5.513 1.192-11.174 2.533-16.389 5.364-.447.149-.894.298-1.341.596-.745.297-1.639.595-2.235 1.191-.745.15-1.341.597-1.937 1.044a2.055 2.055 0 0 1-.596.446c-1.788 1.043-5.513 4.172-5.662 4.321a5.286 5.286 0 0 0-1.341 1.64v.148c-.298.447-.447.894-.745 1.192-.149.298-.298.745-.596 1.043v.15c-.149.595-.447 1.34-.745 2.085-1.192 3.129-2.086 5.81-1.192 7.003l.149.149h.149l.894-.447c3.874-2.235 8.344-3.576 12.665-4.917l1.043-.298s.149 0 .149-.149c.298-.745 1.192-1.043 2.086-1.34a6.96 6.96 0 0 0 1.49-.746c1.788-.894 3.576-1.49 5.364-1.788.298 0 .595-.149.744-.149.298-.149.596-.149 1.043-.298h.149c1.788-.596 3.725-1.192 5.513-1.49h.298c.447 0 1.192-.149 1.788-.298.298-.149.596-.149.745-.149 1.341-.149 2.682-.298 4.023-.745.894.298 5.662.745 6.109.745 2.086 0 3.874.596 5.81 1.341 1.043.298 2.086.745 3.129.894l.596.15-.596.297s-.149 0-.149.15c-3.724 2.234-11.77 6.704-16.091 8.64-.447.299-.894.448-1.192.746-4.321 2.384-8.791 4.768-13.26 6.853-8.642 4.172-17.582 7.45-26.521 8.642-1.043.149-1.937.298-2.98.298-2.98.596-7.748 1.192-12.516 1.192h-1.937c-1.49 0-2.98.149-4.47.149-1.341 0-2.533.149-3.725.149-2.085 0-4.32-.149-5.512-1.341-1.192-1.192-1.043-3.725-.596-5.662.149-.447.447-1.043.745-1.787.447-1.192 1.043-2.831 1.341-3.874 1.043-4.023 2.384-9.09 4.916-10.877l.149-.149c0-.298.149-.447.298-.745v-.298c0-.149-.149-.149-.149-.298 0 0 0-.149-.149-.149h-.298c-.745.298-1.638.447-2.532.745-1.341.298-4.619 1.341-7.152 4.172-2.086 2.235-3.278 5.513-4.023 7.599-.447 1.043-.596 1.936-.894 2.383-.745 1.788-1.043 3.725-1.341 5.662 0 .298-.149.894-.298 1.49-.298 1.788-.745 4.619-.596 5.066.149.298 0 1.043 0 2.235 0 .745-.149 1.937 0 2.086.149.149.149.596.149.894v.298c.447.745.596 1.49.894 2.384.298 1.192 2.98 3.427 3.874 4.172l.149.149c1.341 1.192 2.682 1.49 4.321 1.937h2.235c1.192.298 2.086.298 2.831.298h.745s.298 0 1.34-.149c1.341-.149 3.725-.298 5.066-.447.596-.149 1.043-.149 1.341-.149.447-.149.894-.149 1.49-.149h1.341c.745 0 2.98-.298 5.811-.894 2.98-.447 6.556-1.192 9.089-1.788 1.936-.447 3.426-.745 3.873-1.043.596-.298 1.043-.447 1.49-.447h.745c1.788 0 5.811-1.341 7.599-2.086.298-.149.596-.149.745-.298 2.086-.745 4.321-1.49 6.407-2.682 2.086-1.341 4.023-2.235 6.407-2.682h.149c.596-.149 1.638-.894 2.383-1.341.447-.298.745-.447.894-.596.596-.298 2.98-1.937 4.321-2.831.745-.447.894-.596 1.043-.596h.149l13.261-7.45 3.427-1.936c.149 0 .149-.15.298-.15h.149c1.043 0 4.469-1.787 5.81-2.383.596-.298.745-.447.745-.447 1.49-.447 2.682-1.192 3.874-1.937.298-.15 1.937-1.043 2.98-1.64l1.192-.595c.745-.447 1.639-1.043 2.533-1.49 1.341-.596 3.576-2.235 3.874-2.533.298-.745 2.235-7.152 2.384-7.599-.149-.596 0-1.49.149-2.384Zm94.462-26.52c-5.513-15.198-8.94-23.989-10.28-26.224-.149-.149-.745-.149-.745 0-.447.894-1.639 2.831-2.831 5.066-1.639 3.129-4.023 7.45-5.066 9.387-.298.596 0 1.788.298 2.235 2.98 5.96 5.364 15.942 7.003 29.65 1.639 13.26 2.383 26.372 2.533 32.778v1.341c.148 4.023-.149 9.834-1.639 12.814 8.79-10.877 10.131-25.031 10.131-32.63-.149-7.45-1.341-16.836-3.576-28.458.447-.447 1.192-1.34 3.427-3.725.894-.596 1.043-1.49.745-2.235Zm-26.968 44.4c-2.384 2.682-4.917 5.662-7.152 8.492 0 0 0 .15-.149.15-.149.744-.894 1.191-1.49 1.638-.447.298-1.042.745-1.34 1.192-.298.596-1.937 2.235-4.768 3.129a7.264 7.264 0 0 0-1.043.447c-.596.298-1.043.447-1.937.447h-.149c-2.384.298-5.662-2.086-6.407-4.47-.447-1.192.149-2.533.596-3.874.745-1.638 1.341-3.278.298-4.916 0-.15-.149-.15-.298-.15s-.298 0-.298.15c-1.937 1.787-3.874 3.724-5.811 5.661-2.831 2.831-5.959 5.811-9.088 8.344-4.47 4.321-12.367 4.619-17.135.894h-.149c-1.639-.745-2.682-1.937-3.129-3.427-1.043-3.278 1.192-7.748 2.682-9.983v-.149c.149-1.191-.149-1.936-.745-2.085-.596-.15-1.341.149-2.086 1.192-.596.447-1.192 1.191-1.937 1.787-.596.597-1.191 1.341-1.787 1.788l-1.341 1.341c-.596.745-1.341 1.64-1.788 2.831l-.149.15c-2.235 3.575-2.98 7.896-2.384 12.217.149.894.298 1.788.596 2.682 1.49 4.47 4.47 7.896 8.492 9.684.149.149.447.149.596.298 1.192.596 2.235 1.043 3.427 1.043.298 0 .596.149 1.043.149h1.043c1.192 0 2.384-.149 3.576-.298h.745c.149-.149.298-.149.447-.149.149 0 .298 0 .447-.149l.149-.149c.596-.149 1.192-.447 1.937-.596.596-.298 1.192-.447 1.788-.745l1.788-.894c.596-.298 1.192-.596 1.639-1.043.596-.298 1.043-.745 1.639-1.192.596-.446 1.043-.744 1.49-1.191l1.341-1.341c.447-.447.894-.894 1.341-1.49.446-.447.744-1.043 1.191-1.639.149-.149.149-.298.298-.447.149-.149.298-.298.298-.447.149-.149.149-.298.298-.447 0 0 0-.149.149-.149 0 0 0-.149.149-.149v-.149c.149.149.149.447.149.596v1.192c.596 2.235 2.235 3.576 3.874 4.917.298.298.596.447.894.744h.149c3.129 1.49 6.258 1.49 9.387.298 5.811-2.234 9.982-8.492 12.068-13.26 2.98-7.748 7.152-11.473 8.046-14.453.149-1.34.149-2.83-1.043-4.022 0-.15-.298-.15-.447 0ZM39.037 60.939c1.788 1.788 3.575 3.427 5.96 4.619.297.148.297.446.595.595.15.15.298.447.447.447.894.299 1.788.448 2.384 1.342 0 .148.298.149.596.149 1.192.297 2.384.595 3.427-.298.149-.15.298 0 .447-.15 1.192-.894 4.172-3.277 5.066-4.47 1.192-1.49 2.682-2.98 4.023-4.47 2.682 3.875 6.109 6.855 10.43 8.642.297.448.893.746 1.34 1.043 1.192-1.937 2.533-3.873 4.023-5.661 1.043-1.341 2.235-2.533 3.427-3.725.596-1.192 1.192-2.384 1.937-3.427-.298-.15-.596-.298-.894-.596-.894-.596-1.639-1.341-2.384-1.937-.298-.298-.894-.447-1.192-.745-1.34-1.34-2.682-2.533-3.874-4.023-1.043-1.192-1.937-2.384-3.278-3.427-.745-.596-1.34-1.192-1.49-1.937-.596.15-1.043.15-1.49.298-.149 0-.297.15-.447.298-.447.745-.894 1.64-1.49 2.533-1.49.298-2.532 1.341-3.277 2.533-.745 1.341-1.937 2.235-2.98 3.427-.298.298-1.192 1.341-1.49 1.043-.894-1.043-2.682-2.533-4.023-2.98l-1.788-1.34c-1.043-.746-2.086-1.49-2.98-2.236-.894-.745-2.086-1.34-2.682-2.384-.298-.447-1.788.745-1.937.894-.447.894-1.043 1.49-1.937 1.937-.894.447-1.34 1.49-2.086 2.235-.894.894-2.83 3.874-3.873 4.619-.745.596-1.341 1.49-.894 2.682.298 1.639 1.192 3.129 2.383 4.47Zm33.523 23.69c.447-.15.745-.15 1.043-.15.596 0 1.043.15 1.788.448h.15c1.042 0 1.787.596 2.681 1.192.596.298 1.043.745 1.639 1.043h.298s.149-.15.149-.298v-.15c0-.148-.149-.595-.298-.744l-.149-.15h-.149v-.596c0-.148 0-.148-.149-.148l-.149-.15c-2.086-3.873-4.917-8.045-10.28-9.982-.746-.298-1.341-.298-1.938-.298-1.936 0-3.724 1.192-5.363 2.235-5.96 5.662-11.473 12.218-16.986 19.965-1.043 1.341-1.937 2.533-2.98 3.874-1.49 1.937-2.98 3.874-4.47 5.662-2.83 3.427-5.065 6.109-7.896 9.238 0 0-2.086 2.384-2.831 3.129-.149.149-.745.596-1.788 1.192-.596.447-1.34.744-1.639 1.042-.149 0-.149.149-.298.298-.298.149-.447.447-.745.596-.745.447-1.49 1.043-2.384 1.937l-.149.149c-.447.447-1.043 1.043-1.639 1.341-2.235 1.49-4.767 2.533-7.747 3.278-1.043.149-2.682.298-4.172.894-.298 0-.745.149-1.043.149-.596 0-1.192-.149-1.788-.298-.447-.149-1.043-.149-1.64-.149-.595 0-1.042.149-1.489.298-.149 0-.149.149-.149.298 1.192 3.129 3.576 4.619 6.258 5.811.298.149.447.149.596.298.447.149.894.447 1.34.596.448.149.448.298.746.298h.596c.149 0 .447.149.894.298s1.043.298 1.192.447h1.043c1.34.149 2.681.298 3.724.298 3.576 0 6.705-.745 9.834-2.533h.596c1.937-1.043 3.725-2.384 5.215-3.427.149-.149.298-.298.596-.447.447-.298.894-.596 1.192-.894.894-.596 1.788-1.49 2.682-2.533 1.192-1.341 1.937-2.086 3.427-2.831.149 0 .149 0 .297-.298.596-1.192 2.086-2.682 3.278-3.874.447-.447.894-.893 1.043-1.191.298-.298.447-.596.596-.745.298-.298.298-.447.894-.894 1.341-1.341 3.874-4.47 4.62-5.662.744-1.192.893-1.49 1.34-1.937.15-.149.298-.298.447-.596l.149-.149c.745-.894 1.192-1.49 1.788-2.533l4.917-5.811c1.937-2.235 4.172-4.768 6.109-7.45l.148-.148c.299-.299.447-.597.745-1.044l.745-.893c1.64-2.682 3.427-5.066 5.513-7.301Zm144.078 42.463-1.788 1.788c-5.96 6.109-12.516 11.026-19.667 15.943-3.278 3.277-7.003 5.661-11.324 7.449-8.642 4.768-18.028 7.897-27.266 11.473-2.533.894-4.47.298-5.811 2.831-.149-.149-.298-.298-.447-.298-4.171.447-10.131 1.341-13.409 3.874 4.47 5.214 13.111-4.023 17.73.298-1.788 1.788-4.321 2.235-6.556 3.426-1.34-.446-2.532.447-3.873.745-2.086.596-4.023 1.192-6.109 1.788-7.599.298-14.9 1.937-22.498 1.49-33.822-2.086-48.126-27.266-36.206-55.724.447-.745.745-1.49 1.192-2.234-.298-.745-1.192-.596-1.49 0-.149.298-.298.446-.447.595-11.174 19.37-15.197 44.699 5.513 59.747.596.298 1.49.596 1.937.894 2.533-1.341.745-1.639 4.768.149 11.174 5.215 25.478 5.513 38.291 3.576 1.043 0 1.788-.149 2.682-.149 1.192.298 2.384-.149 3.576-.447.447-.149 1.192-.149 1.639-.298h.149c3.427-.745 7.003-1.192 9.238-4.172 1.191.298 2.234.894 3.426 0 4.917-1.043 9.536-2.831 14.304-4.768 1.192-.149 1.639.894 2.98.745 17.134-6.853 33.524-16.985 45.294-30.841 0 0 .298-.149.596-.596.745-.745 1.341-1.341 1.937-2.235 2.384-3.427 4.619-6.854 6.407-10.579.894-1.788 1.639-3.576 2.384-5.215.745-3.129 1.192-6.257 1.341-9.833-.894 3.278-4.917 6.853-8.493 10.429.298 0 .149 0 0 .149Zm-43.208-88.8c0 7.3 2.234 13.558 6.555 17.73 4.321 4.32 10.43 6.556 17.731 6.556 4.171 0 11.77-5.215 16.836-8.642 1.341-.894 2.533-1.788 3.427-2.384l.149-.149v-1.639l-.298.15c-7.152 1.638-12.814 2.234-18.624 2.234-8.791 0-16.241-2.235-20.115-6.258-2.235-2.235-3.427-4.916-3.427-7.896 0-12.665 15.943-23.243 36.802-24.733h.149l2.235-7.301-.447-1.043h-.149c-3.576 0-6.705-.298-12.069-1.341-2.234-.447-4.171-.894-6.108-1.49C191.607 1.043 187.733 0 184.008 0c-6.258 0-9.536 3.874-10.429 12.367v.297l1.191.299.149-.298c1.639-4.768 5.96-4.62 10.579-4.023 2.98.298 6.258.894 9.685 1.639.596.149 1.192.298 1.788.298-14.751 5.363-23.541 15.644-23.541 27.713Zm44.847 1.639c-2.235 0-4.47-.15-6.556-.596h-.447v1.49l.149.148c3.278 2.086 11.92 6.11 15.943 6.11 5.065 0 9.684-2.683 13.111-7.45 3.278-4.62 5.215-10.728 5.215-16.986 0-5.662-1.043-11.174-2.831-15.197-2.086-4.768-5.066-7.152-8.493-7.152-3.129 0-6.258 1.937-8.492 5.513-2.086 3.278-3.278 7.45-3.278 11.472 0 8.642 5.214 11.622 9.833 11.622 1.788 0 7.748-.596 10.877-8.493a7.577 7.577 0 0 1 .596 2.98c.298 7.748-10.281 16.539-25.627 16.539Zm14.75-19.668c-3.725 0-7.747-1.639-7.747-4.172 0-4.022 4.469-6.704 6.704-6.704 3.874 0 7.599 2.83 9.834 7.598-2.235 2.235-5.364 3.278-8.791 3.278Zm27.713 26.67c10.281 0 18.327-11.174 18.327-25.329 0-6.705-2.086-13.707-6.258-21.306l-.149-.149h-1.49l-3.278 8.94.149.149c3.427 3.277 8.493 9.535 8.493 13.26 0 3.874-2.533 8.344-6.705 11.77-4.47 3.726-10.132 5.812-15.793 5.812-2.086 0-3.725 0-5.662-.298h-.298v1.639l.149.148c3.129 2.533 8.79 5.364 12.515 5.364Z" fill="#BE008D"></path></svg>