<svg xmlns="http://www.w3.org/2000/svg" width="16" height="11.25" viewBox="0 0 16 11.25">
  <path id="youtube-w" d="M-.772-9.49a2.01,2.01,0,0,0-1.415-1.424,47.509,47.509,0,0,0-6.251-.337,47.509,47.509,0,0,0-6.251.337A2.01,2.01,0,0,0-16.1-9.49a21.09,21.09,0,0,0-.334,3.876A21.09,21.09,0,0,0-16.1-1.737a1.98,1.98,0,0,0,1.415,1.4A47.509,47.509,0,0,0-8.438,0,47.509,47.509,0,0,0-2.186-.337a1.98,1.98,0,0,0,1.415-1.4A21.09,21.09,0,0,0-.438-5.614,21.09,21.09,0,0,0-.772-9.49Zm-9.3,6.255V-7.993l4.182,2.379Z" transform="translate(16.438 11.25)" fill="#fff"/>
</svg>
