<svg xmlns="http://www.w3.org/2000/svg" width="43.161" height="51.282" viewBox="0 0 43.161 51.282">
  <g id="number-icon3" transform="translate(-40.538)">
    <path id="Path_130143" data-name="Path 130143" d="M68.5,9.007a4.508,4.508,0,1,0-4.2-4.8A4.508,4.508,0,0,0,68.5,9.007ZM54.572,28.055a3.278,3.278,0,0,1-.722-.416l-2.926,6.345-2.191-1.01a1.7,1.7,0,0,0-2.256.832l-5.783,12.54a1.7,1.7,0,0,0,.832,2.256l.745.344A1.35,1.35,0,1,0,44.54,49.99l.745.344a1.7,1.7,0,0,0,2.256-.832l5.783-12.54a1.7,1.7,0,0,0-.583-2.112l3.017-6.543a3.264,3.264,0,0,1-1.187-.252Z" transform="translate(0 0)" fill="#076b40"/>
    <path id="Path_130144" data-name="Path 130144" d="M201.074,110.9l-6.11-1.538-2.759-3.179.056-.834a3.045,3.045,0,0,0-2.835-3.242l-5.419-.362a3.045,3.045,0,0,0-3.224,2.653l1.238-.356-5,2.672a2.057,2.057,0,0,0-.928,1.021l-3.226,7.715a2.057,2.057,0,0,0,3.8,1.587L179.6,110l4.355-2.326-3.195,2.7-.461,1.1-.582,8.7.029,0c0,.1.294,5.921.436,8.778l-4.809,10.372a2.468,2.468,0,0,0,4.479,2.077l5.065-10.924a2.467,2.467,0,0,0,.226-1.161l-.439-8.809,1.113.074,2.731,8.122,1.037,11.874a2.468,2.468,0,0,0,4.918-.429l-1.062-12.167a2.471,2.471,0,0,0-.119-.572l-2.176-6.471.068,0,.6-8.929.466.537a2.056,2.056,0,0,0,1.051.646l6.737,1.7a2.057,2.057,0,1,0,1-3.99Z" transform="translate(-118.93 -91.552)" fill="#076b40"/>
  </g>
</svg>
