<svg xmlns="http://www.w3.org/2000/svg" width="54.7" height="54.041" viewBox="0 0 54.7 54.041">
  <g id="number-icon2" transform="translate(0 -9.143)">
    <path id="Path_130145" data-name="Path 130145" d="M77.942,87.817a1.92,1.92,0,1,0,1.92,1.92A1.922,1.922,0,0,0,77.942,87.817Z" transform="translate(-67.909 -70.278)" fill="#076b40"/>
    <ellipse id="Ellipse_9948" data-name="Ellipse 9948" cx="4.176" cy="4.176" rx="4.176" ry="4.176" transform="translate(30.082 59.986) rotate(-67.48)" fill="#076b40"/>
    <path id="Path_130146" data-name="Path 130146" d="M28.048,57.716a7.488,7.488,0,0,1,.109-1.263H6.511a3.189,3.189,0,0,1,0-6.377H21.433a6.153,6.153,0,1,0,0-12.306H14.862l-1.973,3.3h8.544a2.855,2.855,0,1,1,0,5.71H6.511a6.487,6.487,0,1,0,0,12.974h21.82a7.445,7.445,0,0,1-.284-2.035ZM54.7,34.89a1.649,1.649,0,0,0-1.035-1.465L36.135,26.413a1.649,1.649,0,0,0-2.262,1.531V50.427a7.419,7.419,0,0,1,3.3,0V44.679l16.613-8.246A1.649,1.649,0,0,0,54.7,34.89ZM20.224,19.255A10.112,10.112,0,0,0,0,19.255V19.3a11.313,11.313,0,0,0,1.564,5.74l7.7,13.069a.9.9,0,0,0,1.555.005L18.62,25.062a11.312,11.312,0,0,0,1.6-5.807ZM10.032,24.676a5.218,5.218,0,1,1,5.218-5.218,5.224,5.224,0,0,1-5.218,5.218Z" fill="#076b40"/>
  </g>
</svg>
