<svg xmlns="http://www.w3.org/2000/svg" width="20.25" height="20.25" viewBox="0 0 20.25 20.25">
  <g id="activties-icon" transform="translate(-2.25 -1.5)">
    <g id="Group_126271" data-name="Group 126271">
      <path id="Path_130157" data-name="Path 130157" d="M15,3.75a.75.75,0,0,0,0-1.5H11.955c-1.837,0-3.276,0-4.419.124a5.819,5.819,0,0,0-2.916.974A5.75,5.75,0,0,0,3.348,4.62a5.819,5.819,0,0,0-.974,2.916c-.124,1.143-.124,2.582-.124,4.419v.09c0,1.837,0,3.276.124,4.418a5.822,5.822,0,0,0,.974,2.917A5.75,5.75,0,0,0,4.62,20.652a5.819,5.819,0,0,0,2.916.974c1.143.124,2.582.124,4.419.124h.09c1.837,0,3.276,0,4.419-.124a5.819,5.819,0,0,0,2.916-.974,5.749,5.749,0,0,0,1.272-1.272,5.819,5.819,0,0,0,.974-2.916c.124-1.143.124-2.582.124-4.419V9a.75.75,0,0,0-1.5,0v3c0,1.892,0,3.25-.115,4.3a4.37,4.37,0,0,1-.7,2.2,4.276,4.276,0,0,1-.94.94,4.35,4.35,0,0,1-2.2.7c-1.052.114-2.41.115-4.3.115s-3.25,0-4.3-.115a4.37,4.37,0,0,1-2.2-.7,4.25,4.25,0,0,1-.94-.94,4.35,4.35,0,0,1-.7-2.2c-.114-1.052-.115-2.41-.115-4.3s0-3.25.115-4.3a4.36,4.36,0,0,1,.7-2.2,4.276,4.276,0,0,1,.94-.94,4.35,4.35,0,0,1,2.2-.7c1.052-.114,2.41-.115,4.3-.115Z"/>
      <path id="Path_130158" data-name="Path 130158" d="M6.327,14.527a.75.75,0,0,0,1.346.66l1.46-2.977a1.192,1.192,0,0,1,2.173.074,2.691,2.691,0,0,0,4.907.166l1.46-2.977a.75.75,0,0,0-1.346-.66l-1.46,2.977a1.192,1.192,0,0,1-2.173-.074,2.691,2.691,0,0,0-4.907-.166Z"/>
      <path id="Path_130159" data-name="Path 130159" d="M17.5,4A2.5,2.5,0,1,0,20,1.5,2.5,2.5,0,0,0,17.5,4ZM19,4a1,1,0,1,0,1-1A1,1,0,0,0,19,4Z" fill-rule="evenodd"/>
    </g>
  </g>
</svg>
