<svg xmlns="http://www.w3.org/2000/svg" width="14.342" height="20.615" viewBox="0 0 14.342 20.615">
  <g id="adventure" transform="translate(-3.895)">
    <circle id="Ellipse_9943" data-name="Ellipse 9943" cx="1.874" cy="1.874" r="1.874" transform="translate(10.215 0)" fill="#076b40"/>
    <path id="Path_130117" data-name="Path 130117" d="M9.933,6.3c.07-.476.438-.762.708-.686l1.955.545c.269.077.361.7.285.972l-1.611,6.614c-.079.272-.241.406-.51.329L9.44,13.79A2.309,2.309,0,0,1,8.6,11.1L9.933,6.3ZM8.256,13.9l-.335,2.342s-.862,2.047-1.454,3.249c-.448.911-.659,1.567-.351,1.732.472.251,1.108-.312,1.773-1.349,1.115-1.74,1.69-2.609,1.9-3.032l.337-1.1S8.474,14.645,8.256,13.9Z" transform="translate(-0.436 -1.177)" fill="#076b40"/>
    <path id="Path_130118" data-name="Path 130118" d="M15.033,15.014l-2.609-2.591a1.013,1.013,0,0,0-1.442.193c-.416.409-1.229.8-.819,1.213l3.319,2.794-.367,3.58c-.027.883.025,1.4.586,1.454.524.055.754-1.035.809-1.311,0,0,.671-3.429.752-3.913a1.607,1.607,0,0,0-.228-1.42Zm3.155-7.683-1.967.925L13.743,6.448a.882.882,0,1,0-1.032,1.431l2.672,1.935a1.01,1.01,0,0,0,.92.153s1.835-1.115,2.327-1.435c.516-.338,1.055-.782.856-1.155-.283-.536-.8-.287-1.3-.045Z" transform="translate(-1.293 -1.319)" fill="#076b40"/>
    <path id="Path_130119" data-name="Path 130119" d="M20.268,6.373v15.01" transform="translate(-3.439 -1.338)" fill="none" stroke="#076b40" stroke-linecap="round" stroke-linejoin="round" stroke-miterlimit="10" stroke-width="1.142"/>
    <path id="Path_130120" data-name="Path 130120" d="M8.576,6.1S7.4,9.742,7.226,10.32a1.235,1.235,0,0,1-1.674.713c-.876-.268-1.785-.635-1.643-1.659A7.888,7.888,0,0,1,6.033,5.824c.914-.952,3-1.283,2.544.279Z" transform="translate(0 -1.055)" fill="#076b40"/>
  </g>
</svg>
