<svg id="Brandmark" xmlns="http://www.w3.org/2000/svg" width="214.121" height="49.695" viewBox="0 0 214.121 49.695">
  <g id="Group_126014" data-name="Group 126014">
    <g id="Group_126009" data-name="Group 126009">
      <g id="Group_126006" data-name="Group 126006" transform="translate(25.01 32.647)">
        <path id="Path_130008" data-name="Path 130008" d="M89.5,67.005a.12.12,0,0,1-.113-.083l-1.337-2.765h-1.73c-.038,0-.053.015-.053.053v2.7c0,.06-.03.091-.1.091h-.355c-.06,0-.1-.03-.1-.091V60.721a.08.08,0,0,1,.091-.091h2.145a2.057,2.057,0,0,1,1.428.468A1.647,1.647,0,0,1,89.9,62.39a1.745,1.745,0,0,1-.34,1.1,1.7,1.7,0,0,1-.959.589l1.39,2.825a.1.1,0,0,1,.015.076.068.068,0,0,1-.06.03H89.5Zm-1.548-3.361a1.533,1.533,0,0,0,1.05-.325,1.381,1.381,0,0,0,0-1.866,1.507,1.507,0,0,0-1.05-.325H86.332c-.038,0-.053.015-.053.053v2.4c0,.038.015.053.053.053h1.624Z" transform="translate(-59.033 -60.524)" fill="#88774f"/>
        <path id="Path_130009" data-name="Path 130009" d="M95.3,67.066a2.224,2.224,0,0,1-1.307-.363,2.034,2.034,0,0,1-.755-1.073,2.066,2.066,0,0,1-.083-.279c-.023-.106-.038-.227-.053-.363s-.03-.31-.038-.5-.015-.431-.015-.7.008-.506.015-.7.023-.363.038-.5.038-.264.053-.363a1.511,1.511,0,0,1,.083-.279,2.094,2.094,0,0,1,.755-1.073A2.24,2.24,0,0,1,95.3,60.51a2.215,2.215,0,0,1,1.3.363,2.034,2.034,0,0,1,.755,1.073c.023.091.053.181.076.279a3,3,0,0,1,.06.363c.015.144.03.31.038.5s.015.423.015.695-.008.514-.015.7-.023.363-.038.5a3,3,0,0,1-.06.363c-.023.106-.053.2-.076.279A2.1,2.1,0,0,1,96.6,66.7,2.165,2.165,0,0,1,95.3,67.066ZM97,63.781c0-.257-.008-.476-.015-.665s-.023-.347-.03-.476a2.429,2.429,0,0,0-.053-.325c-.023-.091-.045-.166-.06-.227a1.645,1.645,0,0,0-3.089,0c-.015.06-.038.136-.06.227a2.654,2.654,0,0,0-.053.325c-.015.128-.023.287-.03.476s-.015.408-.015.665.008.476.015.665.023.347.03.476a2.428,2.428,0,0,0,.053.325c.023.091.045.166.06.227a1.645,1.645,0,0,0,3.089,0c.015-.06.038-.136.06-.227a2.654,2.654,0,0,0,.053-.325c.015-.128.023-.287.03-.476S97,64.038,97,63.781Z" transform="translate(-60.826 -60.495)" fill="#88774f"/>
        <path id="Path_130010" data-name="Path 130010" d="M102.047,67.005c-.06,0-.1-.03-.1-.091v-2.53l-1.911-3.656a.058.058,0,0,1,.008-.068.074.074,0,0,1,.068-.03h.363a.163.163,0,0,1,.144.091l1.609,3.052h.03l1.579-3.052a.148.148,0,0,1,.144-.091h.355a.08.08,0,0,1,.076.03.057.057,0,0,1,0,.068L102.5,64.384v2.523c0,.06-.03.091-.1.091h-.355Z" transform="translate(-62.534 -60.524)" fill="#88774f"/>
        <path id="Path_130011" data-name="Path 130011" d="M108.054,60.711a.107.107,0,0,1,.113-.091h.34a.118.118,0,0,1,.113.091l2.213,6.194c.015.06,0,.091-.068.091H110.4c-.068,0-.113-.03-.121-.091l-.567-1.564h-2.78L106.37,66.9a.127.127,0,0,1-.121.091h-.363q-.091,0-.068-.091Zm1.48,4.1-1.193-3.331h-.03l-1.2,3.331Z" transform="translate(-63.949 -60.522)" fill="#88774f"/>
        <path id="Path_130012" data-name="Path 130012" d="M114.18,60.711c0-.06.03-.091.1-.091h.355c.06,0,.1.03.1.091v5.726c0,.038.015.053.053.053h3.15a.08.08,0,0,1,.091.091V66.9a.08.08,0,0,1-.091.091h-3.656c-.06,0-.1-.03-.1-.091Z" transform="translate(-65.996 -60.522)" fill="#88774f"/>
        <path id="Path_130013" data-name="Path 130013" d="M124.046,65.634c-.023-.083-.045-.174-.068-.264a3.171,3.171,0,0,1-.053-.363c-.015-.144-.023-.317-.03-.514s-.015-.438-.015-.718.008-.521.015-.718.023-.37.03-.514a3.17,3.17,0,0,1,.053-.363c.023-.1.045-.189.068-.264a2.088,2.088,0,0,1,.748-1.073,2.186,2.186,0,0,1,1.269-.355,2.229,2.229,0,0,1,1.156.295,1.93,1.93,0,0,1,.77.884c.023.053.015.1-.03.121l-.31.151c-.053.03-.091.015-.121-.038a1.873,1.873,0,0,0-.567-.665,1.522,1.522,0,0,0-.9-.249,1.6,1.6,0,0,0-.952.264,1.686,1.686,0,0,0-.551.793c-.015.06-.038.136-.053.227a2.806,2.806,0,0,0-.045.325c-.008.128-.023.287-.03.476s-.008.415-.008.687,0,.5.008.687.015.347.03.476.03.242.045.325.038.166.053.227a1.686,1.686,0,0,0,.551.793,1.545,1.545,0,0,0,.952.264,1.522,1.522,0,0,0,.9-.249,1.81,1.81,0,0,0,.567-.665c.03-.053.068-.068.121-.038l.31.151c.045.023.053.068.03.121a1.93,1.93,0,0,1-.77.884,2.229,2.229,0,0,1-1.156.295,2.186,2.186,0,0,1-1.269-.355A1.887,1.887,0,0,1,124.046,65.634Z" transform="translate(-68.369 -60.49)" fill="#88774f"/>
        <path id="Path_130014" data-name="Path 130014" d="M133.121,67.066a2.224,2.224,0,0,1-1.307-.363,2.034,2.034,0,0,1-.755-1.073,2.066,2.066,0,0,1-.083-.279c-.023-.106-.038-.227-.053-.363s-.03-.31-.038-.5-.015-.431-.015-.7.008-.506.015-.7.023-.363.038-.5.038-.264.053-.363a1.511,1.511,0,0,1,.083-.279,2.094,2.094,0,0,1,.755-1.073,2.24,2.24,0,0,1,1.307-.363,2.215,2.215,0,0,1,1.3.363,2.034,2.034,0,0,1,.755,1.073c.023.091.053.181.076.279a3,3,0,0,1,.06.363c.015.144.03.31.038.5s.015.431.015.7-.008.514-.015.7-.023.363-.038.5a3,3,0,0,1-.06.363c-.023.1-.053.2-.076.279a2.1,2.1,0,0,1-.755,1.073A2.216,2.216,0,0,1,133.121,67.066Zm1.7-3.286c0-.257-.008-.476-.015-.665s-.023-.347-.03-.476a2.428,2.428,0,0,0-.053-.325c-.023-.091-.045-.166-.06-.227a1.645,1.645,0,0,0-3.089,0c-.015.06-.038.136-.06.227a2.654,2.654,0,0,0-.053.325c-.015.128-.023.287-.03.476s-.015.408-.015.665.008.476.015.665.023.347.03.476a2.426,2.426,0,0,0,.053.325c.023.091.045.166.06.227a1.645,1.645,0,0,0,3.089,0c.015-.06.038-.136.06-.227a2.657,2.657,0,0,0,.053-.325c.015-.128.023-.287.03-.476S134.82,64.038,134.82,63.781Z" transform="translate(-70.079 -60.495)" fill="#88774f"/>
        <path id="Path_130015" data-name="Path 130015" d="M138.858,60.711c0-.06.03-.091.1-.091h.363a.142.142,0,0,1,.144.091l2.07,4.57h.038l2.024-4.57a.132.132,0,0,1,.136-.091h.37c.06,0,.1.03.1.091V66.9c0,.06-.03.091-.1.091h-.355c-.06,0-.1-.03-.1-.091V61.912h-.03l-1.836,4.041a.237.237,0,0,1-.06.083.2.2,0,0,1-.106.023h-.189a.164.164,0,0,1-.159-.106l-1.836-4.041h-.03V66.9c0,.06-.03.091-.1.091h-.355c-.06,0-.1-.03-.1-.091V60.711Z" transform="translate(-72.031 -60.522)" fill="#88774f"/>
        <path id="Path_130016" data-name="Path 130016" d="M148.218,60.711c0-.06.03-.091.1-.091h.363a.142.142,0,0,1,.144.091l2.07,4.57h.038l2.024-4.57a.132.132,0,0,1,.136-.091h.37c.06,0,.1.03.1.091V66.9c0,.06-.03.091-.1.091H153.1c-.06,0-.1-.03-.1-.091V61.912h-.03l-1.836,4.041a.237.237,0,0,1-.06.083.2.2,0,0,1-.106.023h-.189a.164.164,0,0,1-.159-.106l-1.835-4.041h-.03V66.9c0,.06-.03.091-.1.091h-.355c-.06,0-.1-.03-.1-.091V60.711Z" transform="translate(-74.321 -60.522)" fill="#88774f"/>
        <path id="Path_130017" data-name="Path 130017" d="M157.57,60.711c0-.06.03-.091.1-.091h.355c.06,0,.1.03.1.091V66.9c0,.06-.03.091-.1.091h-.355c-.06,0-.1-.03-.1-.091Z" transform="translate(-76.611 -60.522)" fill="#88774f"/>
        <path id="Path_130018" data-name="Path 130018" d="M162.352,67.066a3.442,3.442,0,0,1-.619-.06,3.773,3.773,0,0,1-.589-.166,3.137,3.137,0,0,1-.506-.242,2.857,2.857,0,0,1-.4-.279c-.053-.045-.053-.091-.008-.128l.227-.279c.045-.053.091-.053.128-.008a3.852,3.852,0,0,0,.793.453,2.608,2.608,0,0,0,1.035.2,1.888,1.888,0,0,0,1.209-.355,1.144,1.144,0,0,0,.438-.944,1.187,1.187,0,0,0-.076-.438.977.977,0,0,0-.249-.363,1.445,1.445,0,0,0-.468-.272,3.3,3.3,0,0,0-.733-.166l-.295-.038a2.437,2.437,0,0,1-1.39-.551A1.491,1.491,0,0,1,160.4,62.3a1.655,1.655,0,0,1,.544-1.314,2.151,2.151,0,0,1,1.465-.476,3.416,3.416,0,0,1,1.012.144,2.6,2.6,0,0,1,.808.393c.053.03.06.076.015.128l-.189.287a.082.082,0,0,1-.128.015,3.572,3.572,0,0,0-.755-.355,2.71,2.71,0,0,0-.786-.121,1.554,1.554,0,0,0-1.065.34,1.168,1.168,0,0,0-.378.906,1.045,1.045,0,0,0,.34.8,2.132,2.132,0,0,0,1.156.415l.287.038a2.5,2.5,0,0,1,1.42.567,1.548,1.548,0,0,1,.446,1.148,1.823,1.823,0,0,1-.144.74,1.651,1.651,0,0,1-.431.589,1.966,1.966,0,0,1-.7.385A3.062,3.062,0,0,1,162.352,67.066Z" transform="translate(-77.253 -60.495)" fill="#88774f"/>
        <path id="Path_130019" data-name="Path 130019" d="M169.792,67.066a3.442,3.442,0,0,1-.619-.06,3.773,3.773,0,0,1-.589-.166,3.137,3.137,0,0,1-.506-.242,2.857,2.857,0,0,1-.4-.279c-.053-.045-.053-.091-.008-.128l.227-.279c.045-.053.091-.053.128-.008a3.852,3.852,0,0,0,.793.453,2.608,2.608,0,0,0,1.035.2,1.888,1.888,0,0,0,1.209-.355,1.144,1.144,0,0,0,.438-.944,1.187,1.187,0,0,0-.076-.438.976.976,0,0,0-.249-.363,1.445,1.445,0,0,0-.468-.272,3.3,3.3,0,0,0-.733-.166l-.295-.038a2.437,2.437,0,0,1-1.39-.551,1.491,1.491,0,0,1-.453-1.133,1.655,1.655,0,0,1,.544-1.314,2.151,2.151,0,0,1,1.465-.476,3.416,3.416,0,0,1,1.012.144,2.6,2.6,0,0,1,.808.393c.053.03.06.076.015.128l-.189.287a.082.082,0,0,1-.128.015,3.572,3.572,0,0,0-.755-.355,2.711,2.711,0,0,0-.786-.121,1.554,1.554,0,0,0-1.065.34,1.168,1.168,0,0,0-.378.906,1.045,1.045,0,0,0,.34.8,2.132,2.132,0,0,0,1.156.415l.287.038a2.5,2.5,0,0,1,1.42.567,1.548,1.548,0,0,1,.446,1.148,1.823,1.823,0,0,1-.144.74,1.651,1.651,0,0,1-.431.589,1.966,1.966,0,0,1-.7.385A3.062,3.062,0,0,1,169.792,67.066Z" transform="translate(-79.073 -60.495)" fill="#88774f"/>
        <path id="Path_130020" data-name="Path 130020" d="M175.4,60.711c0-.06.03-.091.1-.091h.355c.06,0,.1.03.1.091V66.9c0,.06-.03.091-.1.091H175.5c-.06,0-.1-.03-.1-.091Z" transform="translate(-80.973 -60.522)" fill="#88774f"/>
        <path id="Path_130021" data-name="Path 130021" d="M180.4,67.066a2.224,2.224,0,0,1-1.307-.363,2.034,2.034,0,0,1-.755-1.073,2.068,2.068,0,0,1-.083-.279c-.023-.106-.038-.227-.053-.363s-.03-.31-.038-.5-.015-.431-.015-.7.008-.506.015-.7.023-.363.038-.5.038-.264.053-.363a1.511,1.511,0,0,1,.083-.279,2.1,2.1,0,0,1,.755-1.073,2.24,2.24,0,0,1,1.307-.363,2.215,2.215,0,0,1,1.3.363,2.033,2.033,0,0,1,.755,1.073c.023.091.053.181.076.279a3,3,0,0,1,.06.363c.015.144.03.31.038.5s.015.431.015.7-.008.514-.015.7-.023.363-.038.5a3,3,0,0,1-.06.363c-.023.106-.053.2-.076.279A2.094,2.094,0,0,1,181.7,66.7,2.215,2.215,0,0,1,180.4,67.066Zm1.7-3.286c0-.257-.008-.476-.015-.665s-.023-.347-.03-.476a2.426,2.426,0,0,0-.053-.325c-.023-.091-.045-.166-.06-.227a1.645,1.645,0,0,0-3.089,0c-.015.06-.038.136-.06.227a2.657,2.657,0,0,0-.053.325c-.015.128-.023.287-.03.476s-.015.408-.015.665.008.476.015.665.023.347.03.476a2.426,2.426,0,0,0,.053.325c.023.091.045.166.06.227a1.645,1.645,0,0,0,3.089,0c.015-.06.038-.136.06-.227a2.651,2.651,0,0,0,.053-.325c.015-.128.023-.287.03-.476S182.1,64.038,182.1,63.781Z" transform="translate(-81.646 -60.495)" fill="#88774f"/>
        <path id="Path_130022" data-name="Path 130022" d="M186.14,60.711c0-.06.03-.091.1-.091h.355a.162.162,0,0,1,.159.091l3.173,5.242h.03V60.711c0-.06.03-.091.1-.091h.355c.06,0,.1.03.1.091V66.9a.08.08,0,0,1-.091.091h-.363a.178.178,0,0,1-.159-.091l-3.15-5.257h-.038V66.9c0,.06-.03.091-.1.091h-.355c-.06,0-.1-.03-.1-.091V60.711Z" transform="translate(-83.6 -60.522)" fill="#88774f"/>
        <path id="Path_130023" data-name="Path 130023" d="M197.7,60.711c0-.06.03-.091.1-.091h3.656a.08.08,0,0,1,.091.091v.317a.08.08,0,0,1-.091.091H198.3c-.038,0-.053.015-.053.053v2.334c0,.038.015.053.053.053h2.712a.08.08,0,0,1,.091.091v.317a.08.08,0,0,1-.091.091H198.3c-.038,0-.053.015-.053.053v2.765c0,.06-.03.091-.1.091H197.8c-.06,0-.1-.03-.1-.091V60.711Z" transform="translate(-86.428 -60.522)" fill="#88774f"/>
        <path id="Path_130024" data-name="Path 130024" d="M206.391,67.066a2.224,2.224,0,0,1-1.307-.363,2.034,2.034,0,0,1-.755-1.073,2.068,2.068,0,0,1-.083-.279c-.023-.106-.038-.227-.053-.363s-.03-.31-.038-.5-.015-.431-.015-.7.008-.506.015-.7.023-.363.038-.5.038-.264.053-.363a1.511,1.511,0,0,1,.083-.279,2.094,2.094,0,0,1,.755-1.073,2.24,2.24,0,0,1,1.307-.363,2.215,2.215,0,0,1,1.3.363,2.033,2.033,0,0,1,.755,1.073c.023.091.053.181.076.279a3.008,3.008,0,0,1,.06.363c.015.144.03.31.038.5s.015.431.015.7-.008.514-.015.7-.023.363-.038.5a3.008,3.008,0,0,1-.06.363c-.023.106-.053.2-.076.279a2.094,2.094,0,0,1-.755,1.073A2.215,2.215,0,0,1,206.391,67.066Zm1.7-3.286c0-.257-.008-.476-.015-.665s-.023-.347-.03-.476a2.425,2.425,0,0,0-.053-.325c-.023-.091-.045-.166-.06-.227a1.645,1.645,0,0,0-3.089,0c-.015.06-.038.136-.06.227a2.651,2.651,0,0,0-.053.325c-.015.128-.023.287-.03.476s-.015.408-.015.665.008.476.015.665.023.347.03.476a2.423,2.423,0,0,0,.053.325c.023.091.045.166.06.227a1.645,1.645,0,0,0,3.089,0c.015-.06.038-.136.06-.227a2.653,2.653,0,0,0,.053-.325c.015-.128.023-.287.03-.476S208.09,64.038,208.09,63.781Z" transform="translate(-88.004 -60.495)" fill="#88774f"/>
        <path id="Path_130025" data-name="Path 130025" d="M215.9,67.005a.12.12,0,0,1-.113-.083l-1.337-2.765h-1.73c-.038,0-.053.015-.053.053v2.7c0,.06-.03.091-.1.091h-.355c-.06,0-.1-.03-.1-.091V60.721a.08.08,0,0,1,.091-.091h2.145a2.057,2.057,0,0,1,1.428.468,1.647,1.647,0,0,1,.514,1.292,1.745,1.745,0,0,1-.34,1.1,1.7,1.7,0,0,1-.959.589l1.39,2.825a.1.1,0,0,1,.015.076.068.068,0,0,1-.06.03H215.9Zm-1.556-3.361a1.533,1.533,0,0,0,1.05-.325,1.381,1.381,0,0,0,0-1.866,1.507,1.507,0,0,0-1.05-.325h-1.624c-.038,0-.053.015-.053.053v2.4c0,.038.015.053.053.053h1.624Z" transform="translate(-89.956 -60.524)" fill="#88774f"/>
        <path id="Path_130026" data-name="Path 130026" d="M50.4,74.581c0-.06.03-.091.1-.091h.363a.142.142,0,0,1,.144.091l2.07,4.57h.038l2.024-4.57a.132.132,0,0,1,.136-.091h.37c.06,0,.1.03.1.091v6.194c0,.06-.03.091-.1.091h-.355c-.06,0-.1-.03-.1-.091V75.782h-.03l-1.836,4.041a.237.237,0,0,1-.06.083.2.2,0,0,1-.106.023h-.189a.164.164,0,0,1-.159-.106l-1.836-4.041h-.03v4.993c0,.06-.03.091-.1.091h-.355c-.06,0-.1-.03-.1-.091V74.581Z" transform="translate(-50.39 -63.915)" fill="#88774f"/>
        <path id="Path_130027" data-name="Path 130027" d="M61.414,74.581a.107.107,0,0,1,.113-.091h.34a.118.118,0,0,1,.113.091l2.213,6.194c.015.06,0,.091-.068.091h-.363c-.068,0-.113-.03-.121-.091l-.567-1.564H60.3l-.567,1.564a.127.127,0,0,1-.121.091h-.363q-.091,0-.068-.091Zm1.48,4.1L61.7,75.351h-.03l-1.2,3.331Z" transform="translate(-52.539 -63.915)" fill="#88774f"/>
        <path id="Path_130028" data-name="Path 130028" d="M67.525,74.581c0-.06.03-.091.1-.091h.355c.06,0,.1.03.1.091v3.679l3.037-3.686a.235.235,0,0,1,.159-.083h.438c.03,0,.053.008.06.03a.065.065,0,0,1-.023.068L69.731,77l2.175,3.762a.1.1,0,0,1,.015.076.068.068,0,0,1-.06.03h-.423a.181.181,0,0,1-.144-.083l-1.926-3.346-1.307,1.556v1.783c0,.06-.03.091-.1.091h-.355c-.06,0-.1-.03-.1-.091V74.581Z" transform="translate(-54.578 -63.915)" fill="#88774f"/>
        <path id="Path_130029" data-name="Path 130029" d="M75.1,74.581c0-.06.03-.091.1-.091h.355c.06,0,.1.03.1.091v3.679l3.037-3.686a.235.235,0,0,1,.159-.083h.438c.03,0,.053.008.06.03a.065.065,0,0,1-.023.068L77.3,77l2.175,3.762a.1.1,0,0,1,.015.076.068.068,0,0,1-.06.03h-.423a.181.181,0,0,1-.144-.083l-1.926-3.346-1.307,1.556v1.783c0,.06-.03.091-.1.091h-.355c-.06,0-.1-.03-.1-.091V74.581Z" transform="translate(-56.43 -63.915)" fill="#88774f"/>
        <path id="Path_130030" data-name="Path 130030" d="M84.524,74.581a.107.107,0,0,1,.113-.091h.34a.118.118,0,0,1,.113.091L87.3,80.775c.015.06,0,.091-.068.091h-.363c-.068,0-.113-.03-.121-.091l-.567-1.564h-2.78l-.567,1.564a.127.127,0,0,1-.121.091h-.363q-.091,0-.068-.091Zm1.48,4.1-1.193-3.331h-.03l-1.2,3.331Z" transform="translate(-58.193 -63.915)" fill="#88774f"/>
        <path id="Path_130031" data-name="Path 130031" d="M90.648,74.581c0-.06.03-.091.1-.091H91.1c.06,0,.1.03.1.091v2.742c0,.038.015.053.053.053h3.142c.038,0,.053-.015.053-.053V74.581c0-.06.03-.091.1-.091H94.9c.06,0,.1.03.1.091v6.194c0,.06-.03.091-.1.091h-.363c-.06,0-.1-.03-.1-.091V77.942c0-.038-.015-.053-.053-.053H91.244c-.038,0-.053.015-.053.053v2.833c0,.06-.03.091-.1.091h-.355c-.06,0-.1-.03-.1-.091V74.581Z" transform="translate(-60.237 -63.915)" fill="#88774f"/>
        <path id="Path_130032" data-name="Path 130032" d="M102.006,79.5c-.023-.083-.045-.174-.068-.264a3.169,3.169,0,0,1-.053-.363c-.015-.144-.023-.317-.03-.514s-.015-.438-.015-.718.008-.521.015-.718.023-.37.03-.514a3.169,3.169,0,0,1,.053-.363c.023-.1.045-.189.068-.264a2.088,2.088,0,0,1,.748-1.073,2.186,2.186,0,0,1,1.269-.355,2.229,2.229,0,0,1,1.156.295,1.93,1.93,0,0,1,.77.884c.023.053.015.1-.03.121l-.31.151c-.053.03-.091.015-.121-.038a1.873,1.873,0,0,0-.567-.665,1.522,1.522,0,0,0-.9-.249,1.6,1.6,0,0,0-.952.264,1.686,1.686,0,0,0-.551.793c-.015.06-.038.136-.053.227a2.806,2.806,0,0,0-.045.325c-.015.128-.023.287-.03.476s-.008.415-.008.687,0,.5.008.687.015.347.03.476.03.242.045.325.038.166.053.227a1.686,1.686,0,0,0,.551.793,1.545,1.545,0,0,0,.952.264,1.522,1.522,0,0,0,.9-.249,1.81,1.81,0,0,0,.567-.665c.03-.053.068-.068.121-.038l.31.151c.045.023.053.068.03.121a1.93,1.93,0,0,1-.77.884,2.229,2.229,0,0,1-1.156.295,2.186,2.186,0,0,1-1.269-.355A1.887,1.887,0,0,1,102.006,79.5Z" transform="translate(-62.977 -63.883)" fill="#88774f"/>
        <path id="Path_130033" data-name="Path 130033" d="M109.14,74.581c0-.06.03-.091.1-.091h.355c.06,0,.1.03.1.091v6.194c0,.06-.03.091-.1.091h-.355c-.06,0-.1-.03-.1-.091Z" transform="translate(-64.763 -63.915)" fill="#88774f"/>
        <path id="Path_130034" data-name="Path 130034" d="M113.607,80.868c-.06,0-.1-.03-.1-.091V75.051c0-.038-.015-.053-.053-.053h-1.836a.08.08,0,0,1-.091-.091v-.317a.08.08,0,0,1,.091-.091h4.336a.08.08,0,0,1,.091.091v.317a.08.08,0,0,1-.091.091h-1.836c-.038,0-.053.015-.053.053v5.726c0,.06-.03.091-.1.091Z" transform="translate(-65.347 -63.917)" fill="#88774f"/>
        <path id="Path_130035" data-name="Path 130035" d="M120.757,80.868c-.06,0-.1-.03-.1-.091V78.254L118.747,74.6a.058.058,0,0,1,.008-.068.074.074,0,0,1,.068-.03h.363a.163.163,0,0,1,.144.091l1.609,3.052h.03l1.579-3.052a.148.148,0,0,1,.144-.091h.355a.08.08,0,0,1,.076.03.057.057,0,0,1,0,.068l-1.911,3.656v2.523c0,.06-.03.091-.1.091Z" transform="translate(-67.111 -63.917)" fill="#88774f"/>
        <path id="Path_130036" data-name="Path 130036" d="M130.934,74.581a.107.107,0,0,1,.113-.091h.34a.118.118,0,0,1,.113.091l2.213,6.194c.015.06,0,.091-.068.091h-.363c-.068,0-.113-.03-.121-.091l-.567-1.564h-2.78l-.567,1.564a.127.127,0,0,1-.121.091h-.363q-.091,0-.068-.091Zm1.48,4.1-1.193-3.331h-.03l-1.2,3.331Z" transform="translate(-69.547 -63.915)" fill="#88774f"/>
        <path id="Path_130037" data-name="Path 130037" d="M137.06,74.581c0-.06.03-.091.1-.091h.355a.162.162,0,0,1,.159.091l3.173,5.242h.03V74.581c0-.06.03-.091.1-.091h.355c.06,0,.1.03.1.091v6.194a.08.08,0,0,1-.091.091h-.363a.178.178,0,0,1-.159-.091l-3.15-5.257h-.038v5.257c0,.06-.03.091-.1.091h-.355c-.06,0-.1-.03-.1-.091V74.581Z" transform="translate(-71.593 -63.915)" fill="#88774f"/>
        <path id="Path_130038" data-name="Path 130038" d="M145.12,74.581a.08.08,0,0,1,.091-.091h2a1.9,1.9,0,0,1,2.039,1.292c.03.091.06.189.083.287a3.177,3.177,0,0,1,.053.363,4.71,4.71,0,0,1,.03.514c.008.2.008.446.008.733s0,.536-.008.74-.015.363-.03.506-.038.264-.053.363a2.152,2.152,0,0,1-.083.295,1.892,1.892,0,0,1-2.039,1.292h-2a.08.08,0,0,1-.091-.091Zm.544,5.726c0,.038.015.053.053.053h1.42a2.058,2.058,0,0,0,1.02-.227,1.286,1.286,0,0,0,.574-.74c.023-.076.045-.159.068-.242a2.8,2.8,0,0,0,.045-.325c.015-.128.023-.287.03-.468s.008-.408.008-.68,0-.5-.008-.68-.015-.34-.03-.468-.03-.234-.045-.325a1.129,1.129,0,0,0-.068-.242,1.24,1.24,0,0,0-.574-.733,2.039,2.039,0,0,0-1.02-.227h-1.42c-.038,0-.053.015-.053.053Z" transform="translate(-73.565 -63.915)" fill="#88774f"/>
        <path id="Path_130039" data-name="Path 130039" d="M156.3,74.581c0-.06.03-.091.1-.091h.355c.06,0,.1.03.1.091v2.742c0,.038.015.053.053.053h3.142c.038,0,.053-.015.053-.053V74.581c0-.06.03-.091.1-.091h.355c.06,0,.1.03.1.091v6.194c0,.06-.03.091-.1.091H160.2c-.06,0-.1-.03-.1-.091V77.942c0-.038-.015-.053-.053-.053H156.9c-.038,0-.053.015-.053.053v2.833c0,.06-.03.091-.1.091H156.4c-.06,0-.1-.03-.1-.091Z" transform="translate(-76.3 -63.915)" fill="#88774f"/>
        <path id="Path_130040" data-name="Path 130040" d="M166.331,80.936a2.224,2.224,0,0,1-1.307-.363,2.034,2.034,0,0,1-.755-1.073,2.067,2.067,0,0,1-.083-.279c-.023-.106-.038-.227-.053-.363s-.03-.31-.038-.5-.015-.431-.015-.7.008-.506.015-.7.023-.363.038-.5.038-.264.053-.363a1.51,1.51,0,0,1,.083-.279,2.094,2.094,0,0,1,.755-1.073,2.186,2.186,0,0,1,1.307-.363,2.215,2.215,0,0,1,1.3.363,2.033,2.033,0,0,1,.755,1.073c.023.091.053.181.076.279a3,3,0,0,1,.06.363c.015.144.03.31.038.5s.015.431.015.7-.008.514-.015.7-.023.363-.038.5a3,3,0,0,1-.06.363c-.023.106-.053.2-.076.279a2.094,2.094,0,0,1-.755,1.073A2.215,2.215,0,0,1,166.331,80.936Zm1.7-3.286c0-.257-.008-.476-.015-.665s-.023-.347-.03-.476a2.428,2.428,0,0,0-.053-.325c-.023-.091-.045-.166-.06-.227a1.645,1.645,0,0,0-3.089,0c-.015.06-.038.136-.06.227a2.651,2.651,0,0,0-.053.325c-.015.128-.023.287-.03.476s-.015.408-.015.665.008.476.015.665.023.347.03.476a2.423,2.423,0,0,0,.053.325c.023.091.045.166.06.227a1.645,1.645,0,0,0,3.089,0c.015-.06.038-.136.06-.227a2.653,2.653,0,0,0,.053-.325c.015-.128.023-.287.03-.476S168.031,77.908,168.031,77.651Z" transform="translate(-78.203 -63.888)" fill="#88774f"/>
        <path id="Path_130041" data-name="Path 130041" d="M172.07,74.581c0-.06.03-.091.1-.091h.355c.06,0,.1.03.1.091v5.726c0,.038.015.053.053.053h3.15a.08.08,0,0,1,.091.091v.317a.08.08,0,0,1-.091.091h-3.656c-.06,0-.1-.03-.1-.091V74.581Z" transform="translate(-80.158 -63.915)" fill="#88774f"/>
        <path id="Path_130042" data-name="Path 130042" d="M179.137,80.868c-.06,0-.1-.03-.1-.091V78.254L177.127,74.6a.057.057,0,0,1,.008-.068.074.074,0,0,1,.068-.03h.363a.163.163,0,0,1,.144.091l1.609,3.052h.03l1.579-3.052a.148.148,0,0,1,.144-.091h.355a.08.08,0,0,1,.076.03.057.057,0,0,1,0,.068l-1.911,3.656v2.523c0,.06-.03.091-.1.091Z" transform="translate(-81.393 -63.917)" fill="#88774f"/>
        <path id="Path_130043" data-name="Path 130043" d="M189.6,80.936a3.442,3.442,0,0,1-.619-.06,3.772,3.772,0,0,1-.589-.166,3.138,3.138,0,0,1-.506-.242,2.857,2.857,0,0,1-.4-.279c-.053-.045-.053-.091-.008-.128l.227-.279c.045-.053.091-.053.128-.008a3.852,3.852,0,0,0,.793.453,2.608,2.608,0,0,0,1.035.2,1.888,1.888,0,0,0,1.209-.355,1.144,1.144,0,0,0,.438-.944,1.187,1.187,0,0,0-.076-.438.977.977,0,0,0-.249-.363,1.445,1.445,0,0,0-.468-.272,3.3,3.3,0,0,0-.733-.166l-.287-.038a2.437,2.437,0,0,1-1.39-.551,1.491,1.491,0,0,1-.453-1.133,1.655,1.655,0,0,1,.544-1.314,2.151,2.151,0,0,1,1.465-.476,3.416,3.416,0,0,1,1.012.144,2.6,2.6,0,0,1,.808.393c.053.03.06.076.015.128l-.189.287a.082.082,0,0,1-.128.015,3.572,3.572,0,0,0-.755-.355,2.711,2.711,0,0,0-.786-.121,1.555,1.555,0,0,0-1.065.34,1.168,1.168,0,0,0-.378.906,1.045,1.045,0,0,0,.34.8,2.132,2.132,0,0,0,1.156.415l.287.038a2.5,2.5,0,0,1,1.42.567,1.548,1.548,0,0,1,.446,1.148,1.823,1.823,0,0,1-.144.74,1.651,1.651,0,0,1-.431.589,1.966,1.966,0,0,1-.7.385A3.112,3.112,0,0,1,189.6,80.936Z" transform="translate(-83.92 -63.888)" fill="#88774f"/>
        <path id="Path_130044" data-name="Path 130044" d="M195.21,74.581c0-.06.03-.091.1-.091h.355c.06,0,.1.03.1.091v6.194c0,.06-.03.091-.1.091h-.355c-.06,0-.1-.03-.1-.091Z" transform="translate(-85.819 -63.915)" fill="#88774f"/>
        <path id="Path_130045" data-name="Path 130045" d="M199.677,80.868c-.06,0-.1-.03-.1-.091V75.051c0-.038-.015-.053-.053-.053h-1.836a.08.08,0,0,1-.091-.091v-.317a.08.08,0,0,1,.091-.091h4.336a.08.08,0,0,1,.091.091v.317a.08.08,0,0,1-.091.091h-1.836c-.038,0-.053.015-.053.053v5.726c0,.06-.03.091-.1.091Z" transform="translate(-86.404 -63.917)" fill="#88774f"/>
        <path id="Path_130046" data-name="Path 130046" d="M205.23,74.581c0-.06.03-.091.1-.091h3.656a.08.08,0,0,1,.091.091V74.9a.08.08,0,0,1-.091.091h-3.15c-.038,0-.053.015-.053.053v2.274c0,.038.015.053.053.053h2.712a.08.08,0,0,1,.091.091v.317a.08.08,0,0,1-.091.091h-2.712c-.038,0-.053.015-.053.053v2.364c0,.038.015.053.053.053h3.15a.08.08,0,0,1,.091.091v.317a.08.08,0,0,1-.091.091h-3.656c-.06,0-.1-.03-.1-.091Z" transform="translate(-88.271 -63.915)" fill="#88774f"/>
        <path id="Path_130047" data-name="Path 130047" d="M214.1,80.936a3.442,3.442,0,0,1-.619-.06,3.772,3.772,0,0,1-.589-.166,3.137,3.137,0,0,1-.506-.242,2.858,2.858,0,0,1-.4-.279c-.053-.045-.053-.091-.008-.128l.227-.279c.045-.053.091-.053.128-.008a3.852,3.852,0,0,0,.793.453,2.608,2.608,0,0,0,1.035.2,1.888,1.888,0,0,0,1.209-.355,1.144,1.144,0,0,0,.438-.944,1.187,1.187,0,0,0-.076-.438.977.977,0,0,0-.249-.363,1.445,1.445,0,0,0-.468-.272,3.3,3.3,0,0,0-.733-.166L214,77.855a2.437,2.437,0,0,1-1.39-.551,1.491,1.491,0,0,1-.453-1.133,1.655,1.655,0,0,1,.544-1.314,2.151,2.151,0,0,1,1.465-.476,3.416,3.416,0,0,1,1.012.144,2.6,2.6,0,0,1,.808.393c.053.03.06.076.015.128l-.189.287a.082.082,0,0,1-.128.015,3.573,3.573,0,0,0-.755-.355,2.711,2.711,0,0,0-.786-.121,1.555,1.555,0,0,0-1.065.34,1.168,1.168,0,0,0-.378.906,1.045,1.045,0,0,0,.34.8,2.132,2.132,0,0,0,1.156.415l.287.038a2.5,2.5,0,0,1,1.42.567,1.548,1.548,0,0,1,.446,1.148,1.823,1.823,0,0,1-.144.74,1.651,1.651,0,0,1-.431.589,1.966,1.966,0,0,1-.7.385A3.078,3.078,0,0,1,214.1,80.936Z" transform="translate(-89.914 -63.888)" fill="#88774f"/>
      </g>
      <g id="Group_126008" data-name="Group 126008">
        <g id="Group_126007" data-name="Group 126007">
          <path id="Path_130048" data-name="Path 130048" d="M22.106,18.37a.862.862,0,0,0-.854.854.853.853,0,0,0,.854.854.854.854,0,1,0,0-1.707Zm-2.1,0a.856.856,0,0,0-.846.854.837.837,0,0,0,.846.854.854.854,0,1,0,0-1.707Z" transform="translate(-17.74 -17.539)" fill="#00080c"/>
          <path id="Path_130049" data-name="Path 130049" d="M37.823,20.526a3.123,3.123,0,0,0-3.407,3.18,2.164,2.164,0,0,0,.725,1.873,2.759,2.759,0,0,0-.725-.091H32.823a4.756,4.756,0,0,0-2.9-4.57l3.2-1.934V17.27l-5.189,3.256v1.269a3.613,3.613,0,0,1,3.2,3.694H23.509V20.979a8.548,8.548,0,0,0-2.749-.453,3.149,3.149,0,0,0-3.46,3.286c0,1.866.959,3.044,3.5,3.044H40.784V23.539A2.681,2.681,0,0,0,37.823,20.526ZM21.832,25.5h-.838c-1.375,0-1.964-.642-1.964-1.836a1.574,1.574,0,0,1,1.556-1.768,3.187,3.187,0,0,1,1.246.234V25.5Zm17.26,0h-1c-1.36,0-1.964-.6-1.964-1.836a1.574,1.574,0,0,1,1.556-1.768c.876,0,1.4.551,1.4,1.866V25.5Z" transform="translate(-17.285 -17.27)" fill="#00080c"/>
          <path id="Path_130050" data-name="Path 130050" d="M58.973,18.37a.862.862,0,0,0-.854.854.848.848,0,0,0,.854.854.854.854,0,1,0,0-1.707Zm-2.1,0a.862.862,0,0,0-.854.854.854.854,0,1,0,.854-.854Z" transform="translate(-26.757 -17.539)" fill="#00080c"/>
          <path id="Path_130051" data-name="Path 130051" d="M70.909,18.36a.9.9,0,1,0,.906.9A.916.916,0,0,0,70.909,18.36Z" transform="translate(-30.18 -17.537)" fill="#00080c"/>
          <path id="Path_130052" data-name="Path 130052" d="M77.443,31.23a.85.85,0,1,0,0,1.7.85.85,0,1,0,0-1.7Zm-2.1,0a.85.85,0,1,0,0,1.7.85.85,0,1,0,0-1.7Z" transform="translate(-31.276 -20.685)" fill="#00080c"/>
          <path id="Path_130053" data-name="Path 130053" d="M70.6,21.756v4.8H67.9v-4.8h-1.73v4.8H60.379V22.043a8.548,8.548,0,0,0-2.75-.453,3.149,3.149,0,0,0-3.46,3.286c0,1.866.959,3.044,3.5,3.044H72.336V21.756H70.6Zm-11.9,4.8h-.838c-1.375,0-1.964-.642-1.964-1.836a1.574,1.574,0,0,1,1.556-1.768,3.187,3.187,0,0,1,1.246.234v3.369Z" transform="translate(-26.305 -18.327)" fill="#00080c"/>
          <path id="Path_130054" data-name="Path 130054" d="M96.655,17.73v7.878H94.261V23.66A2.681,2.681,0,0,0,91.3,20.646a3.123,3.123,0,0,0-3.407,3.18c0,1.352-.506,1.783-1.3,1.783h-.627c-.159-2.923-1.662-4.4-4.366-5.114l-.415,1.443A3.6,3.6,0,0,1,84.275,25.6H80.4v1.367h6.383c1.1,0,1.624-.408,1.866-1.012.461.6,1.05,1.012,2.931,1.012h6.813V17.73Zm-4.079,7.878h-1c-1.36,0-1.964-.6-1.964-1.836a1.574,1.574,0,0,1,1.556-1.768c.876,0,1.4.551,1.4,1.866Z" transform="translate(-32.722 -17.383)" fill="#00080c"/>
          <path id="Path_130055" data-name="Path 130055" d="M115.076,18.37a.856.856,0,0,0-.846.854.846.846,0,0,0,.846.854.854.854,0,1,0,0-1.707Zm-2.1,0a.856.856,0,0,0-.846.854.837.837,0,0,0,.846.854.854.854,0,1,0,0-1.707Z" transform="translate(-40.484 -17.539)" fill="#00080c"/>
          <path id="Path_130056" data-name="Path 130056" d="M125.214,31.23a.85.85,0,1,0,0,1.7.85.85,0,0,0,0-1.7Zm2.1,0a.85.85,0,1,0,0,1.7.85.85,0,0,0,0-1.7Z" transform="translate(-43.476 -20.685)" fill="#00080c"/>
          <path id="Path_130057" data-name="Path 130057" d="M145.392,17.62V25.5h-2.4V23.549a2.681,2.681,0,0,0-2.961-3.014,3.127,3.127,0,0,0-3.407,3.18c0,1.352-.514,1.783-1.3,1.783h-1.246V17.62h-1.73V25.5h-2.138a4.756,4.756,0,0,0-2.9-4.57l3.2-1.934V17.28l-5.189,3.256V21.8a3.614,3.614,0,0,1,3.2,3.694h-4.842V20.7h-1.73v4.8h-5.476V20.989a8.548,8.548,0,0,0-2.749-.453,3.149,3.149,0,0,0-3.46,3.286c0,1.866.959,3.044,3.5,3.044H135.5c1.1,0,1.624-.408,1.866-1.012.453.6,1.042,1.012,2.931,1.012h6.813V17.62ZM114.8,25.5h-.838c-1.375,0-1.964-.642-1.964-1.836a1.574,1.574,0,0,1,1.556-1.768,3.187,3.187,0,0,1,1.246.234Zm26.5,0h-1c-1.367,0-1.964-.6-1.964-1.836a1.574,1.574,0,0,1,1.556-1.768c.876,0,1.4.551,1.4,1.866V25.5Z" transform="translate(-40.027 -17.272)" fill="#00080c"/>
          <path id="Path_130058" data-name="Path 130058" d="M161.83,17.73h1.73v9.238h-1.73Z" transform="translate(-52.643 -17.383)" fill="#00080c"/>
          <path id="Path_130059" data-name="Path 130059" d="M175,18.37a.862.862,0,0,0-.854.854.848.848,0,0,0,.854.854.862.862,0,0,0,.854-.854A.873.873,0,0,0,175,18.37Zm-2.1,0a.862.862,0,0,0-.854.854.854.854,0,1,0,.854-.854Z" transform="translate(-55.143 -17.539)" fill="#00080c"/>
          <path id="Path_130060" data-name="Path 130060" d="M186.893,19.143c-.733,0-.944-.181-.944-.483,0-.249.2-.446.642-.446a4.317,4.317,0,0,1,.71.076l.166-.914a4.587,4.587,0,0,0-.77-.076c-1.375,0-1.926.7-1.926,1.352a.654.654,0,0,0,.332.574,3.759,3.759,0,0,0-.793-.076v.944h3.384v-.944h-.8Z" transform="translate(-58.143 -17.277)" fill="#00080c"/>
          <path id="Path_130061" data-name="Path 130061" d="M193.093,31.23a.85.85,0,1,0,0,1.7.85.85,0,1,0,0-1.7Zm-2.1,0a.85.85,0,1,0,0,1.7.85.85,0,1,0,0-1.7Z" transform="translate(-59.569 -20.685)" fill="#00080c"/>
          <path id="Path_130062" data-name="Path 130062" d="M200.6,17.73v7.878h-2.1v-.038c0-3.83-1.866-5.386-5.136-5.386a11.085,11.085,0,0,0-3.188.514l.166,1.352a9.432,9.432,0,0,1,2.8-.514c2.591,0,3.7,1.2,3.7,3.92v.159H195.53v-.3c0-1.48-.657-2.765-2.41-2.765a2.228,2.228,0,0,0-2.515,2.206,1.43,1.43,0,0,0,.317.929,3.115,3.115,0,0,0-.589-.06h-2.3v-4.8h-1.73v4.8h-2.7v-4.8h-1.73v4.8H176.4V21.114a8.567,8.567,0,0,0-2.757-.453,3.153,3.153,0,0,0-3.46,3.286c0,1.866.959,3.044,3.5,3.044h28.636V17.73Zm-25.871,7.878h-.838c-1.382,0-1.964-.642-1.964-1.836a1.574,1.574,0,0,1,1.556-1.768,3.187,3.187,0,0,1,1.246.234Zm19.39.053h-.861c-.672,0-1.246-.295-1.246-1.035a.875.875,0,0,1,.982-.891c.77,0,1.133.536,1.133,1.548v.378Z" transform="translate(-54.686 -17.383)" fill="#00080c"/>
          <path id="Path_130063" data-name="Path 130063" d="M215.51,17.73h1.73v9.238h-1.73Z" transform="translate(-65.776 -17.383)" fill="#00080c"/>
          <path id="Path_130064" data-name="Path 130064" d="M22.086,37.42a.85.85,0,1,0,.854.846A.861.861,0,0,0,22.086,37.42Zm-2.1,0a.854.854,0,0,0-.846.846.85.85,0,1,0,.846-.846Z" transform="translate(-17.735 -22.2)" fill="#00080c"/>
          <path id="Path_130065" data-name="Path 130065" d="M34.955,40.16l-1.692.234a16.058,16.058,0,0,1,.385,3.512c0,.408-.023,1.042-.076,1.571h-.355c-1.209,0-1.556-.211-1.556-1.246V40.946H30v2.961c0,1.269-.385,1.677-1.065,1.677-.77,0-.906-.514-.906-1.692V41.467H26.3v2.387c0,1.284-.332,1.624-1.178,1.624H23.489V40.968a8.424,8.424,0,0,0-2.749-.461A3.151,3.151,0,0,0,17.28,43.8c0,1.866.959,3.037,3.5,3.037h4.328a1.659,1.659,0,0,0,1.745-.914,1.747,1.747,0,0,0,1.76,1.02,2.06,2.06,0,0,0,1.979-1.012c.385.725,1.08.906,2.455.906H35.2a25.559,25.559,0,0,0,.181-3.052A16.511,16.511,0,0,0,34.955,40.16ZM21.812,45.485h-.838c-1.375,0-1.964-.642-1.964-1.836a1.57,1.57,0,0,1,1.556-1.768,3.187,3.187,0,0,1,1.246.234Z" transform="translate(-17.28 -22.87)" fill="#00080c"/>
          <path id="Path_130066" data-name="Path 130066" d="M55.264,37.42a.861.861,0,0,0-.854.846.854.854,0,1,0,.854-.846Zm2.092,0a.861.861,0,0,0-.854.846.848.848,0,0,0,.854.854.85.85,0,1,0,0-1.7Z" transform="translate(-26.364 -22.2)" fill="#00080c"/>
          <path id="Path_130067" data-name="Path 130067" d="M67.509,36.78v7.878H65.115V42.7a2.684,2.684,0,0,0-2.961-3.014,3.129,3.129,0,0,0-3.407,3.188c0,1.352-.506,1.783-1.3,1.783h-.453c-.461,0-1.012.06-1.012.06a2.641,2.641,0,0,0,.755-1.979A2.744,2.744,0,0,0,53.7,39.688a3.161,3.161,0,0,0-3.339,3.263,2.432,2.432,0,0,0,.619,1.768,6.38,6.38,0,0,0-.816-.06H48.845c-.159-2.923-1.662-4.4-4.366-5.114l-.415,1.443a3.6,3.6,0,0,1,3.089,3.671H43.27v1.36H57.637c1.1,0,1.624-.4,1.866-1.012.461.6,1.05,1.012,2.931,1.012h6.813V36.78ZM53.543,44.658c-.959,0-1.443-.619-1.443-1.851s.725-1.752,1.473-1.752c.982,0,1.435.627,1.435,1.775C55.008,44.047,54.374,44.658,53.543,44.658Zm9.88,0h-1c-1.36,0-1.964-.6-1.964-1.836a1.57,1.57,0,0,1,1.556-1.768c.876,0,1.4.551,1.4,1.858Z" transform="translate(-23.638 -22.043)" fill="#00080c"/>
          <path id="Path_130068" data-name="Path 130068" d="M80.43,36.78h1.73v9.238H80.43Z" transform="translate(-32.729 -22.043)" fill="#00080c"/>
          <path id="Path_130069" data-name="Path 130069" d="M100.037,45.6v1.36H92.106v.053c0,1.677-.574,3.278-3.24,3.278a4.739,4.739,0,0,1-1.1-.128L87.9,48.78a3.678,3.678,0,0,0,1.065.159c.891,0,1.413-.423,1.413-1.836V40.8h1.73v4.8h3.2a2.28,2.28,0,0,1-1.012-1.956c0-1.624,1.11-3.014,3.422-3.014a5.613,5.613,0,0,1,1.624.249l-.3,1.375a3.587,3.587,0,0,0-1.36-.279,1.568,1.568,0,0,0-1.654,1.662c0,1.11.906,1.956,2.984,1.956h1.035Z" transform="translate(-34.525 -22.985)" fill="#00080c"/>
          <path id="Path_130070" data-name="Path 130070" d="M116.134,36.945a.854.854,0,1,0,.854.854A.862.862,0,0,0,116.134,36.945Zm1.088-1.715a.854.854,0,1,0,.854.854A.853.853,0,0,0,117.221,35.23Zm1.08,1.715a.854.854,0,0,0,0,1.707.854.854,0,0,0,0-1.707Z" transform="translate(-41.255 -21.664)" fill="#00080c"/>
          <path id="Path_130071" data-name="Path 130071" d="M130.773,36.78v7.878h-2.4V42.7a2.684,2.684,0,0,0-2.961-3.014A3.129,3.129,0,0,0,122,42.876c0,1.352-.506,1.783-1.3,1.783h-1.186c.038-.582.053-1.163.053-1.692a16.207,16.207,0,0,0-.423-3.633l-1.692.234a16.058,16.058,0,0,1,.385,3.512c0,.408-.023,1.042-.076,1.571h-.355c-1.2,0-1.556-.211-1.556-1.246V40.119h-1.662V43.08c0,1.269-.385,1.677-1.065,1.677-.77,0-.906-.514-.906-1.692V40.64h-1.73v2.387c0,1.284-.325,1.624-1.178,1.624H107.69V36.78h-1.73v9.238H109.3a1.659,1.659,0,0,0,1.745-.914,1.747,1.747,0,0,0,1.76,1.02,2.06,2.06,0,0,0,1.979-1.012c.385.725,1.08.906,2.455.906h3.671c1.1,0,1.624-.4,1.858-1.012.461.6,1.05,1.012,2.931,1.012h6.813V36.78Zm-4.086,7.878h-1c-1.36,0-1.964-.6-1.964-1.836a1.57,1.57,0,0,1,1.556-1.768c.876,0,1.4.551,1.4,1.858v1.745Z" transform="translate(-38.975 -22.043)" fill="#00080c"/>
          <path id="Path_130072" data-name="Path 130072" d="M143.87,36.78h1.73v9.238h-1.73Z" transform="translate(-48.249 -22.043)" fill="#00080c"/>
          <path id="Path_130073" data-name="Path 130073" d="M148.573,50.087l.106-1.413a11.162,11.162,0,0,0,2.047.219c1.36,0,2.266-.514,2.266-1.745v-.2h-1.035c-2.546,0-3.5-1.178-3.5-3.037a3.153,3.153,0,0,1,3.46-3.286,8.424,8.424,0,0,1,2.749.461v5.9c0,1.805-1.178,3.278-4.1,3.278A14.237,14.237,0,0,1,148.573,50.087Zm4.419-7.863a3.187,3.187,0,0,0-1.246-.234,1.574,1.574,0,0,0-1.556,1.768c0,1.193.589,1.836,1.964,1.836h.838Z" transform="translate(-49.372 -22.985)" fill="#00080c"/>
          <path id="Path_130074" data-name="Path 130074" d="M167.536,37.42a.85.85,0,1,0,.854.846A.861.861,0,0,0,167.536,37.42Zm-2.1,0a.854.854,0,0,0-.846.846.85.85,0,1,0,.846-.846Z" transform="translate(-53.318 -22.2)" fill="#00080c"/>
          <path id="Path_130075" data-name="Path 130075" d="M174.516,40.63a3.129,3.129,0,0,0-3.407,3.188,2.148,2.148,0,0,0,.725,1.866,2.925,2.925,0,0,0-.725-.083h-2.16V41.091a8.424,8.424,0,0,0-2.749-.461,3.151,3.151,0,0,0-3.46,3.293c0,1.866.959,3.037,3.5,3.037h11.247V43.644A2.69,2.69,0,0,0,174.516,40.63Zm-7.251,4.97h-.838c-1.375,0-1.964-.642-1.964-1.836A1.57,1.57,0,0,1,166.018,42a3.187,3.187,0,0,1,1.246.234Zm8.52,0h-1c-1.36,0-1.964-.6-1.964-1.836A1.57,1.57,0,0,1,174.38,42c.876,0,1.4.551,1.4,1.858V45.6Z" transform="translate(-52.866 -22.985)" fill="#00080c"/>
          <path id="Path_130076" data-name="Path 130076" d="M203.541,36.67v7.878h-2.394V42.592a2.684,2.684,0,0,0-2.961-3.014,3.129,3.129,0,0,0-3.407,3.188c0,1.352-.506,1.783-1.3,1.783h-.68a4.767,4.767,0,0,0-2.9-4.577l3.2-1.926V36.33l-5.2,3.248v1.269a3.616,3.616,0,0,1,3.2,3.7h-4.525v-4.8h-1.73v6.3c0,1.413-.529,1.836-1.42,1.836a3.719,3.719,0,0,1-1.065-.159l-.128,1.382a4.79,4.79,0,0,0,1.1.128c2.659,0,3.24-1.6,3.24-3.278v-.053h7.078c1.1,0,1.624-.4,1.866-1.012.461.6,1.05,1.012,2.931,1.012h6.813V36.67Zm-4.087,7.878h-1c-1.36,0-1.964-.6-1.964-1.836a1.575,1.575,0,0,1,1.564-1.768c.876,0,1.4.551,1.4,1.858v1.745Z" transform="translate(-57.636 -21.933)" fill="#00080c"/>
          <path id="Path_130077" data-name="Path 130077" d="M215.51,36.78h1.73v9.238h-1.73Z" transform="translate(-65.776 -22.043)" fill="#00080c"/>
        </g>
      </g>
    </g>
    <g id="Group_126013" data-name="Group 126013" transform="translate(164.509 0.008)">
      <g id="Group_126011" data-name="Group 126011">
        <g id="Group_126010" data-name="Group 126010">
          <rect id="Rectangle_13401" data-name="Rectangle 13401" width="2.614" height="2.614" transform="translate(36.552 41.771)" fill="#00080c"/>
          <rect id="Rectangle_13402" data-name="Rectangle 13402" width="2.614" height="2.614" transform="translate(36.552 46.991)" fill="#00080c"/>
          <path id="Path_130078" data-name="Path 130078" d="M250.736,65.66V76.1h-2.614V70.88H235.07v7.833h33.938V70.88H255.956V76.1h-2.614V68.274h20.886V65.66Zm-5.22,10.447h-7.833V73.5h7.833Zm13.053-2.614H266.4V76.1h-7.833Z" transform="translate(-235.07 -29.116)" fill="#00080c"/>
          <rect id="Rectangle_13403" data-name="Rectangle 13403" width="2.614" height="2.614" transform="translate(41.771 10.439)" fill="#00080c"/>
          <rect id="Rectangle_13404" data-name="Rectangle 13404" width="2.614" height="2.614" transform="translate(46.998 10.439)" fill="#00080c"/>
          <path id="Path_130079" data-name="Path 130079" d="M288.69,36.32V49.38h5.219v2.606h-7.833V31.1H283.47V54.6h10.439v2.606H288.69V70.258h7.833V36.32Zm5.219,31.332H291.3V59.819h2.613Zm0-20.886H291.3V38.933h2.613Z" transform="translate(-246.911 -20.661)" fill="#00080c"/>
          <rect id="Rectangle_13405" data-name="Rectangle 13405" width="2.614" height="2.614" transform="translate(10.447 5.22)" fill="#00080c"/>
          <rect id="Rectangle_13406" data-name="Rectangle 13406" width="2.614" height="2.614" transform="translate(10.447)" fill="#00080c"/>
          <path id="Path_130080" data-name="Path 130080" d="M254.12,17.28v7.833h13.053v-5.22h2.614v7.825H248.9v2.614h23.492V19.894h2.614v5.22h13.053V17.28Zm10.447,5.22h-7.833V19.894h7.833Zm20.886,0h-7.833V19.894h7.833Z" transform="translate(-238.453 -17.28)" fill="#00080c"/>
          <rect id="Rectangle_13407" data-name="Rectangle 13407" width="2.614" height="2.614" transform="translate(5.227 36.544)" fill="#00080c"/>
          <rect id="Rectangle_13408" data-name="Rectangle 13408" width="2.614" height="2.614" transform="translate(0.008 36.544)" fill="#00080c"/>
          <path id="Path_130081" data-name="Path 130081" d="M237.684,32.939V30.333h5.22V17.28H235.07V51.218H242.9V38.166h-5.22V35.56h7.833V56.445h2.606V32.939Zm0-13.045H240.3v7.825h-2.614ZM240.3,40.772V48.6h-2.614V40.772Z" transform="translate(-235.07 -17.28)" fill="#00080c"/>
        </g>
      </g>
      <g id="Group_126012" data-name="Group 126012" transform="translate(15.681 16.844)">
        <path id="Path_130082" data-name="Path 130082" d="M269.788,44.452a5.425,5.425,0,0,1,.468,1.715,9.469,9.469,0,0,0-2.221-2.077c.068.091.136.189.2.287a4.5,4.5,0,0,1,.166,3.709,10.668,10.668,0,0,0-1.209-3.1c-.128-.212-.257-.415-.4-.619l.2,4.932a.561.561,0,0,1-.544.491.555.555,0,0,1-.544-.491l.2-4.925a6.551,6.551,0,0,0-.4.612,10.668,10.668,0,0,0-1.209,3.1,4.532,4.532,0,0,1,.166-3.709c.06-.1.128-.2.2-.287a9.618,9.618,0,0,0-2.221,2.077,4.122,4.122,0,0,1,1.6-3.059,3.239,3.239,0,0,1,1.08-.431v-.038a6.312,6.312,0,0,0-.65.068,9.839,9.839,0,0,0-2.719.823,4.006,4.006,0,0,1,2.583-1.82,2.4,2.4,0,0,1,.468-.023,9.252,9.252,0,0,0-1.82-.695,3.956,3.956,0,0,1,2.606.174,4.832,4.832,0,0,1,.657-1.586,4.832,4.832,0,0,1,.657,1.586,3.909,3.909,0,0,1,2.606-.174,9.254,9.254,0,0,0-1.82.695,2.4,2.4,0,0,1,.468.023,3.114,3.114,0,0,1,1.413.6,4.551,4.551,0,0,1,1.178,1.224,9.839,9.839,0,0,0-2.719-.823c-.219-.03-.431-.053-.65-.068v.038a3.239,3.239,0,0,1,1.08.431A3.133,3.133,0,0,1,269.788,44.452Z" transform="translate(-257.325 -39.58)" fill="#88774f"/>
        <path id="Path_130083" data-name="Path 130083" d="M274.087,50.358a4.728,4.728,0,0,0-2.991.665l-5.3,3.24,2.13,1.3.295-.483c-.008,0-.015-.008-.023-.008a.505.505,0,1,1,.695-.166l-.559.914.279.174.635.385a.728.728,0,0,0,.68.053.717.717,0,0,1-.053.332.413.413,0,0,1-.06.113.742.742,0,0,1-1.027.249l-.914-.559-.295.483c.008,0,.015.008.023.008a.509.509,0,0,1,.166.695.5.5,0,0,1-.695.166.513.513,0,0,1-.166-.695l.559-.914-2.508-1.533-2.508,1.533.559.914a.505.505,0,1,1-.695-.166c.008,0,.015-.008.023-.015l-.295-.483-.914.559a.751.751,0,0,1-1.035-.249c-.023-.038-.038-.076-.06-.113a.852.852,0,0,1-.053-.332.743.743,0,0,0,.687-.053l.635-.385.287-.174-.559-.914a.505.505,0,1,1,.695.166c-.008,0-.015.008-.023.008l.295.483,2.13-1.3-5.3-3.24a4.729,4.729,0,0,0-2.991-.665,3.173,3.173,0,0,1,3.452-.083l5.688,3.475,5.688-3.475A3.166,3.166,0,0,1,274.087,50.358Z" transform="translate(-255.83 -42.08)" fill="#88774f"/>
      </g>
    </g>
  </g>
</svg>
