<svg id="feather-ico-fill" xmlns="http://www.w3.org/2000/svg" width="23.908" height="26" viewBox="0 0 23.908 26">
  <path id="Path_130127" data-name="Path 130127" d="M29.741,12.109a.76.76,0,0,0,.049-.972l-.706-.94,1.662.2a.759.759,0,0,0,.691-.287,27.584,27.584,0,0,0,4.639-8.645A.76.76,0,0,0,35.527.5a18.308,18.308,0,0,0-22.383,20.44.76.76,0,0,0,.141.341,32.127,32.127,0,0,1,2.707-6.028A31.34,31.34,0,0,1,23.939,6.1,23.458,23.458,0,0,1,33.987,1.487a.76.76,0,1,1,.265,1.5c-6.57,1.161-12.9,6.031-16.943,13.028a30.953,30.953,0,0,0-2.441,5.349A31.731,31.731,0,0,0,26.02,15.566,33.507,33.507,0,0,0,29.741,12.109Zm0,0" transform="translate(-12.203 0)" fill="#076b40"/>
  <path id="Path_130128" data-name="Path 130128" d="M1.708.407A.851.851,0,0,1,1.255.277C1.178.228,1.117.071,1.062,0A30.244,30.244,0,0,0,.015,3.845a.764.764,0,0,0,.644.89.868.868,0,0,0,.154.014.8.8,0,0,0,.8-.616A27.4,27.4,0,0,1,2.746.177q-.42.11-.843.208a.869.869,0,0,1-.195.022Zm0,0" transform="translate(0 21.258) rotate(-3)" fill="#076b40"/>
  <path id="Line_255" data-name="Line 255" d="M15,1.26H.255a1.005,1.005,0,0,1,0-2.01H15a1.005,1.005,0,0,1,0,2.01Z" transform="translate(3.618 24.608)" fill="#076b40"/>
</svg>
