<svg xmlns="http://www.w3.org/2000/svg" width="22.926" height="21.469" viewBox="0 0 22.926 21.469">
  <g id="Heritage" transform="translate(-634.37 -5634.266)">
    <path id="Path_130123" data-name="Path 130123" d="M657.113,5635.229v11.38l-22.671-.179v-11.737l3.258.536v3.392h3.347v3.124h3.08v2.946h3.615v-3.347h3.213v-3.213h3.079v-2.9Z" fill="#076b40"/>
    <path id="Path_130122" data-name="Path 130122" d="M4.66,6.3A8.182,8.182,0,0,1,5.8,6.39L5.792,6.4s.007.007.01.01c.142.156.049,1.049.055,1.27.019.633-.068,1.23-.111,1.856,0-.09,2.744,0,3.037.014a.355.355,0,0,1,.05,0,.206.206,0,0,0,.066,0,.414.414,0,0,0,.008.066.154.154,0,0,0,0,.02.138.138,0,0,1,.009.035,6.257,6.257,0,0,0,.029,1.368c.011.183,0,.363,0,.547A3.148,3.148,0,0,1,9,12.259a1.774,1.774,0,0,0-.075.393c.417.033.829-.046,1.247-.04.53.007,1.06.062,1.589.092.044,0,.09.008.137.007l.049,0-.005.01c.013-.006-.008.029.011.012l.014-.012a.191.191,0,0,0,.017.059s0,0,0,.019,0,.057.007.085l.01.179a1.011,1.011,0,0,1-.044.353c.009.631.017,1.258.026,1.894,0,.2-.056.461-.063.679l.048,0a34.829,34.829,0,0,1,4.827-.148c.022-.506.07-1.011.081-1.517a7.751,7.751,0,0,1,.059-1.462.219.219,0,0,0,.016-.063l.223-.019a16.884,16.884,0,0,1,2.592-.021,2.139,2.139,0,0,0,.251.014c.331-.048.011-2.685.011-3.039a.188.188,0,0,0-.017-.055s.016-.006.027-.008.008,0,.013,0a.254.254,0,0,0,.036-.005H20.1l0,0c1.045-.029,2.1,0,3.141-.02-.005-.158-.011-.315-.016-.472a20.152,20.152,0,0,1-.082-2.688c0-.005.005-.012.005-.025a.1.1,0,0,1,.043-.028c-.009,0,0,0,.021,0a.824.824,0,0,1,.277-.019c.113-.006.227-.019.34-.025.362-.02.72.032,1.08.044.289.011.576-.017.867-.034,0-.12-.006-.239-.01-.36-.01-.337-.019-.674-.019-1.009,0-.007,0-.012,0-.019-.328-.013-4,0-4,.027-.066,1.021.06,2.036.06,3.056l0,.1,0,.037.009.071-.13.019c-.247.009-.492-.069-.738-.082-.3-.016-.608.021-.912.01-.112,0-1.439-.043-1.439-.048.073,1.024.1,2.048.088,3.074,0,.062,0,.038,0,.049l0,.012.007.038a.214.214,0,0,0-.05.012c-.006-.008-.014-.019-.015-.017a.044.044,0,0,1-.016.008c-.019,0,.022,0-.077,0l-.42,0c-.2,0-2.536,0-2.537.056-.027.954-.117,1.9-.1,2.854v.084l0,.017,0,.027a.716.716,0,0,0-.075.005.491.491,0,0,0-.065.026l-.023,0c-.323-.044-.645.028-.968,0a2.764,2.764,0,0,0-.876.068c-.027.006-.069.011-.064.006-.051-.028-.034-.076-.074-.055a.046.046,0,0,1-.019-.042.067.067,0,0,1,.007-.032c0-.012,0-.024,0-.035a.129.129,0,0,1-.009-.014.147.147,0,0,1-.017-.075s0-.151,0-.156l-.011,0c.022-.342.028-.684.029-1.025l0-1.664-.967-.05a13.369,13.369,0,0,1-1.706-.043.126.126,0,0,1-.025-.006,1.276,1.276,0,0,0-.3.036.036.036,0,0,1-.044-.052c.018-.028.027-.037.011-.035s-.024-.02-.014-.031a8.441,8.441,0,0,0,0-1.584A12.432,12.432,0,0,0,10.113,8.3l-.053-.006A12.319,12.319,0,0,0,7.377,8.2c-.081,0-.162,0-.242-.012.022-.027.028-.029.026-.032s-.005.014-.007-.02a22.211,22.211,0,0,0-.119-2.592,2.671,2.671,0,0,0-.066-.368c-.38.015-3.847-.287-3.911-.027-.1.421.167.858.259,1.261.008.035,1.242-.116,1.344-.115Zm21.264,17c-.048-.429-.605-.585-.864-.846a.159.159,0,0,0-.118-.039,22.474,22.474,0,0,0-1.65,2.2.381.381,0,0,1-.069.085c.011-.01-.972-1.231-1.054-1.334-.259-.33-.473-.884-.94-.983-.5-.106-.914.3-1.2.653q-.352.44-.68.9c-.046.064-.5.754-.565.631.009.018-.044-.05-.081-.094-.224-.277-.439-.565-.683-.825-.4-.426-.578-1.1-1.208-1.276l-.224.043c-.421.082-.833.605-1.1.918a7.88,7.88,0,0,0-.923,1.375.548.548,0,0,1-.106.144,2.37,2.37,0,0,1-.557-.777c-.175-.319-.37-.625-.566-.931-.167-.261-.5-.783-.817-.839a2.324,2.324,0,0,0-.539.046,2.452,2.452,0,0,0-.432.242c-.255.139-.458.549-.626.781a11.389,11.389,0,0,0-.9,1.241l-.074.147c-.016-.025-.029-.05-.048-.074a7.317,7.317,0,0,1-.754-1.073A3.427,3.427,0,0,0,8.09,22.258c-.049-.023-.121.012-.181.016l-.366.067-.284.183a6.4,6.4,0,0,0-1.5,1.815c-.084.116-.166.31-.292.245-.079-.041-.164-.253-.211-.327-.138-.221-.263-.46-.423-.666-.084-.109-.767-1.2-.873-1.163-.405.143-.649.572-.956.858.083.106.166.213.24.323.4.586.825,1.151,1.217,1.742a4.286,4.286,0,0,0,.573.738c.125.121.256.342.441.375.242.043.441-.29.582-.448.41-.461.775-.957,1.153-1.445a6.06,6.06,0,0,1,.611-.642,5.026,5.026,0,0,1,.4.659,6.568,6.568,0,0,0,.663.9,4.181,4.181,0,0,0,.277.459,1.627,1.627,0,0,0,.44.381,1.274,1.274,0,0,0,1-.206,3.254,3.254,0,0,0,.731-1.041,8.251,8.251,0,0,1,.825-1.142,1.4,1.4,0,0,1,.286.393,4.4,4.4,0,0,0,.337.581c.255.342.5.692.744,1.045.177.259.265.467.6.458.277-.007.556-.019.831-.053l.012,0c.017,0,.035-.005.051-.01a.249.249,0,0,0,.032-.012.319.319,0,0,0,.029-.017,6.153,6.153,0,0,0,.7-1.047c.121-.174.243-.347.367-.519s.252-.342.384-.509c.021-.027.043-.055.066-.082a.581.581,0,0,0,.058-.074s.024.033.028.036.023.015.034.024a.4.4,0,0,1,.051.058c.3.381.571.8.9,1.158a6.847,6.847,0,0,0,.881.91l.019.015a.216.216,0,0,0,.138.058.276.276,0,0,0,.035-.007,2.078,2.078,0,0,0,1.32-.985c.174-.245.319-.5.508-.731a2.93,2.93,0,0,1,.475-.491,12.767,12.767,0,0,1,1.115,1.473c.446.542,1.148,1.054,1.781.511A6.78,6.78,0,0,0,24.978,24.6c.228-.342.955-.822.948-1.253a.48.48,0,0,0,0-.051Zm-.246-3.917a.229.229,0,0,1,0-.074l-.112.006a.165.165,0,0,0-.043-.007c-2.693.08-5.38-.243-8.072-.126-2.17.094-4.352-.179-6.521-.024-.612.043-1.218.131-1.833.118-1.817-.042-3.632-.089-5.451-.119a1.079,1.079,0,0,0-.388,0c-.039.009-.054.073-.091.088-.183.075-.088,1.319-.064,1.321a28.1,28.1,0,0,0,3.151-.088c1.159-.019,2.316.08,3.475.071,1.647-.012,3.289-.035,4.936-.018,1.668.018,3.339.053,5.007.02.889-.018,1.778-.062,2.667-.062.287,0,.575,0,.862.016.531.021,1.054.084,1.581.144.2.023.908.172,1.032-.066.027-.052.063-.186,0-.228a.2.2,0,0,0-.034-.254C25.864,19.92,25.72,19.565,25.678,19.382Z" transform="translate(631.37 5629.266)" fill="#076b40"/>
  </g>
</svg>
