<svg xmlns="http://www.w3.org/2000/svg" width="25.835" height="16.908" viewBox="0 0 25.835 16.908">
  <g id="nature" transform="translate(0 -88.46)">
    <path id="Path_130121" data-name="Path 130121" d="M23.066,127.331l-2.19-2.122v-6.791a3.233,3.233,0,0,0,2.471-3.137v-.839H21.833v.839a1.716,1.716,0,0,1-.957,1.537v-3.634H19.363v5.585a1.716,1.716,0,0,1-.957-1.537v-.839H16.892v.839a3.233,3.233,0,0,0,2.471,3.137v3.373a3.04,3.04,0,0,0-4.226.005l-.066.064,3.632,3.52H16.527L12.11,123.05a3.537,3.537,0,0,0-4.924,0l-4.417,4.281H0v1.514H25.835v-1.514Z" transform="translate(0 -23.476)" fill="#076b40"/>
    <circle id="Ellipse_9945" data-name="Ellipse 9945" cx="2.416" cy="2.416" r="2.416" transform="translate(1.767 88.46)" fill="#076b40"/>
  </g>
</svg>
