<svg xmlns="http://www.w3.org/2000/svg" width="26" height="26" viewBox="0 0 26 26">
  <g id="link" transform="translate(-0.001)">
    <path id="Path_130132" data-name="Path 130132" d="M23.34,31.842H21.508a.687.687,0,0,0-.687.687v8.352a.805.805,0,0,1-.8.8H4.01a.8.8,0,0,1-.8-.8V24.875a.8.8,0,0,1,.8-.8h8.78a.687.687,0,0,0,.687-.687V21.552a.687.687,0,0,0-.687-.687H4.01A4.014,4.014,0,0,0,0,24.875V40.881a4.014,4.014,0,0,0,4.009,4.01H20.017a4.014,4.014,0,0,0,4.01-4.01V32.529A.687.687,0,0,0,23.34,31.842Z" transform="translate(0 -18.891)" fill="#fff"/>
    <path id="Path_130133" data-name="Path 130133" d="M133.359,0h-7.527a.71.71,0,0,0-.71.71V2.6a.71.71,0,0,0,.71.71h2.584l-9.722,9.722a.71.71,0,0,0,0,1l1.338,1.338a.71.71,0,0,0,1,0l9.722-9.722V8.237a.71.71,0,0,0,.71.71h1.892a.71.71,0,0,0,.71-.71V.71A.71.71,0,0,0,133.359,0Z" transform="translate(-108.068)" fill="#fff"/>
  </g>
</svg>
